<?xml version="1.0" encoding="UTF-8" standalone="no"?>
<!DOCTYPE svg PUBLIC "-//W3C//DTD SVG 1.1//EN"
 "http://www.w3.org/Graphics/SVG/1.1/DTD/svg11.dtd">
<!-- Generated by graphviz version 12.2.1 (20241206.2353)
 -->
<!-- Title: src.main.java.TicTacToeModel Pages: 1 -->
<svg width="458pt" height="768pt"
 viewBox="0.00 0.00 458.00 768.00" xmlns="http://www.w3.org/2000/svg" xmlns:xlink="http://www.w3.org/1999/xlink">
<g id="graph0" class="graph" transform="scale(1 1) rotate(0) translate(4 764)">
<title>src.main.java.TicTacToeModel</title>
<!-- Node1 -->
<g id="Node000001" class="node">
<title>Node1</title>
<g id="a_Node000001"><a xlink:title=" ">
<polygon fill="#999999" stroke="none" points="321.75,-276 0,-276 0,0 321.75,0 321.75,-276"/>
<text text-anchor="start" x="94.5" y="-262.5" font-family="Helvetica,sans-Serif" font-size="10.00">src.main.java.TicTacToeModel</text>
<text text-anchor="start" x="4" y="-246.5" font-family="Helvetica,sans-Serif" font-size="10.00">+</text>
<text text-anchor="start" x="14" y="-246.5" font-family="Helvetica,sans-Serif" font-size="10.00">static final int BOARD_SIZE</text>
<text text-anchor="start" x="4" y="-230.5" font-family="Helvetica,sans-Serif" font-size="10.00">+</text>
<text text-anchor="start" x="14" y="-230.5" font-family="Helvetica,sans-Serif" font-size="10.00">static final String BOARD_UPDATE_PROP_NAME</text>
<text text-anchor="start" x="5.5" y="-214.5" font-family="Helvetica,sans-Serif" font-size="10.00">&#45;</text>
<text text-anchor="start" x="14" y="-214.5" font-family="Helvetica,sans-Serif" font-size="10.00">final SwingPropertyChangeSupport propertyChanges</text>
<text text-anchor="start" x="5.5" y="-198.5" font-family="Helvetica,sans-Serif" font-size="10.00">&#45;</text>
<text text-anchor="start" x="14" y="-198.5" font-family="Helvetica,sans-Serif" font-size="10.00">boolean bIsGameOver</text>
<text text-anchor="start" x="4" y="-182.5" font-family="Helvetica,sans-Serif" font-size="10.00">+</text>
<text text-anchor="start" x="14" y="-182.5" font-family="Helvetica,sans-Serif" font-size="10.00">TicTacToeModel()</text>
<text text-anchor="start" x="4" y="-166.5" font-family="Helvetica,sans-Serif" font-size="10.00">+</text>
<text text-anchor="start" x="14" y="-166.5" font-family="Helvetica,sans-Serif" font-size="10.00">TicTacToeBoard getGameBoard()</text>
<text text-anchor="start" x="4" y="-150.5" font-family="Helvetica,sans-Serif" font-size="10.00">+</text>
<text text-anchor="start" x="14" y="-150.5" font-family="Helvetica,sans-Serif" font-size="10.00">boolean isGameOver()</text>
<text text-anchor="start" x="4" y="-134.5" font-family="Helvetica,sans-Serif" font-size="10.00">+</text>
<text text-anchor="start" x="14" y="-134.5" font-family="Helvetica,sans-Serif" font-size="10.00">int getBoardWinType()</text>
<text text-anchor="start" x="4" y="-118.5" font-family="Helvetica,sans-Serif" font-size="10.00">+</text>
<text text-anchor="start" x="14" y="-118.5" font-family="Helvetica,sans-Serif" font-size="10.00">int getBoardWinIndex()</text>
<text text-anchor="start" x="4" y="-102.5" font-family="Helvetica,sans-Serif" font-size="10.00">+</text>
<text text-anchor="start" x="14" y="-102.5" font-family="Helvetica,sans-Serif" font-size="10.00">void updateBoard(int row, int col, TttPlayerOwner playerOwner)</text>
<text text-anchor="start" x="4" y="-86.5" font-family="Helvetica,sans-Serif" font-size="10.00">+</text>
<text text-anchor="start" x="14" y="-86.5" font-family="Helvetica,sans-Serif" font-size="10.00">void clearBoard()</text>
<text text-anchor="start" x="4" y="-70.5" font-family="Helvetica,sans-Serif" font-size="10.00">+</text>
<text text-anchor="start" x="14" y="-70.5" font-family="Helvetica,sans-Serif" font-size="10.00">void onBoardClick(int row, int col)</text>
<text text-anchor="start" x="4" y="-54.5" font-family="Helvetica,sans-Serif" font-size="10.00">+</text>
<text text-anchor="start" x="14" y="-54.5" font-family="Helvetica,sans-Serif" font-size="10.00">boolean isBoardFull()</text>
<text text-anchor="start" x="4" y="-38.5" font-family="Helvetica,sans-Serif" font-size="10.00">+</text>
<text text-anchor="start" x="14" y="-38.5" font-family="Helvetica,sans-Serif" font-size="10.00">void addPropertyChangeListener(PropertyChangeListener listener)</text>
<text text-anchor="start" x="4" y="-22.5" font-family="Helvetica,sans-Serif" font-size="10.00">+</text>
<text text-anchor="start" x="14" y="-22.5" font-family="Helvetica,sans-Serif" font-size="10.00">void removePropertyChangeListener(PropertyChangeListener listener)</text>
<text text-anchor="start" x="5.5" y="-6.5" font-family="Helvetica,sans-Serif" font-size="10.00">&#45;</text>
<text text-anchor="start" x="14" y="-6.5" font-family="Helvetica,sans-Serif" font-size="10.00">void switchPlayer()</text>
<polygon fill="#666666" stroke="#666666" points="0,-258 0,-258 321.75,-258 321.75,-258 0,-258"/>
<polygon fill="#666666" stroke="#666666" points="0,-194 0,-194 12,-194 12,-194 0,-194"/>
<polygon fill="#666666" stroke="#666666" points="12,-194 12,-194 321.75,-194 321.75,-194 12,-194"/>
<polygon fill="none" stroke="#666666" points="0,0 0,-276 321.75,-276 321.75,0 0,0"/>
</a>
</g>
</g>
<!-- Node2 -->
<g id="Node000002" class="node">
<title>Node2</title>
<g id="a_Node000002"><a xlink:href="classsrc_1_1main_1_1java_1_1_tic_tac_toe_board.html" target="_top" xlink:title=" ">
<polygon fill="white" stroke="none" points="450,-622 183.75,-622 183.75,-330 450,-330 450,-622"/>
<text text-anchor="start" x="250.88" y="-608.5" font-family="Helvetica,sans-Serif" font-size="10.00">src.main.java.TicTacToeBoard</text>
<text text-anchor="start" x="187.75" y="-592.5" font-family="Helvetica,sans-Serif" font-size="10.00">+</text>
<text text-anchor="start" x="197.75" y="-592.5" font-family="Helvetica,sans-Serif" font-size="10.00">static final int NO_WINNER</text>
<text text-anchor="start" x="187.75" y="-576.5" font-family="Helvetica,sans-Serif" font-size="10.00">+</text>
<text text-anchor="start" x="197.75" y="-576.5" font-family="Helvetica,sans-Serif" font-size="10.00">static final int X_WINNER</text>
<text text-anchor="start" x="187.75" y="-560.5" font-family="Helvetica,sans-Serif" font-size="10.00">+</text>
<text text-anchor="start" x="197.75" y="-560.5" font-family="Helvetica,sans-Serif" font-size="10.00">static final int O_WINNER</text>
<text text-anchor="start" x="187.75" y="-544.5" font-family="Helvetica,sans-Serif" font-size="10.00">+</text>
<text text-anchor="start" x="197.75" y="-544.5" font-family="Helvetica,sans-Serif" font-size="10.00">static final int DRAW</text>
<text text-anchor="start" x="187.75" y="-528.5" font-family="Helvetica,sans-Serif" font-size="10.00">+</text>
<text text-anchor="start" x="197.75" y="-528.5" font-family="Helvetica,sans-Serif" font-size="10.00">static final int BOARD_SIZE</text>
<text text-anchor="start" x="189.25" y="-512.5" font-family="Helvetica,sans-Serif" font-size="10.00">&#45;</text>
<text text-anchor="start" x="197.75" y="-512.5" font-family="Helvetica,sans-Serif" font-size="10.00">int winner</text>
<text text-anchor="start" x="189.25" y="-496.5" font-family="Helvetica,sans-Serif" font-size="10.00">&#45;</text>
<text text-anchor="start" x="197.75" y="-496.5" font-family="Helvetica,sans-Serif" font-size="10.00">int winType</text>
<text text-anchor="start" x="189.25" y="-480.5" font-family="Helvetica,sans-Serif" font-size="10.00">&#45;</text>
<text text-anchor="start" x="197.75" y="-480.5" font-family="Helvetica,sans-Serif" font-size="10.00">int winIndex</text>
<text text-anchor="start" x="187.75" y="-464.5" font-family="Helvetica,sans-Serif" font-size="10.00">+</text>
<text text-anchor="start" x="197.75" y="-464.5" font-family="Helvetica,sans-Serif" font-size="10.00">TicTacToeBoard()</text>
<text text-anchor="start" x="187.75" y="-448.5" font-family="Helvetica,sans-Serif" font-size="10.00">+</text>
<text text-anchor="start" x="197.75" y="-448.5" font-family="Helvetica,sans-Serif" font-size="10.00">int getWinner()</text>
<text text-anchor="start" x="187.75" y="-432.5" font-family="Helvetica,sans-Serif" font-size="10.00">+</text>
<text text-anchor="start" x="197.75" y="-432.5" font-family="Helvetica,sans-Serif" font-size="10.00">int getWinType()</text>
<text text-anchor="start" x="187.75" y="-416.5" font-family="Helvetica,sans-Serif" font-size="10.00">+</text>
<text text-anchor="start" x="197.75" y="-416.5" font-family="Helvetica,sans-Serif" font-size="10.00">int getWinIndex()</text>
<text text-anchor="start" x="187.75" y="-400.5" font-family="Helvetica,sans-Serif" font-size="10.00">+</text>
<text text-anchor="start" x="197.75" y="-400.5" font-family="Helvetica,sans-Serif" font-size="10.00">void clear()</text>
<text text-anchor="start" x="187.75" y="-384.5" font-family="Helvetica,sans-Serif" font-size="10.00">+</text>
<text text-anchor="start" x="197.75" y="-384.5" font-family="Helvetica,sans-Serif" font-size="10.00">void update(int row, int col, TttPlayerOwner playerOwner)</text>
<text text-anchor="start" x="187.75" y="-368.5" font-family="Helvetica,sans-Serif" font-size="10.00">+</text>
<text text-anchor="start" x="197.75" y="-368.5" font-family="Helvetica,sans-Serif" font-size="10.00">boolean isFull()</text>
<text text-anchor="start" x="187.75" y="-352.5" font-family="Helvetica,sans-Serif" font-size="10.00">+</text>
<text text-anchor="start" x="197.75" y="-352.5" font-family="Helvetica,sans-Serif" font-size="10.00">int checkForWinner()</text>
<text text-anchor="start" x="187.75" y="-336.5" font-family="Helvetica,sans-Serif" font-size="10.00">~</text>
<text text-anchor="start" x="197.75" y="-336.5" font-family="Helvetica,sans-Serif" font-size="10.00">TttPlayerOwner getPlayerOwner(int row, int col)</text>
<polygon fill="#666666" stroke="#666666" points="183.75,-604 183.75,-604 450,-604 450,-604 183.75,-604"/>
<polygon fill="#666666" stroke="#666666" points="183.75,-476 183.75,-476 195.75,-476 195.75,-476 183.75,-476"/>
<polygon fill="#666666" stroke="#666666" points="195.75,-476 195.75,-476 450,-476 450,-476 195.75,-476"/>
<polygon fill="none" stroke="#666666" points="183.75,-330 183.75,-622 450,-622 450,-330 183.75,-330"/>
</a>
</g>
</g>
<!-- Node2&#45;&gt;Node1 -->
<g id="edge1_Node000001_Node000002" class="edge">
<title>Node2&#45;&gt;Node1</title>
<g id="a_edge1_Node000001_Node000002"><a xlink:title=" ">
<path fill="none" stroke="#63b8ff" d="M249.59,-330.07C243.05,-315.98 236.4,-301.68 229.85,-287.56"/>
<polygon fill="none" stroke="#63b8ff" points="229.8,-287.45 223.65,-283.7 224.75,-276.57 230.9,-280.33 229.8,-287.45"/>
</a>
</g>
<text text-anchor="start" x="241.88" y="-299.5" font-family="Helvetica,sans-Serif" font-size="10.00" fill="grey">&#45;gameBoard</text>
</g>
<!-- Node3 -->
<g id="Node000003" class="node">
<title>Node3</title>
<g id="a_Node000003"><a xlink:href="enumsrc_1_1main_1_1java_1_1_ttt_player_owner.html" target="_top" xlink:title=" ">
<polygon fill="white" stroke="none" points="183.75,-760 46,-760 46,-676 183.75,-676 183.75,-760"/>
<text text-anchor="start" x="50" y="-746.5" font-family="Helvetica,sans-Serif" font-size="10.00">src.main.java.TttPlayerOwner</text>
<text text-anchor="start" x="70.75" y="-730.5" font-family="Helvetica,sans-Serif" font-size="10.00">+</text>
<text text-anchor="start" x="101.5" y="-730.5" font-family="Helvetica,sans-Serif" font-size="10.00">NOONE</text>
<text text-anchor="start" x="70.75" y="-714.5" font-family="Helvetica,sans-Serif" font-size="10.00">+</text>
<text text-anchor="start" x="101.5" y="-714.5" font-family="Helvetica,sans-Serif" font-size="10.00">X</text>
<text text-anchor="start" x="70.75" y="-698.5" font-family="Helvetica,sans-Serif" font-size="10.00">+</text>
<text text-anchor="start" x="101.5" y="-698.5" font-family="Helvetica,sans-Serif" font-size="10.00">O</text>
<text text-anchor="start" x="113.38" y="-682.5" font-family="Helvetica,sans-Serif" font-size="10.00"> </text>
<polygon fill="#666666" stroke="#666666" points="46,-742 46,-742 183.75,-742 183.75,-742 46,-742"/>
<polygon fill="#666666" stroke="#666666" points="46,-694 46,-694 99.5,-694 99.5,-694 46,-694"/>
<polygon fill="#666666" stroke="#666666" points="99.5,-694 99.5,-694 183.75,-694 183.75,-694 99.5,-694"/>
<polygon fill="none" stroke="#666666" points="46,-676 46,-760 183.75,-760 183.75,-676 46,-676"/>
</a>
</g>
</g>
<!-- Node3&#45;&gt;Node1 -->
<g id="edge3_Node000001_Node000003" class="edge">
<title>Node3&#45;&gt;Node1</title>
<g id="a_edge3_Node000001_Node000003"><a xlink:title=" ">
<path fill="none" stroke="#63b8ff" d="M111.35,-676.35C110.06,-659.54 108.76,-639.85 108.12,-622 103.52,-492.3 90.69,-458.6 108.12,-330 109.98,-316.29 112.56,-302.17 115.58,-288.12"/>
<polygon fill="none" stroke="#63b8ff" points="115.52,-288.38 112.93,-281.65 118.15,-276.67 120.74,-283.4 115.52,-288.38"/>
</a>
</g>
<text text-anchor="start" x="111.12" y="-472.5" font-family="Helvetica,sans-Serif" font-size="10.00" fill="grey">&#45;currentPlayer</text>
</g>
<!-- Node3&#45;&gt;Node2 -->
<g id="edge2_Node000002_Node000003" class="edge">
<title>Node3&#45;&gt;Node2</title>
<g id="a_edge2_Node000002_Node000003"><a xlink:title=" ">
<path fill="none" stroke="#63b8ff" d="M149.37,-676.02C160.34,-662.98 173.2,-647.7 186.83,-631.5"/>
<polygon fill="none" stroke="#63b8ff" points="186.63,-631.74 187.44,-624.58 194.36,-622.56 193.56,-629.73 186.63,-631.74"/>
</a>
</g>
<text text-anchor="start" x="177.56" y="-645.5" font-family="Helvetica,sans-Serif" font-size="10.00" fill="grey">&#45;tttBoard</text>
</g>
</g>
</svg>
