<?xml version="1.0" encoding="UTF-8" standalone="no"?>
<!DOCTYPE svg PUBLIC "-//W3C//DTD SVG 1.1//EN"
 "http://www.w3.org/Graphics/SVG/1.1/DTD/svg11.dtd">
<!-- Generated by graphviz version 12.2.1 (20241206.2353)
 -->
<!-- Title: src.main.java.TicTacToeView.initIconMap Pages: 1 -->
<svg width="462pt" height="66pt"
 viewBox="0.00 0.00 461.50 66.00" xmlns="http://www.w3.org/2000/svg" xmlns:xlink="http://www.w3.org/1999/xlink">
<g id="graph0" class="graph" transform="scale(1 1) rotate(0) translate(4 62)">
<title>src.main.java.TicTacToeView.initIconMap</title>
<!-- Node1 -->
<g id="Node000001" class="node">
<title>Node1</title>
<g id="a_Node000001"><a xlink:title=" ">
<polygon fill="#999999" stroke="#666666" points="196.75,-39 0,-39 0,-19 196.75,-19 196.75,-39"/>
<text text-anchor="middle" x="98.38" y="-25.5" font-family="Helvetica,sans-Serif" font-size="10.00">src.main.java.TicTacToeView.initIconMap</text>
</a>
</g>
</g>
<!-- Node2 -->
<g id="Node000002" class="node">
<title>Node2</title>
<g id="a_Node000002"><a xlink:href="classsrc_1_1main_1_1java_1_1_tic_tac_toe_view.html#a5cdd973a4a8b1c491d2129fdcfe3613f" target="_top" xlink:title=" ">
<polygon fill="white" stroke="#666666" points="453.5,-58 232.75,-58 232.75,-38 453.5,-38 453.5,-58"/>
<text text-anchor="middle" x="343.12" y="-44.5" font-family="Helvetica,sans-Serif" font-size="10.00">src.main.java.TicTacToeView.createEmptyIcon</text>
</a>
</g>
</g>
<!-- Node1&#45;&gt;Node2 -->
<g id="edge1_Node000001_Node000002" class="edge">
<title>Node1&#45;&gt;Node2</title>
<g id="a_edge1_Node000001_Node000002"><a xlink:title=" ">
<path fill="none" stroke="#63b8ff" d="M197.06,-36.65C204.94,-37.26 212.96,-37.89 220.98,-38.52"/>
<polygon fill="#63b8ff" stroke="#63b8ff" points="220.55,-41.99 230.79,-39.29 221.09,-35.02 220.55,-41.99"/>
</a>
</g>
</g>
<!-- Node3 -->
<g id="Node000003" class="node">
<title>Node3</title>
<g id="a_Node000003"><a xlink:href="classsrc_1_1main_1_1java_1_1_tic_tac_toe_view.html#a3bb0a425dfba2a376d7b5a7d0df2eae9" target="_top" xlink:title=" ">
<polygon fill="white" stroke="#666666" points="433.62,-20 252.62,-20 252.62,0 433.62,0 433.62,-20"/>
<text text-anchor="middle" x="343.12" y="-6.5" font-family="Helvetica,sans-Serif" font-size="10.00">src.main.java.TicTacToeView.splitImg</text>
</a>
</g>
</g>
<!-- Node1&#45;&gt;Node3 -->
<g id="edge2_Node000001_Node000003" class="edge">
<title>Node1&#45;&gt;Node3</title>
<g id="a_edge2_Node000001_Node000003"><a xlink:title=" ">
<path fill="none" stroke="#63b8ff" d="M197.06,-21.35C211.65,-20.21 226.72,-19.03 241.38,-17.89"/>
<polygon fill="#63b8ff" stroke="#63b8ff" points="241.28,-21.4 250.98,-17.13 240.74,-14.42 241.28,-21.4"/>
</a>
</g>
</g>
</g>
</svg>
