<?xml version="1.0" encoding="UTF-8" standalone="no"?>
<!DOCTYPE svg PUBLIC "-//W3C//DTD SVG 1.1//EN"
 "http://www.w3.org/Graphics/SVG/1.1/DTD/svg11.dtd">
<!-- Generated by graphviz version 12.2.1 (20241206.2353)
 -->
<!-- Title: src.main.java.TicTacToeView.ClearAction Pages: 1 -->
<svg width="200pt" height="164pt"
 viewBox="0.00 0.00 200.00 164.00" xmlns="http://www.w3.org/2000/svg" xmlns:xlink="http://www.w3.org/1999/xlink">
<g id="graph0" class="graph" transform="scale(1 1) rotate(0) translate(4 160)">
<title>src.main.java.TicTacToeView.ClearAction</title>
<!-- Node1 -->
<g id="Node000001" class="node">
<title>Node1</title>
<g id="a_Node000001"><a xlink:title=" ">
<polygon fill="#999999" stroke="none" points="192,-68 0,-68 0,0 192,0 192,-68"/>
<text text-anchor="start" x="5.25" y="-54.5" font-family="Helvetica,sans-Serif" font-size="10.00">src.main.java.TicTacToeView.ClearAction</text>
<text text-anchor="start" x="94.5" y="-38.5" font-family="Helvetica,sans-Serif" font-size="10.00"> </text>
<text text-anchor="start" x="4" y="-22.5" font-family="Helvetica,sans-Serif" font-size="10.00">+</text>
<text text-anchor="start" x="14" y="-22.5" font-family="Helvetica,sans-Serif" font-size="10.00">ClearAction(String name, int mnemonic)</text>
<text text-anchor="start" x="4" y="-6.5" font-family="Helvetica,sans-Serif" font-size="10.00">+</text>
<text text-anchor="start" x="14" y="-6.5" font-family="Helvetica,sans-Serif" font-size="10.00">void actionPerformed(ActionEvent evt)</text>
<polygon fill="#666666" stroke="#666666" points="0,-50 0,-50 192,-50 192,-50 0,-50"/>
<polygon fill="#666666" stroke="#666666" points="0,-34 0,-34 192,-34 192,-34 0,-34"/>
<polygon fill="none" stroke="#666666" points="0,0 0,-68 192,-68 192,0 0,0"/>
</a>
</g>
</g>
<!-- Node2 -->
<g id="Node000002" class="node">
<title>Node2</title>
<g id="a_Node000002"><a xlink:href="class_abstract_action.html" target="_top" xlink:title=" ">
<polygon fill="white" stroke="none" points="132.25,-156 59.75,-156 59.75,-104 132.25,-104 132.25,-156"/>
<text text-anchor="start" x="63.75" y="-142.5" font-family="Helvetica,sans-Serif" font-size="10.00">AbstractAction</text>
<text text-anchor="start" x="94.5" y="-126.5" font-family="Helvetica,sans-Serif" font-size="10.00"> </text>
<text text-anchor="start" x="94.5" y="-110.5" font-family="Helvetica,sans-Serif" font-size="10.00"> </text>
<polygon fill="#666666" stroke="#666666" points="59.75,-138 59.75,-138 132.25,-138 132.25,-138 59.75,-138"/>
<polygon fill="#666666" stroke="#666666" points="59.75,-122 59.75,-122 132.25,-122 132.25,-122 59.75,-122"/>
<polygon fill="none" stroke="#666666" points="59.75,-104 59.75,-156 132.25,-156 132.25,-104 59.75,-104"/>
</a>
</g>
</g>
<!-- Node2&#45;&gt;Node1 -->
<g id="edge1_Node000001_Node000002" class="edge">
<title>Node2&#45;&gt;Node1</title>
<g id="a_edge1_Node000001_Node000002"><a xlink:title=" ">
<path fill="none" stroke="#63b8ff" d="M96,-92.97C96,-84.65 96,-75.84 96,-67.67"/>
<polygon fill="none" stroke="#63b8ff" points="92.5,-92.79 96,-102.79 99.5,-92.79 92.5,-92.79"/>
</a>
</g>
</g>
</g>
</svg>
