<?xml version="1.0" encoding="UTF-8" standalone="no"?>
<!DOCTYPE svg PUBLIC "-//W3C//DTD SVG 1.1//EN"
 "http://www.w3.org/Graphics/SVG/1.1/DTD/svg11.dtd">
<!-- Generated by graphviz version 12.2.1 (20241206.2353)
 -->
<!-- Title: src.main.java.TicTacToeView.TicTacToeView Pages: 1 -->
<svg width="729pt" height="85pt"
 viewBox="0.00 0.00 728.75 85.00" xmlns="http://www.w3.org/2000/svg" xmlns:xlink="http://www.w3.org/1999/xlink">
<g id="graph0" class="graph" transform="scale(1 1) rotate(0) translate(4 81)">
<title>src.main.java.TicTacToeView.TicTacToeView</title>
<!-- Node1 -->
<g id="Node000001" class="node">
<title>Node1</title>
<g id="a_Node000001"><a xlink:title=" ">
<polygon fill="#999999" stroke="#666666" points="213.25,-58 0,-58 0,-38 213.25,-38 213.25,-58"/>
<text text-anchor="middle" x="106.62" y="-44.5" font-family="Helvetica,sans-Serif" font-size="10.00">src.main.java.TicTacToeView.TicTacToeView</text>
</a>
</g>
</g>
<!-- Node2 -->
<g id="Node000002" class="node">
<title>Node2</title>
<g id="a_Node000002"><a xlink:href="classsrc_1_1main_1_1java_1_1_tic_tac_toe_view.html#a2da56e0280e8a7b6c101feeccda52748" target="_top" xlink:title=" ">
<polygon fill="white" stroke="#666666" points="464,-77 249.25,-77 249.25,-57 464,-57 464,-77"/>
<text text-anchor="middle" x="356.62" y="-63.5" font-family="Helvetica,sans-Serif" font-size="10.00">src.main.java.TicTacToeView.initComponents</text>
</a>
</g>
</g>
<!-- Node1&#45;&gt;Node2 -->
<g id="edge1_Node000001_Node000002" class="edge">
<title>Node1&#45;&gt;Node2</title>
<g id="a_edge1_Node000001_Node000002"><a xlink:title=" ">
<path fill="none" stroke="#63b8ff" d="M213.52,-56.11C221.48,-56.72 229.55,-57.34 237.58,-57.96"/>
<polygon fill="#63b8ff" stroke="#63b8ff" points="237.15,-61.43 247.39,-58.71 237.69,-54.45 237.15,-61.43"/>
</a>
</g>
</g>
<!-- Node3 -->
<g id="Node000003" class="node">
<title>Node3</title>
<g id="a_Node000003"><a xlink:href="classsrc_1_1main_1_1java_1_1_tic_tac_toe_view.html#a32e691b5bbaf24f3283fe13cc6c58eb6" target="_top" xlink:title=" ">
<polygon fill="white" stroke="#666666" points="455,-39 258.25,-39 258.25,-19 455,-19 455,-39"/>
<text text-anchor="middle" x="356.62" y="-25.5" font-family="Helvetica,sans-Serif" font-size="10.00">src.main.java.TicTacToeView.initIconMap</text>
</a>
</g>
</g>
<!-- Node1&#45;&gt;Node3 -->
<g id="edge2_Node000001_Node000003" class="edge">
<title>Node1&#45;&gt;Node3</title>
<g id="a_edge2_Node000001_Node000003"><a xlink:title=" ">
<path fill="none" stroke="#63b8ff" d="M213.52,-39.89C224.46,-39.05 235.6,-38.2 246.58,-37.35"/>
<polygon fill="#63b8ff" stroke="#63b8ff" points="246.73,-40.85 256.43,-36.6 246.2,-33.87 246.73,-40.85"/>
</a>
</g>
</g>
<!-- Node4 -->
<g id="Node000004" class="node">
<title>Node4</title>
<g id="a_Node000004"><a xlink:href="classsrc_1_1main_1_1java_1_1_tic_tac_toe_view.html#a5cdd973a4a8b1c491d2129fdcfe3613f" target="_top" xlink:title=" ">
<polygon fill="white" stroke="#666666" points="720.75,-58 500,-58 500,-38 720.75,-38 720.75,-58"/>
<text text-anchor="middle" x="610.38" y="-44.5" font-family="Helvetica,sans-Serif" font-size="10.00">src.main.java.TicTacToeView.createEmptyIcon</text>
</a>
</g>
</g>
<!-- Node3&#45;&gt;Node4 -->
<g id="edge3_Node000003_Node000004" class="edge">
<title>Node3&#45;&gt;Node4</title>
<g id="a_edge3_Node000003_Node000004"><a xlink:title=" ">
<path fill="none" stroke="#63b8ff" d="M455.32,-36.37C466.09,-37.19 477.15,-38.02 488.16,-38.85"/>
<polygon fill="#63b8ff" stroke="#63b8ff" points="487.87,-42.34 498.1,-39.6 488.39,-35.36 487.87,-42.34"/>
</a>
</g>
</g>
<!-- Node5 -->
<g id="Node000005" class="node">
<title>Node5</title>
<g id="a_Node000005"><a xlink:href="classsrc_1_1main_1_1java_1_1_tic_tac_toe_view.html#a3bb0a425dfba2a376d7b5a7d0df2eae9" target="_top" xlink:title=" ">
<polygon fill="white" stroke="#666666" points="700.88,-20 519.88,-20 519.88,0 700.88,0 700.88,-20"/>
<text text-anchor="middle" x="610.38" y="-6.5" font-family="Helvetica,sans-Serif" font-size="10.00">src.main.java.TicTacToeView.splitImg</text>
</a>
</g>
</g>
<!-- Node3&#45;&gt;Node5 -->
<g id="edge4_Node000003_Node000005" class="edge">
<title>Node3&#45;&gt;Node5</title>
<g id="a_edge4_Node000003_Node000005"><a xlink:title=" ">
<path fill="none" stroke="#63b8ff" d="M455.32,-21.63C472.67,-20.32 490.76,-18.95 508.21,-17.64"/>
<polygon fill="#63b8ff" stroke="#63b8ff" points="508.34,-21.14 518.05,-16.89 507.81,-14.16 508.34,-21.14"/>
</a>
</g>
</g>
</g>
</svg>
