<?xml version="1.0" encoding="UTF-8" standalone="no"?>
<!DOCTYPE svg PUBLIC "-//W3C//DTD SVG 1.1//EN"
 "http://www.w3.org/Graphics/SVG/1.1/DTD/svg11.dtd">
<!-- Generated by graphviz version 12.2.1 (20241206.2353)
 -->
<!-- Title: src.main.java.TicTacToeController Pages: 1 -->
<svg width="1169pt" height="1358pt"
 viewBox="0.00 0.00 1169.38 1358.00" xmlns="http://www.w3.org/2000/svg" xmlns:xlink="http://www.w3.org/1999/xlink">
<g id="graph0" class="graph" transform="scale(1 1) rotate(0) translate(4 1354)">
<title>src.main.java.TicTacToeController</title>
<!-- Node1 -->
<g id="Node000001" class="node">
<title>Node1</title>
<g id="a_Node000001"><a xlink:title=" ">
<polygon fill="#999999" stroke="none" points="936.88,-132 630.12,-132 630.12,0 936.88,0 936.88,-132"/>
<text text-anchor="start" x="709.25" y="-118.5" font-family="Helvetica,sans-Serif" font-size="10.00">src.main.java.TicTacToeController</text>
<text text-anchor="start" x="782" y="-102.5" font-family="Helvetica,sans-Serif" font-size="10.00"> </text>
<text text-anchor="start" x="634.12" y="-86.5" font-family="Helvetica,sans-Serif" font-size="10.00">+</text>
<text text-anchor="start" x="644.12" y="-86.5" font-family="Helvetica,sans-Serif" font-size="10.00">TicTacToeController(TicTacToeModel model, TicTacToeView view)</text>
<text text-anchor="start" x="634.12" y="-70.5" font-family="Helvetica,sans-Serif" font-size="10.00">+</text>
<text text-anchor="start" x="644.12" y="-70.5" font-family="Helvetica,sans-Serif" font-size="10.00">void exit(ActionEvent evt)</text>
<text text-anchor="start" x="634.12" y="-54.5" font-family="Helvetica,sans-Serif" font-size="10.00">+</text>
<text text-anchor="start" x="644.12" y="-54.5" font-family="Helvetica,sans-Serif" font-size="10.00">void onBoardClick(int row, int col)</text>
<text text-anchor="start" x="634.12" y="-38.5" font-family="Helvetica,sans-Serif" font-size="10.00">+</text>
<text text-anchor="start" x="644.12" y="-38.5" font-family="Helvetica,sans-Serif" font-size="10.00">void clear()</text>
<text text-anchor="start" x="634.12" y="-22.5" font-family="Helvetica,sans-Serif" font-size="10.00">+</text>
<text text-anchor="start" x="644.12" y="-22.5" font-family="Helvetica,sans-Serif" font-size="10.00">void mousePressed(MouseEvent evt)</text>
<text text-anchor="start" x="634.12" y="-6.5" font-family="Helvetica,sans-Serif" font-size="10.00">+</text>
<text text-anchor="start" x="644.12" y="-6.5" font-family="Helvetica,sans-Serif" font-size="10.00">void propertyChange(PropertyChangeEvent evt)</text>
<polygon fill="#666666" stroke="#666666" points="630.12,-114 630.12,-114 936.88,-114 936.88,-114 630.12,-114"/>
<polygon fill="#666666" stroke="#666666" points="630.12,-98 630.12,-98 936.88,-98 936.88,-98 630.12,-98"/>
<polygon fill="none" stroke="#666666" points="630.12,0 630.12,-132 936.88,-132 936.88,0 630.12,0"/>
</a>
</g>
</g>
<!-- Node2 -->
<g id="Node000002" class="node">
<title>Node2</title>
<g id="a_Node000002"><a xlink:href="class_mouse_adapter.html" target="_top" xlink:title=" ">
<polygon fill="white" stroke="none" points="602,-826 531,-826 531,-774 602,-774 602,-826"/>
<text text-anchor="start" x="535" y="-812.5" font-family="Helvetica,sans-Serif" font-size="10.00">MouseAdapter</text>
<text text-anchor="start" x="565" y="-796.5" font-family="Helvetica,sans-Serif" font-size="10.00"> </text>
<text text-anchor="start" x="565" y="-780.5" font-family="Helvetica,sans-Serif" font-size="10.00"> </text>
<polygon fill="#666666" stroke="#666666" points="531,-808 531,-808 602,-808 602,-808 531,-808"/>
<polygon fill="#666666" stroke="#666666" points="531,-792 531,-792 602,-792 602,-792 531,-792"/>
<polygon fill="none" stroke="#666666" points="531,-774 531,-826 602,-826 602,-774 531,-774"/>
</a>
</g>
</g>
<!-- Node2&#45;&gt;Node1 -->
<g id="edge1_Node000001_Node000002" class="edge">
<title>Node2&#45;&gt;Node1</title>
<g id="a_edge1_Node000001_Node000002"><a xlink:title=" ">
<path fill="none" stroke="#63b8ff" d="M597.1,-766.07C621.84,-741.11 658.68,-707.54 696.5,-686 762.81,-648.23 814.82,-693.87 859.5,-632 916.39,-553.22 841.28,-262.84 803.21,-131.85"/>
<polygon fill="none" stroke="#63b8ff" points="594.72,-763.5 590.24,-773.1 599.73,-768.39 594.72,-763.5"/>
</a>
</g>
</g>
<!-- Node16 -->
<g id="Node000016" class="node">
<title>Node16</title>
<g id="a_Node000016"><a xlink:href="classsrc_1_1main_1_1java_1_1_tic_tac_toe_controller.html" target="_top" xlink:title=" ">
<polygon fill="white" stroke="none" points="632.88,-632 326.12,-632 326.12,-500 632.88,-500 632.88,-632"/>
<text text-anchor="start" x="405.25" y="-618.5" font-family="Helvetica,sans-Serif" font-size="10.00">src.main.java.TicTacToeController</text>
<text text-anchor="start" x="478" y="-602.5" font-family="Helvetica,sans-Serif" font-size="10.00"> </text>
<text text-anchor="start" x="330.12" y="-586.5" font-family="Helvetica,sans-Serif" font-size="10.00">+</text>
<text text-anchor="start" x="340.12" y="-586.5" font-family="Helvetica,sans-Serif" font-size="10.00">TicTacToeController(TicTacToeModel model, TicTacToeView view)</text>
<text text-anchor="start" x="330.12" y="-570.5" font-family="Helvetica,sans-Serif" font-size="10.00">+</text>
<text text-anchor="start" x="340.12" y="-570.5" font-family="Helvetica,sans-Serif" font-size="10.00">void exit(ActionEvent evt)</text>
<text text-anchor="start" x="330.12" y="-554.5" font-family="Helvetica,sans-Serif" font-size="10.00">+</text>
<text text-anchor="start" x="340.12" y="-554.5" font-family="Helvetica,sans-Serif" font-size="10.00">void onBoardClick(int row, int col)</text>
<text text-anchor="start" x="330.12" y="-538.5" font-family="Helvetica,sans-Serif" font-size="10.00">+</text>
<text text-anchor="start" x="340.12" y="-538.5" font-family="Helvetica,sans-Serif" font-size="10.00">void clear()</text>
<text text-anchor="start" x="330.12" y="-522.5" font-family="Helvetica,sans-Serif" font-size="10.00">+</text>
<text text-anchor="start" x="340.12" y="-522.5" font-family="Helvetica,sans-Serif" font-size="10.00">void mousePressed(MouseEvent evt)</text>
<text text-anchor="start" x="330.12" y="-506.5" font-family="Helvetica,sans-Serif" font-size="10.00">+</text>
<text text-anchor="start" x="340.12" y="-506.5" font-family="Helvetica,sans-Serif" font-size="10.00">void propertyChange(PropertyChangeEvent evt)</text>
<polygon fill="#666666" stroke="#666666" points="326.12,-614 326.12,-614 632.88,-614 632.88,-614 326.12,-614"/>
<polygon fill="#666666" stroke="#666666" points="326.12,-598 326.12,-598 632.88,-598 632.88,-598 326.12,-598"/>
<polygon fill="none" stroke="#666666" points="326.12,-500 326.12,-632 632.88,-632 632.88,-500 326.12,-500"/>
</a>
</g>
</g>
<!-- Node2&#45;&gt;Node16 -->
<g id="edge20_Node000016_Node000002" class="edge">
<title>Node2&#45;&gt;Node16</title>
<g id="a_edge20_Node000016_Node000002"><a xlink:title=" ">
<path fill="none" stroke="#63b8ff" d="M553.21,-763.56C540.12,-728.66 519.83,-674.55 503.85,-631.93"/>
<polygon fill="none" stroke="#63b8ff" points="549.87,-764.62 556.66,-772.75 556.42,-762.16 549.87,-764.62"/>
</a>
</g>
</g>
<!-- Node3 -->
<g id="Node000003" class="node">
<title>Node3</title>
<g id="a_Node000003"><a xlink:href="class_property_change_listener.html" target="_top" xlink:title=" ">
<polygon fill="white" stroke="none" points="113,-826 0,-826 0,-774 113,-774 113,-826"/>
<text text-anchor="start" x="4" y="-812.5" font-family="Helvetica,sans-Serif" font-size="10.00">PropertyChangeListener</text>
<text text-anchor="start" x="55" y="-796.5" font-family="Helvetica,sans-Serif" font-size="10.00"> </text>
<text text-anchor="start" x="55" y="-780.5" font-family="Helvetica,sans-Serif" font-size="10.00"> </text>
<polygon fill="#666666" stroke="#666666" points="0,-808 0,-808 113,-808 113,-808 0,-808"/>
<polygon fill="#666666" stroke="#666666" points="0,-792 0,-792 113,-792 113,-792 0,-792"/>
<polygon fill="none" stroke="#666666" points="0,-774 0,-826 113,-826 113,-774 0,-774"/>
</a>
</g>
</g>
<!-- Node3&#45;&gt;Node1 -->
<g id="edge2_Node000001_Node000003" class="edge">
<title>Node3&#45;&gt;Node1</title>
<g id="a_edge2_Node000001_Node000003"><a xlink:title=" ">
<path fill="none" stroke="#63b8ff" d="M53.82,-762.71C48.12,-656.07 47.31,-341.41 219.5,-186 278.98,-132.32 484.71,-99.23 630.46,-81.98"/>
<polygon fill="none" stroke="#63b8ff" points="50.32,-762.8 54.4,-772.58 57.31,-762.39 50.32,-762.8"/>
</a>
</g>
</g>
<!-- Node3&#45;&gt;Node16 -->
<g id="edge21_Node000016_Node000003" class="edge">
<title>Node3&#45;&gt;Node16</title>
<g id="a_edge21_Node000016_Node000003"><a xlink:title=" ">
<path fill="none" stroke="#63b8ff" d="M72.28,-764.1C84.6,-739.84 103.62,-708.04 127.5,-686 191.7,-626.75 232.17,-654.81 316.5,-632 319.73,-631.12 322.99,-630.21 326.27,-629.25"/>
<polygon fill="none" stroke="#63b8ff" points="69.19,-762.44 67.92,-772.96 75.47,-765.53 69.19,-762.44"/>
</a>
</g>
</g>
<!-- Node4 -->
<g id="Node000004" class="node">
<title>Node4</title>
<g id="a_Node000004"><a xlink:href="classsrc_1_1main_1_1java_1_1_tic_tac_toe_model.html" target="_top" xlink:title=" ">
<polygon fill="white" stroke="none" points="1027.38,-914 705.62,-914 705.62,-686 1027.38,-686 1027.38,-914"/>
<text text-anchor="start" x="800.12" y="-900.5" font-family="Helvetica,sans-Serif" font-size="10.00">src.main.java.TicTacToeModel</text>
<text text-anchor="start" x="865" y="-884.5" font-family="Helvetica,sans-Serif" font-size="10.00"> </text>
<text text-anchor="start" x="709.62" y="-868.5" font-family="Helvetica,sans-Serif" font-size="10.00">+</text>
<text text-anchor="start" x="719.62" y="-868.5" font-family="Helvetica,sans-Serif" font-size="10.00">TicTacToeModel()</text>
<text text-anchor="start" x="709.62" y="-852.5" font-family="Helvetica,sans-Serif" font-size="10.00">+</text>
<text text-anchor="start" x="719.62" y="-852.5" font-family="Helvetica,sans-Serif" font-size="10.00">TicTacToeBoard getGameBoard()</text>
<text text-anchor="start" x="709.62" y="-836.5" font-family="Helvetica,sans-Serif" font-size="10.00">+</text>
<text text-anchor="start" x="719.62" y="-836.5" font-family="Helvetica,sans-Serif" font-size="10.00">boolean isGameOver()</text>
<text text-anchor="start" x="709.62" y="-820.5" font-family="Helvetica,sans-Serif" font-size="10.00">+</text>
<text text-anchor="start" x="719.62" y="-820.5" font-family="Helvetica,sans-Serif" font-size="10.00">int getBoardWinType()</text>
<text text-anchor="start" x="709.62" y="-804.5" font-family="Helvetica,sans-Serif" font-size="10.00">+</text>
<text text-anchor="start" x="719.62" y="-804.5" font-family="Helvetica,sans-Serif" font-size="10.00">int getBoardWinIndex()</text>
<text text-anchor="start" x="709.62" y="-788.5" font-family="Helvetica,sans-Serif" font-size="10.00">+</text>
<text text-anchor="start" x="719.62" y="-788.5" font-family="Helvetica,sans-Serif" font-size="10.00">void updateBoard(int row, int col, TttPlayerOwner playerOwner)</text>
<text text-anchor="start" x="709.62" y="-772.5" font-family="Helvetica,sans-Serif" font-size="10.00">+</text>
<text text-anchor="start" x="719.62" y="-772.5" font-family="Helvetica,sans-Serif" font-size="10.00">void clearBoard()</text>
<text text-anchor="start" x="709.62" y="-756.5" font-family="Helvetica,sans-Serif" font-size="10.00">+</text>
<text text-anchor="start" x="719.62" y="-756.5" font-family="Helvetica,sans-Serif" font-size="10.00">void onBoardClick(int row, int col)</text>
<text text-anchor="start" x="709.62" y="-740.5" font-family="Helvetica,sans-Serif" font-size="10.00">+</text>
<text text-anchor="start" x="719.62" y="-740.5" font-family="Helvetica,sans-Serif" font-size="10.00">boolean isBoardFull()</text>
<text text-anchor="start" x="709.62" y="-724.5" font-family="Helvetica,sans-Serif" font-size="10.00">+</text>
<text text-anchor="start" x="719.62" y="-724.5" font-family="Helvetica,sans-Serif" font-size="10.00">void addPropertyChangeListener(PropertyChangeListener listener)</text>
<text text-anchor="start" x="709.62" y="-708.5" font-family="Helvetica,sans-Serif" font-size="10.00">+</text>
<text text-anchor="start" x="719.62" y="-708.5" font-family="Helvetica,sans-Serif" font-size="10.00">void removePropertyChangeListener(PropertyChangeListener listener)</text>
<text text-anchor="start" x="711.12" y="-692.5" font-family="Helvetica,sans-Serif" font-size="10.00">&#45;</text>
<text text-anchor="start" x="719.62" y="-692.5" font-family="Helvetica,sans-Serif" font-size="10.00">void switchPlayer()</text>
<polygon fill="#666666" stroke="#666666" points="705.62,-896 705.62,-896 1027.38,-896 1027.38,-896 705.62,-896"/>
<polygon fill="#666666" stroke="#666666" points="705.62,-880 705.62,-880 1027.38,-880 1027.38,-880 705.62,-880"/>
<polygon fill="none" stroke="#666666" points="705.62,-686 705.62,-914 1027.38,-914 1027.38,-686 705.62,-686"/>
</a>
</g>
</g>
<!-- Node4&#45;&gt;Node1 -->
<g id="edge3_Node000001_Node000004" class="edge">
<title>Node4&#45;&gt;Node1</title>
<g id="a_edge3_Node000001_Node000004"><a xlink:title=" ">
<path fill="none" stroke="#63b8ff" d="M902.3,-686.04C938.33,-550.93 977.48,-321.52 892.5,-150 891.21,-147.4 889.8,-144.86 888.28,-142.39"/>
<polygon fill="none" stroke="#63b8ff" points="888.34,-142.47 881.63,-139.85 881.47,-132.64 888.19,-135.26 888.34,-142.47"/>
</a>
</g>
<text text-anchor="start" x="944.84" y="-461.5" font-family="Helvetica,sans-Serif" font-size="10.00" fill="grey">&#45;model</text>
</g>
<!-- Node4&#45;&gt;Node16 -->
<g id="edge22_Node000016_Node000004" class="edge">
<title>Node4&#45;&gt;Node16</title>
<g id="a_edge22_Node000016_Node000004"><a xlink:title=" ">
<path fill="none" stroke="#63b8ff" d="M705.74,-702.63C669.85,-681.11 632.42,-658.67 598.57,-638.38"/>
<polygon fill="none" stroke="#63b8ff" points="598.78,-638.51 591.58,-638.85 588.49,-632.34 595.69,-631.99 598.78,-638.51"/>
</a>
</g>
<text text-anchor="start" x="641.34" y="-655.5" font-family="Helvetica,sans-Serif" font-size="10.00" fill="grey">&#45;model</text>
</g>
<!-- Node5 -->
<g id="Node000005" class="node">
<title>Node5</title>
<g id="a_Node000005"><a xlink:title=" ">
<polygon fill="white" stroke="none" points="469.75,-1334 451.25,-1334 451.25,-1282 469.75,-1282 469.75,-1334"/>
<text text-anchor="start" x="455.25" y="-1320.5" font-family="Helvetica,sans-Serif" font-size="10.00">int</text>
<text text-anchor="start" x="459" y="-1304.5" font-family="Helvetica,sans-Serif" font-size="10.00"> </text>
<text text-anchor="start" x="459" y="-1288.5" font-family="Helvetica,sans-Serif" font-size="10.00"> </text>
<polygon fill="#666666" stroke="#666666" points="451.25,-1316 451.25,-1316 469.75,-1316 469.75,-1316 451.25,-1316"/>
<polygon fill="#666666" stroke="#666666" points="451.25,-1300 451.25,-1300 469.75,-1300 469.75,-1300 451.25,-1300"/>
<polygon fill="none" stroke="#666666" points="451.25,-1282 451.25,-1334 469.75,-1334 469.75,-1282 451.25,-1282"/>
</a>
</g>
</g>
<!-- Node5&#45;&gt;Node4 -->
<g id="edge4_Node000004_Node000005" class="edge">
<title>Node5&#45;&gt;Node4</title>
<g id="a_edge4_Node000004_Node000005"><a xlink:title=" ">
<path fill="none" stroke="#63b8ff" d="M452.76,-1282.4C435.47,-1222.29 400.42,-1065.72 469.75,-968 508.76,-913.02 549.16,-939.67 611.5,-914 638.34,-902.95 666.59,-890.88 694.12,-878.87"/>
<polygon fill="none" stroke="#63b8ff" points="694.04,-878.91 697.94,-872.84 705.04,-874.1 701.14,-880.17 694.04,-878.91"/>
</a>
</g>
<text text-anchor="start" x="472.75" y="-1054.5" font-family="Helvetica,sans-Serif" font-size="10.00" fill="grey">+BOARD_SIZE</text>
</g>
<!-- Node8 -->
<g id="Node000008" class="node">
<title>Node8</title>
<g id="a_Node000008"><a xlink:href="classsrc_1_1main_1_1java_1_1_tic_tac_toe_board.html" target="_top" xlink:title=" ">
<polygon fill="white" stroke="none" points="998.62,-1148 732.38,-1148 732.38,-968 998.62,-968 998.62,-1148"/>
<text text-anchor="start" x="799.5" y="-1134.5" font-family="Helvetica,sans-Serif" font-size="10.00">src.main.java.TicTacToeBoard</text>
<text text-anchor="start" x="864" y="-1118.5" font-family="Helvetica,sans-Serif" font-size="10.00"> </text>
<text text-anchor="start" x="736.38" y="-1102.5" font-family="Helvetica,sans-Serif" font-size="10.00">+</text>
<text text-anchor="start" x="746.38" y="-1102.5" font-family="Helvetica,sans-Serif" font-size="10.00">TicTacToeBoard()</text>
<text text-anchor="start" x="736.38" y="-1086.5" font-family="Helvetica,sans-Serif" font-size="10.00">+</text>
<text text-anchor="start" x="746.38" y="-1086.5" font-family="Helvetica,sans-Serif" font-size="10.00">int getWinner()</text>
<text text-anchor="start" x="736.38" y="-1070.5" font-family="Helvetica,sans-Serif" font-size="10.00">+</text>
<text text-anchor="start" x="746.38" y="-1070.5" font-family="Helvetica,sans-Serif" font-size="10.00">int getWinType()</text>
<text text-anchor="start" x="736.38" y="-1054.5" font-family="Helvetica,sans-Serif" font-size="10.00">+</text>
<text text-anchor="start" x="746.38" y="-1054.5" font-family="Helvetica,sans-Serif" font-size="10.00">int getWinIndex()</text>
<text text-anchor="start" x="736.38" y="-1038.5" font-family="Helvetica,sans-Serif" font-size="10.00">+</text>
<text text-anchor="start" x="746.38" y="-1038.5" font-family="Helvetica,sans-Serif" font-size="10.00">void clear()</text>
<text text-anchor="start" x="736.38" y="-1022.5" font-family="Helvetica,sans-Serif" font-size="10.00">+</text>
<text text-anchor="start" x="746.38" y="-1022.5" font-family="Helvetica,sans-Serif" font-size="10.00">void update(int row, int col, TttPlayerOwner playerOwner)</text>
<text text-anchor="start" x="736.38" y="-1006.5" font-family="Helvetica,sans-Serif" font-size="10.00">+</text>
<text text-anchor="start" x="746.38" y="-1006.5" font-family="Helvetica,sans-Serif" font-size="10.00">boolean isFull()</text>
<text text-anchor="start" x="736.38" y="-990.5" font-family="Helvetica,sans-Serif" font-size="10.00">+</text>
<text text-anchor="start" x="746.38" y="-990.5" font-family="Helvetica,sans-Serif" font-size="10.00">int checkForWinner()</text>
<text text-anchor="start" x="736.38" y="-974.5" font-family="Helvetica,sans-Serif" font-size="10.00">~</text>
<text text-anchor="start" x="746.38" y="-974.5" font-family="Helvetica,sans-Serif" font-size="10.00">TttPlayerOwner getPlayerOwner(int row, int col)</text>
<polygon fill="#666666" stroke="#666666" points="732.38,-1130 732.38,-1130 998.62,-1130 998.62,-1130 732.38,-1130"/>
<polygon fill="#666666" stroke="#666666" points="732.38,-1114 732.38,-1114 998.62,-1114 998.62,-1114 732.38,-1114"/>
<polygon fill="none" stroke="#666666" points="732.38,-968 732.38,-1148 998.62,-1148 998.62,-968 732.38,-968"/>
</a>
</g>
</g>
<!-- Node5&#45;&gt;Node8 -->
<g id="edge10_Node000008_Node000005" class="edge">
<title>Node5&#45;&gt;Node8</title>
<g id="a_edge10_Node000008_Node000005"><a xlink:title=" ">
<path fill="none" stroke="#63b8ff" d="M469.62,-1301.56C502.26,-1282.07 616.51,-1213.73 721.71,-1149.09"/>
<polygon fill="none" stroke="#63b8ff" points="721.52,-1149.2 724.54,-1142.65 731.74,-1142.92 728.73,-1149.47 721.52,-1149.2"/>
</a>
</g>
<text text-anchor="start" x="690.87" y="-1219.5" font-family="Helvetica,sans-Serif" font-size="10.00" fill="grey">&#45;winIndex</text>
<text text-anchor="start" x="690.87" y="-1203.5" font-family="Helvetica,sans-Serif" font-size="10.00" fill="grey">&#45;winType</text>
<text text-anchor="start" x="690.87" y="-1187.5" font-family="Helvetica,sans-Serif" font-size="10.00" fill="grey">&#45;winner</text>
</g>
<!-- Node12 -->
<g id="Node000012" class="node">
<title>Node12</title>
<g id="a_Node000012"><a xlink:href="classsrc_1_1main_1_1java_1_1_tic_tac_toe_view.html" target="_top" xlink:title=" ">
<polygon fill="white" stroke="none" points="522.88,-430 228.12,-430 228.12,-186 522.88,-186 522.88,-430"/>
<text text-anchor="start" x="311.38" y="-416.5" font-family="Helvetica,sans-Serif" font-size="10.00">src.main.java.TicTacToeView</text>
<text text-anchor="start" x="374" y="-400.5" font-family="Helvetica,sans-Serif" font-size="10.00"> </text>
<text text-anchor="start" x="232.12" y="-384.5" font-family="Helvetica,sans-Serif" font-size="10.00">+</text>
<text text-anchor="start" x="242.12" y="-384.5" font-family="Helvetica,sans-Serif" font-size="10.00">TicTacToeView()</text>
<text text-anchor="start" x="232.12" y="-368.5" font-family="Helvetica,sans-Serif" font-size="10.00">+</text>
<text text-anchor="start" x="242.12" y="-368.5" font-family="Helvetica,sans-Serif" font-size="10.00">void resetBoardLabels()</text>
<text text-anchor="start" x="232.12" y="-352.5" font-family="Helvetica,sans-Serif" font-size="10.00">+</text>
<text text-anchor="start" x="242.12" y="-352.5" font-family="Helvetica,sans-Serif" font-size="10.00">void setStatusText(String strText)</text>
<text text-anchor="start" x="232.12" y="-336.5" font-family="Helvetica,sans-Serif" font-size="10.00">+</text>
<text text-anchor="start" x="242.12" y="-336.5" font-family="Helvetica,sans-Serif" font-size="10.00">void addMouseListener(MouseAdapter mouseAdapter)</text>
<text text-anchor="start" x="232.12" y="-320.5" font-family="Helvetica,sans-Serif" font-size="10.00">+</text>
<text text-anchor="start" x="242.12" y="-320.5" font-family="Helvetica,sans-Serif" font-size="10.00">void setController(TicTacToeController controller)</text>
<text text-anchor="start" x="232.12" y="-304.5" font-family="Helvetica,sans-Serif" font-size="10.00">+</text>
<text text-anchor="start" x="242.12" y="-304.5" font-family="Helvetica,sans-Serif" font-size="10.00">JComponent getMainPanel()</text>
<text text-anchor="start" x="232.12" y="-288.5" font-family="Helvetica,sans-Serif" font-size="10.00">+</text>
<text text-anchor="start" x="242.12" y="-288.5" font-family="Helvetica,sans-Serif" font-size="10.00">JLabel[][] getBoardLabels()</text>
<text text-anchor="start" x="232.12" y="-272.5" font-family="Helvetica,sans-Serif" font-size="10.00">+</text>
<text text-anchor="start" x="242.12" y="-272.5" font-family="Helvetica,sans-Serif" font-size="10.00">void setBoardIcon(int row, int col, TttPlayerOwner playerOwner)</text>
<text text-anchor="start" x="232.12" y="-256.5" font-family="Helvetica,sans-Serif" font-size="10.00">+</text>
<text text-anchor="start" x="242.12" y="-256.5" font-family="Helvetica,sans-Serif" font-size="10.00">void setWinner(int aWinner, int type, int index)</text>
<text text-anchor="start" x="233.62" y="-240.5" font-family="Helvetica,sans-Serif" font-size="10.00">&#45;</text>
<text text-anchor="start" x="242.12" y="-240.5" font-family="Helvetica,sans-Serif" font-size="10.00">void initIconMap(String strPathToImg)</text>
<text text-anchor="start" x="233.62" y="-224.5" font-family="Helvetica,sans-Serif" font-size="10.00">&#45;</text>
<text text-anchor="start" x="242.12" y="-224.5" font-family="Helvetica,sans-Serif" font-size="10.00">void initComponents()</text>
<text text-anchor="start" x="233.62" y="-208.5" font-family="Helvetica,sans-Serif" font-size="10.00">&#45;</text>
<text text-anchor="start" x="242.12" y="-208.5" font-family="Helvetica,sans-Serif" font-size="10.00">static Icon createEmptyIcon(Icon icon)</text>
<text text-anchor="start" x="233.62" y="-192.5" font-family="Helvetica,sans-Serif" font-size="10.00">&#45;</text>
<text text-anchor="start" x="242.12" y="-192.5" font-family="Helvetica,sans-Serif" font-size="10.00">static Icon[] splitImg(BufferedImage img)</text>
<polygon fill="#666666" stroke="#666666" points="228.12,-412 228.12,-412 522.88,-412 522.88,-412 228.12,-412"/>
<polygon fill="#666666" stroke="#666666" points="228.12,-396 228.12,-396 522.88,-396 522.88,-396 228.12,-396"/>
<polygon fill="none" stroke="#666666" points="228.12,-186 228.12,-430 522.88,-430 522.88,-186 228.12,-186"/>
</a>
</g>
</g>
<!-- Node5&#45;&gt;Node12 -->
<g id="edge15_Node000012_Node000005" class="edge">
<title>Node5&#45;&gt;Node12</title>
<g id="a_edge15_Node000012_Node000005"><a xlink:title=" ">
<path fill="none" stroke="#63b8ff" d="M451.53,-1304.76C400.54,-1291.45 149.5,-1217.83 149.5,-1059 149.5,-1059 149.5,-1059 149.5,-565 149.5,-509.04 180.23,-459.54 219.02,-419.34"/>
<polygon fill="none" stroke="#63b8ff" points="219.11,-419.25 220.52,-412.18 227.59,-410.76 226.18,-417.83 219.11,-419.25"/>
</a>
</g>
<text text-anchor="start" x="152.5" y="-820.5" font-family="Helvetica,sans-Serif" font-size="10.00" fill="grey">&#45;LINE_WIDTH</text>
<text text-anchor="start" x="152.5" y="-804.5" font-family="Helvetica,sans-Serif" font-size="10.00" fill="grey">&#45;winIndex</text>
<text text-anchor="start" x="152.5" y="-788.5" font-family="Helvetica,sans-Serif" font-size="10.00" fill="grey">&#45;winType</text>
<text text-anchor="start" x="152.5" y="-772.5" font-family="Helvetica,sans-Serif" font-size="10.00" fill="grey">&#45;winner</text>
</g>
<!-- Node6 -->
<g id="Node000006" class="node">
<title>Node6</title>
<g id="a_Node000006"><a xlink:title=" ">
<polygon fill="white" stroke="none" points="306.25,-1084 224.75,-1084 224.75,-1032 306.25,-1032 306.25,-1084"/>
<text text-anchor="start" x="228.75" y="-1070.5" font-family="Helvetica,sans-Serif" font-size="10.00">static final String</text>
<text text-anchor="start" x="264" y="-1054.5" font-family="Helvetica,sans-Serif" font-size="10.00"> </text>
<text text-anchor="start" x="264" y="-1038.5" font-family="Helvetica,sans-Serif" font-size="10.00"> </text>
<polygon fill="#666666" stroke="#666666" points="224.75,-1066 224.75,-1066 306.25,-1066 306.25,-1066 224.75,-1066"/>
<polygon fill="#666666" stroke="#666666" points="224.75,-1050 224.75,-1050 306.25,-1050 306.25,-1050 224.75,-1050"/>
<polygon fill="none" stroke="#666666" points="224.75,-1032 224.75,-1084 306.25,-1084 306.25,-1032 224.75,-1032"/>
</a>
</g>
</g>
<!-- Node6&#45;&gt;Node4 -->
<g id="edge5_Node000004_Node000006" class="edge">
<title>Node6&#45;&gt;Node4</title>
<g id="a_edge5_Node000004_Node000006"><a xlink:title=" ">
<path fill="none" stroke="#63b8ff" d="M261.08,-1032.15C257.56,-1003.43 257.04,-956.94 284.5,-932 311.43,-907.53 576.12,-922.51 611.5,-914 638.77,-907.44 666.76,-898.06 693.74,-887.48"/>
<polygon fill="none" stroke="#63b8ff" points="693.67,-887.51 697.75,-881.56 704.81,-883.04 700.73,-888.99 693.67,-887.51"/>
</a>
</g>
<text text-anchor="start" x="287.5" y="-937.5" font-family="Helvetica,sans-Serif" font-size="10.00" fill="grey">+BOARD_UPDATE_PROP_NAME</text>
</g>
<!-- Node6&#45;&gt;Node12 -->
<g id="edge14_Node000012_Node000006" class="edge">
<title>Node6&#45;&gt;Node12</title>
<g id="a_edge14_Node000012_Node000006"><a xlink:title=" ">
<path fill="none" stroke="#63b8ff" d="M264.58,-1032.4C261.95,-972.49 252.68,-814.49 224.5,-686 219.08,-661.29 210.55,-656.97 206.5,-632 197.1,-574.09 198.81,-558.16 206.5,-500 209.64,-476.27 207.96,-468.39 220.5,-448 222.1,-445.4 223.76,-442.82 225.48,-440.27"/>
<polygon fill="none" stroke="#63b8ff" points="225.38,-440.41 225.59,-433.2 232.32,-430.62 232.11,-437.83 225.38,-440.41"/>
</a>
</g>
<text text-anchor="start" x="221.84" y="-655.5" font-family="Helvetica,sans-Serif" font-size="10.00" fill="grey">&#45;PATH_TO_IMG</text>
</g>
<!-- Node7 -->
<g id="Node000007" class="node">
<title>Node7</title>
<g id="a_Node000007"><a xlink:title=" ">
<polygon fill="white" stroke="none" points="714.62,-1084 554.38,-1084 554.38,-1032 714.62,-1032 714.62,-1084"/>
<text text-anchor="start" x="558.38" y="-1070.5" font-family="Helvetica,sans-Serif" font-size="10.00">final SwingPropertyChangeSupport</text>
<text text-anchor="start" x="633" y="-1054.5" font-family="Helvetica,sans-Serif" font-size="10.00"> </text>
<text text-anchor="start" x="633" y="-1038.5" font-family="Helvetica,sans-Serif" font-size="10.00"> </text>
<polygon fill="#666666" stroke="#666666" points="554.38,-1066 554.38,-1066 714.62,-1066 714.62,-1066 554.38,-1066"/>
<polygon fill="#666666" stroke="#666666" points="554.38,-1050 554.38,-1050 714.62,-1050 714.62,-1050 554.38,-1050"/>
<polygon fill="none" stroke="#666666" points="554.38,-1032 554.38,-1084 714.62,-1084 714.62,-1032 554.38,-1032"/>
</a>
</g>
</g>
<!-- Node7&#45;&gt;Node4 -->
<g id="edge6_Node000004_Node000007" class="edge">
<title>Node7&#45;&gt;Node4</title>
<g id="a_edge6_Node000004_Node000007"><a xlink:title=" ">
<path fill="none" stroke="#63b8ff" d="M656.75,-1032.45C679.95,-1006.85 718.09,-964.76 755.54,-923.44"/>
<polygon fill="none" stroke="#63b8ff" points="755.6,-923.37 756.67,-916.24 763.66,-914.48 762.59,-921.61 755.6,-923.37"/>
</a>
</g>
<text text-anchor="start" x="746.54" y="-937.5" font-family="Helvetica,sans-Serif" font-size="10.00" fill="grey">&#45;propertyChanges</text>
</g>
<!-- Node8&#45;&gt;Node4 -->
<g id="edge7_Node000004_Node000008" class="edge">
<title>Node8&#45;&gt;Node4</title>
<g id="a_edge7_Node000004_Node000008"><a xlink:title=" ">
<path fill="none" stroke="#63b8ff" d="M865.85,-968.18C865.9,-954.69 865.95,-940.56 866.01,-926.47"/>
<polygon fill="none" stroke="#63b8ff" points="866.01,-926.46 862.03,-920.45 866.06,-914.46 870.03,-920.48 866.01,-926.46"/>
</a>
</g>
<text text-anchor="start" x="868.97" y="-937.5" font-family="Helvetica,sans-Serif" font-size="10.00" fill="grey">&#45;gameBoard</text>
</g>
<!-- Node9 -->
<g id="Node000009" class="node">
<title>Node9</title>
<g id="a_Node000009"><a xlink:title=" ">
<polygon fill="white" stroke="none" points="898.75,-1334 832.25,-1334 832.25,-1282 898.75,-1282 898.75,-1334"/>
<text text-anchor="start" x="836.25" y="-1320.5" font-family="Helvetica,sans-Serif" font-size="10.00">static final int</text>
<text text-anchor="start" x="864" y="-1304.5" font-family="Helvetica,sans-Serif" font-size="10.00"> </text>
<text text-anchor="start" x="864" y="-1288.5" font-family="Helvetica,sans-Serif" font-size="10.00"> </text>
<polygon fill="#666666" stroke="#666666" points="832.25,-1316 832.25,-1316 898.75,-1316 898.75,-1316 832.25,-1316"/>
<polygon fill="#666666" stroke="#666666" points="832.25,-1300 832.25,-1300 898.75,-1300 898.75,-1300 832.25,-1300"/>
<polygon fill="none" stroke="#666666" points="832.25,-1282 832.25,-1334 898.75,-1334 898.75,-1282 832.25,-1282"/>
</a>
</g>
</g>
<!-- Node9&#45;&gt;Node8 -->
<g id="edge8_Node000008_Node000009" class="edge">
<title>Node9&#45;&gt;Node8</title>
<g id="a_edge8_Node000008_Node000009"><a xlink:title=" ">
<path fill="none" stroke="#63b8ff" d="M865.5,-1282.31C865.5,-1253.93 865.5,-1205.53 865.5,-1161.02"/>
<polygon fill="none" stroke="#63b8ff" points="865.5,-1160.88 861.5,-1154.88 865.5,-1148.88 869.5,-1154.88 865.5,-1160.88"/>
</a>
</g>
<text text-anchor="start" x="868.5" y="-1235.5" font-family="Helvetica,sans-Serif" font-size="10.00" fill="grey">+BOARD_SIZE</text>
<text text-anchor="start" x="868.5" y="-1219.5" font-family="Helvetica,sans-Serif" font-size="10.00" fill="grey">+DRAW</text>
<text text-anchor="start" x="868.5" y="-1203.5" font-family="Helvetica,sans-Serif" font-size="10.00" fill="grey">+NO_WINNER</text>
<text text-anchor="start" x="868.5" y="-1187.5" font-family="Helvetica,sans-Serif" font-size="10.00" fill="grey">+O_WINNER</text>
<text text-anchor="start" x="868.5" y="-1171.5" font-family="Helvetica,sans-Serif" font-size="10.00" fill="grey">+X_WINNER</text>
</g>
<!-- Node10 -->
<g id="Node000010" class="node">
<title>Node10</title>
<g id="a_Node000010"><a xlink:href="enumsrc_1_1main_1_1java_1_1_ttt_player_owner.html" target="_top" xlink:title=" ">
<polygon fill="white" stroke="none" points="1078.38,-1350 940.62,-1350 940.62,-1266 1078.38,-1266 1078.38,-1350"/>
<text text-anchor="start" x="944.62" y="-1336.5" font-family="Helvetica,sans-Serif" font-size="10.00">src.main.java.TttPlayerOwner</text>
<text text-anchor="start" x="965.38" y="-1320.5" font-family="Helvetica,sans-Serif" font-size="10.00">+</text>
<text text-anchor="start" x="996.12" y="-1320.5" font-family="Helvetica,sans-Serif" font-size="10.00">NOONE</text>
<text text-anchor="start" x="965.38" y="-1304.5" font-family="Helvetica,sans-Serif" font-size="10.00">+</text>
<text text-anchor="start" x="996.12" y="-1304.5" font-family="Helvetica,sans-Serif" font-size="10.00">X</text>
<text text-anchor="start" x="965.38" y="-1288.5" font-family="Helvetica,sans-Serif" font-size="10.00">+</text>
<text text-anchor="start" x="996.12" y="-1288.5" font-family="Helvetica,sans-Serif" font-size="10.00">O</text>
<text text-anchor="start" x="1008" y="-1272.5" font-family="Helvetica,sans-Serif" font-size="10.00"> </text>
<polygon fill="#666666" stroke="#666666" points="940.62,-1332 940.62,-1332 1078.38,-1332 1078.38,-1332 940.62,-1332"/>
<polygon fill="#666666" stroke="#666666" points="940.62,-1284 940.62,-1284 994.12,-1284 994.12,-1284 940.62,-1284"/>
<polygon fill="#666666" stroke="#666666" points="994.12,-1284 994.12,-1284 1078.38,-1284 1078.38,-1284 994.12,-1284"/>
<polygon fill="none" stroke="#666666" points="940.62,-1266 940.62,-1350 1078.38,-1350 1078.38,-1266 940.62,-1266"/>
</a>
</g>
</g>
<!-- Node10&#45;&gt;Node4 -->
<g id="edge11_Node000004_Node000010" class="edge">
<title>Node10&#45;&gt;Node4</title>
<g id="a_edge11_Node000004_Node000010"><a xlink:title=" ">
<path fill="none" stroke="#63b8ff" d="M1018.62,-1266.01C1031.23,-1200.33 1048.12,-1068.71 1007.5,-968 1001.45,-953 993.5,-938.36 984.46,-924.38"/>
<polygon fill="none" stroke="#63b8ff" points="984.56,-924.53 977.89,-921.79 977.85,-914.57 984.52,-917.31 984.56,-924.53"/>
</a>
</g>
<text text-anchor="start" x="1036.08" y="-1054.5" font-family="Helvetica,sans-Serif" font-size="10.00" fill="grey">&#45;currentPlayer</text>
</g>
<!-- Node10&#45;&gt;Node8 -->
<g id="edge9_Node000008_Node000010" class="edge">
<title>Node10&#45;&gt;Node8</title>
<g id="a_edge9_Node000008_Node000010"><a xlink:title=" ">
<path fill="none" stroke="#63b8ff" d="M986.04,-1266.11C982.87,-1260.1 979.76,-1253.94 977,-1248 960.54,-1212.6 964.37,-1200.18 945.5,-1166 944.21,-1163.66 942.87,-1161.31 941.49,-1158.97"/>
<polygon fill="none" stroke="#63b8ff" points="941.52,-1159.01 934.98,-1155.97 935.26,-1148.77 941.8,-1151.8 941.52,-1159.01"/>
</a>
</g>
<text text-anchor="start" x="980" y="-1203.5" font-family="Helvetica,sans-Serif" font-size="10.00" fill="grey">&#45;tttBoard</text>
</g>
<!-- Node11 -->
<g id="Node000011" class="node">
<title>Node11</title>
<g id="a_Node000011"><a xlink:title=" ">
<polygon fill="white" stroke="none" points="1161.38,-1084 1119.62,-1084 1119.62,-1032 1161.38,-1032 1161.38,-1084"/>
<text text-anchor="start" x="1123.62" y="-1070.5" font-family="Helvetica,sans-Serif" font-size="10.00">boolean</text>
<text text-anchor="start" x="1139" y="-1054.5" font-family="Helvetica,sans-Serif" font-size="10.00"> </text>
<text text-anchor="start" x="1139" y="-1038.5" font-family="Helvetica,sans-Serif" font-size="10.00"> </text>
<polygon fill="#666666" stroke="#666666" points="1119.62,-1066 1119.62,-1066 1161.38,-1066 1161.38,-1066 1119.62,-1066"/>
<polygon fill="#666666" stroke="#666666" points="1119.62,-1050 1119.62,-1050 1161.38,-1050 1161.38,-1050 1119.62,-1050"/>
<polygon fill="none" stroke="#666666" points="1119.62,-1032 1119.62,-1084 1161.38,-1084 1161.38,-1032 1119.62,-1032"/>
</a>
</g>
</g>
<!-- Node11&#45;&gt;Node4 -->
<g id="edge12_Node000004_Node000011" class="edge">
<title>Node11&#45;&gt;Node4</title>
<g id="a_edge12_Node000004_Node000011"><a xlink:title=" ">
<path fill="none" stroke="#63b8ff" d="M1134.98,-1032.37C1129.78,-1013.3 1120.51,-987.03 1105.5,-968 1086.2,-943.53 1062.35,-921.16 1037.27,-901.31"/>
<polygon fill="none" stroke="#63b8ff" points="1037.43,-901.44 1030.23,-900.93 1027.94,-894.09 1035.13,-894.6 1037.43,-901.44"/>
</a>
</g>
<text text-anchor="start" x="1087.86" y="-937.5" font-family="Helvetica,sans-Serif" font-size="10.00" fill="grey">&#45;bIsGameOver</text>
</g>
<!-- Node12&#45;&gt;Node1 -->
<g id="edge13_Node000001_Node000012" class="edge">
<title>Node12&#45;&gt;Node1</title>
<g id="a_edge13_Node000001_Node000012"><a xlink:title=" ">
<path fill="none" stroke="#63b8ff" d="M522.8,-220.35C568.56,-193.43 618.47,-164.08 662.25,-138.32"/>
<polygon fill="none" stroke="#63b8ff" points="662.12,-138.4 665.26,-131.91 672.46,-132.32 669.32,-138.81 662.12,-138.4"/>
</a>
</g>
<text text-anchor="start" x="642.88" y="-155.5" font-family="Helvetica,sans-Serif" font-size="10.00" fill="grey">&#45;view</text>
</g>
<!-- Node12&#45;&gt;Node16 -->
<g id="edge23_Node000016_Node000012" class="edge">
<title>Node12&#45;&gt;Node16</title>
<g id="a_edge23_Node000016_Node000012"><a xlink:title=" ">
<path fill="none" stroke="#63b8ff" d="M461.01,-429.61C463.79,-435.7 466.31,-441.84 468.5,-448 472.9,-460.38 475.79,-473.94 477.64,-487.3"/>
<polygon fill="none" stroke="#63b8ff" points="477.62,-487.19 482.29,-492.68 479.01,-499.11 474.34,-493.61 477.62,-487.19"/>
</a>
</g>
<text text-anchor="start" x="479.36" y="-461.5" font-family="Helvetica,sans-Serif" font-size="10.00" fill="grey">&#45;view</text>
</g>
<!-- Node13 -->
<g id="Node000013" class="node">
<title>Node13</title>
<g id="a_Node000013"><a xlink:title=" ">
<polygon fill="white" stroke="none" points="253.5,-592 215.5,-592 215.5,-540 253.5,-540 253.5,-592"/>
<text text-anchor="start" x="219.5" y="-578.5" font-family="Helvetica,sans-Serif" font-size="10.00">JPanel</text>
<text text-anchor="start" x="233" y="-562.5" font-family="Helvetica,sans-Serif" font-size="10.00"> </text>
<text text-anchor="start" x="233" y="-546.5" font-family="Helvetica,sans-Serif" font-size="10.00"> </text>
<polygon fill="#666666" stroke="#666666" points="215.5,-574 215.5,-574 253.5,-574 253.5,-574 215.5,-574"/>
<polygon fill="#666666" stroke="#666666" points="215.5,-558 215.5,-558 253.5,-558 253.5,-558 215.5,-558"/>
<polygon fill="none" stroke="#666666" points="215.5,-540 215.5,-592 253.5,-592 253.5,-540 215.5,-540"/>
</a>
</g>
</g>
<!-- Node13&#45;&gt;Node12 -->
<g id="edge16_Node000012_Node000013" class="edge">
<title>Node13&#45;&gt;Node12</title>
<g id="a_edge16_Node000012_Node000013"><a xlink:title=" ">
<path fill="none" stroke="#63b8ff" d="M228.35,-540.15C223.58,-515.68 219.66,-477.75 232.25,-448 233.24,-445.67 234.29,-443.35 235.39,-441.06"/>
<polygon fill="none" stroke="#63b8ff" points="235.33,-441.17 234.6,-434 240.94,-430.57 241.67,-437.74 235.33,-441.17"/>
</a>
</g>
<text text-anchor="start" x="235.25" y="-469.5" font-family="Helvetica,sans-Serif" font-size="10.00" fill="grey">&#45;gameBoardPanel</text>
<text text-anchor="start" x="235.25" y="-453.5" font-family="Helvetica,sans-Serif" font-size="10.00" fill="grey">&#45;mainPanel</text>
</g>
<!-- Node14 -->
<g id="Node000014" class="node">
<title>Node14</title>
<g id="a_Node000014"><a xlink:title=" ">
<polygon fill="white" stroke="none" points="307.75,-592 271.25,-592 271.25,-540 307.75,-540 307.75,-592"/>
<text text-anchor="start" x="275.25" y="-578.5" font-family="Helvetica,sans-Serif" font-size="10.00">JLabel</text>
<text text-anchor="start" x="288" y="-562.5" font-family="Helvetica,sans-Serif" font-size="10.00"> </text>
<text text-anchor="start" x="288" y="-546.5" font-family="Helvetica,sans-Serif" font-size="10.00"> </text>
<polygon fill="#666666" stroke="#666666" points="271.25,-574 271.25,-574 307.75,-574 307.75,-574 271.25,-574"/>
<polygon fill="#666666" stroke="#666666" points="271.25,-558 271.25,-558 307.75,-558 307.75,-558 271.25,-558"/>
<polygon fill="none" stroke="#666666" points="271.25,-540 271.25,-592 307.75,-592 307.75,-540 271.25,-540"/>
</a>
</g>
</g>
<!-- Node14&#45;&gt;Node12 -->
<g id="edge17_Node000012_Node000014" class="edge">
<title>Node14&#45;&gt;Node12</title>
<g id="a_edge17_Node000012_Node000014"><a xlink:title=" ">
<path fill="none" stroke="#63b8ff" d="M297.75,-540.45C305.6,-517.08 318.07,-479.95 330.75,-442.22"/>
<polygon fill="none" stroke="#63b8ff" points="330.75,-442.2 328.87,-435.24 334.57,-430.82 336.46,-437.78 330.75,-442.2"/>
</a>
</g>
<text text-anchor="start" x="330.35" y="-469.5" font-family="Helvetica,sans-Serif" font-size="10.00" fill="grey">&#45;boardLabels</text>
<text text-anchor="start" x="330.35" y="-453.5" font-family="Helvetica,sans-Serif" font-size="10.00" fill="grey">&#45;statusLabel</text>
</g>
<!-- Node15 -->
<g id="Node000015" class="node">
<title>Node15</title>
<g id="a_Node000015"><a xlink:title=" ">
<polygon fill="white" stroke="none" points="850.12,-592 650.88,-592 650.88,-540 850.12,-540 850.12,-592"/>
<text text-anchor="start" x="654.88" y="-578.5" font-family="Helvetica,sans-Serif" font-size="10.00">Map&lt; src.main.java.TttPlayerOwner, Icon &gt;</text>
<text text-anchor="start" x="749" y="-562.5" font-family="Helvetica,sans-Serif" font-size="10.00"> </text>
<text text-anchor="start" x="749" y="-546.5" font-family="Helvetica,sans-Serif" font-size="10.00"> </text>
<polygon fill="#666666" stroke="#666666" points="650.88,-574 650.88,-574 850.12,-574 850.12,-574 650.88,-574"/>
<polygon fill="#666666" stroke="#666666" points="650.88,-558 650.88,-558 850.12,-558 850.12,-558 650.88,-558"/>
<polygon fill="none" stroke="#666666" points="650.88,-540 650.88,-592 850.12,-592 850.12,-540 650.88,-540"/>
</a>
</g>
</g>
<!-- Node15&#45;&gt;Node12 -->
<g id="edge18_Node000012_Node000015" class="edge">
<title>Node15&#45;&gt;Node12</title>
<g id="a_edge18_Node000012_Node000015"><a xlink:title=" ">
<path fill="none" stroke="#63b8ff" d="M714.2,-540.22C672.15,-511.52 600.06,-462.3 533.17,-416.64"/>
<polygon fill="none" stroke="#63b8ff" points="533.14,-416.62 525.93,-416.54 523.23,-409.85 530.44,-409.93 533.14,-416.62"/>
</a>
</g>
<text text-anchor="start" x="621.5" y="-461.5" font-family="Helvetica,sans-Serif" font-size="10.00" fill="grey">&#45;iconMap</text>
</g>
<!-- Node16&#45;&gt;Node12 -->
<g id="edge19_Node000012_Node000016" class="edge">
<title>Node16&#45;&gt;Node12</title>
<g id="a_edge19_Node000012_Node000016"><a xlink:title=" ">
<path fill="none" stroke="#63b8ff" d="M429.52,-500.24C425.93,-494.24 422.61,-488.11 419.75,-482 413.81,-469.29 408.59,-455.67 404.02,-441.86"/>
<polygon fill="none" stroke="#63b8ff" points="404.06,-441.99 398.43,-437.48 400.44,-430.55 406.06,-435.06 404.06,-441.99"/>
</a>
</g>
<text text-anchor="start" x="422.75" y="-461.5" font-family="Helvetica,sans-Serif" font-size="10.00" fill="grey">&#45;controller</text>
</g>
</g>
</svg>
