<?xml version="1.0" encoding="UTF-8" standalone="no"?>
<!DOCTYPE svg PUBLIC "-//W3C//DTD SVG 1.1//EN"
 "http://www.w3.org/Graphics/SVG/1.1/DTD/svg11.dtd">
<!-- Generated by graphviz version 12.2.1 (20241206.2353)
 -->
<!-- Title: AbstractAction Pages: 1 -->
<svg width="404pt" height="164pt"
 viewBox="0.00 0.00 404.00 164.00" xmlns="http://www.w3.org/2000/svg" xmlns:xlink="http://www.w3.org/1999/xlink">
<g id="graph0" class="graph" transform="scale(1 1) rotate(0) translate(4 160)">
<title>AbstractAction</title>
<!-- Node1 -->
<g id="Node000001" class="node">
<title>Node1</title>
<g id="a_Node000001"><a xlink:title=" ">
<polygon fill="#999999" stroke="none" points="235.25,-156 162.75,-156 162.75,-104 235.25,-104 235.25,-156"/>
<text text-anchor="start" x="166.75" y="-142.5" font-family="Helvetica,sans-Serif" font-size="10.00">AbstractAction</text>
<text text-anchor="start" x="197.5" y="-126.5" font-family="Helvetica,sans-Serif" font-size="10.00"> </text>
<text text-anchor="start" x="197.5" y="-110.5" font-family="Helvetica,sans-Serif" font-size="10.00"> </text>
<polygon fill="#666666" stroke="#666666" points="162.75,-138 162.75,-138 235.25,-138 235.25,-138 162.75,-138"/>
<polygon fill="#666666" stroke="#666666" points="162.75,-122 162.75,-122 235.25,-122 235.25,-122 162.75,-122"/>
<polygon fill="none" stroke="#666666" points="162.75,-104 162.75,-156 235.25,-156 235.25,-104 162.75,-104"/>
</a>
</g>
</g>
<!-- Node2 -->
<g id="Node000002" class="node">
<title>Node2</title>
<g id="a_Node000002"><a xlink:href="classsrc_1_1main_1_1java_1_1_tic_tac_toe_view_1_1_clear_action.html" target="_top" xlink:title=" ">
<polygon fill="white" stroke="none" points="192,-68 0,-68 0,0 192,0 192,-68"/>
<text text-anchor="start" x="5.25" y="-54.5" font-family="Helvetica,sans-Serif" font-size="10.00">src.main.java.TicTacToeView.ClearAction</text>
<text text-anchor="start" x="94.5" y="-38.5" font-family="Helvetica,sans-Serif" font-size="10.00"> </text>
<text text-anchor="start" x="4" y="-22.5" font-family="Helvetica,sans-Serif" font-size="10.00">+</text>
<text text-anchor="start" x="14" y="-22.5" font-family="Helvetica,sans-Serif" font-size="10.00">ClearAction(String name, int mnemonic)</text>
<text text-anchor="start" x="4" y="-6.5" font-family="Helvetica,sans-Serif" font-size="10.00">+</text>
<text text-anchor="start" x="14" y="-6.5" font-family="Helvetica,sans-Serif" font-size="10.00">void actionPerformed(ActionEvent evt)</text>
<polygon fill="#666666" stroke="#666666" points="0,-50 0,-50 192,-50 192,-50 0,-50"/>
<polygon fill="#666666" stroke="#666666" points="0,-34 0,-34 192,-34 192,-34 0,-34"/>
<polygon fill="none" stroke="#666666" points="0,0 0,-68 192,-68 192,0 0,0"/>
</a>
</g>
</g>
<!-- Node1&#45;&gt;Node2 -->
<g id="edge1_Node000001_Node000002" class="edge">
<title>Node1&#45;&gt;Node2</title>
<g id="a_edge1_Node000001_Node000002"><a xlink:title=" ">
<path fill="none" stroke="#63b8ff" d="M163.4,-96.51C153.24,-87.24 142.18,-77.14 132,-67.86"/>
<polygon fill="none" stroke="#63b8ff" points="160.8,-98.88 170.55,-103.04 165.52,-93.71 160.8,-98.88"/>
</a>
</g>
</g>
<!-- Node3 -->
<g id="Node000003" class="node">
<title>Node3</title>
<g id="a_Node000003"><a xlink:href="classsrc_1_1main_1_1java_1_1_tic_tac_toe_view_1_1_exit_action.html" target="_top" xlink:title=" ">
<polygon fill="white" stroke="none" points="396,-68 210,-68 210,0 396,0 396,-68"/>
<text text-anchor="start" x="215.25" y="-54.5" font-family="Helvetica,sans-Serif" font-size="10.00">src.main.java.TicTacToeView.ExitAction</text>
<text text-anchor="start" x="301.5" y="-38.5" font-family="Helvetica,sans-Serif" font-size="10.00"> </text>
<text text-anchor="start" x="214" y="-22.5" font-family="Helvetica,sans-Serif" font-size="10.00">+</text>
<text text-anchor="start" x="224" y="-22.5" font-family="Helvetica,sans-Serif" font-size="10.00">ExitAction(String name, int mnemonic)</text>
<text text-anchor="start" x="214" y="-6.5" font-family="Helvetica,sans-Serif" font-size="10.00">+</text>
<text text-anchor="start" x="224" y="-6.5" font-family="Helvetica,sans-Serif" font-size="10.00">void actionPerformed(ActionEvent evt)</text>
<polygon fill="#666666" stroke="#666666" points="210,-50 210,-50 396,-50 396,-50 210,-50"/>
<polygon fill="#666666" stroke="#666666" points="210,-34 210,-34 396,-34 396,-34 210,-34"/>
<polygon fill="none" stroke="#666666" points="210,0 210,-68 396,-68 396,0 210,0"/>
</a>
</g>
</g>
<!-- Node1&#45;&gt;Node3 -->
<g id="edge2_Node000001_Node000003" class="edge">
<title>Node1&#45;&gt;Node3</title>
<g id="a_edge2_Node000001_Node000003"><a xlink:title=" ">
<path fill="none" stroke="#63b8ff" d="M234.95,-96.51C245.2,-87.24 256.37,-77.14 266.65,-67.86"/>
<polygon fill="none" stroke="#63b8ff" points="232.79,-93.74 227.72,-103.04 237.49,-98.93 232.79,-93.74"/>
</a>
</g>
</g>
</g>
</svg>
