<?xml version="1.0" encoding="UTF-8" standalone="no"?>
<!DOCTYPE svg PUBLIC "-//W3C//DTD SVG 1.1//EN"
 "http://www.w3.org/Graphics/SVG/1.1/DTD/svg11.dtd">
<!-- Generated by graphviz version 12.2.1 (20241206.2353)
 -->
<!-- Title: src.main.java.TicTacToeController.propertyChange Pages: 1 -->
<svg width="486pt" height="104pt"
 viewBox="0.00 0.00 486.25 104.00" xmlns="http://www.w3.org/2000/svg" xmlns:xlink="http://www.w3.org/1999/xlink">
<g id="graph0" class="graph" transform="scale(1 1) rotate(0) translate(4 100)">
<title>src.main.java.TicTacToeController.propertyChange</title>
<!-- Node1 -->
<g id="Node000001" class="node">
<title>Node1</title>
<g id="a_Node000001"><a xlink:title=" ">
<polygon fill="#999999" stroke="#666666" points="236.5,-58 0,-58 0,-38 236.5,-38 236.5,-58"/>
<text text-anchor="middle" x="118.25" y="-44.5" font-family="Helvetica,sans-Serif" font-size="10.00">src.main.java.TicTacToeController.propertyChange</text>
</a>
</g>
</g>
<!-- Node2 -->
<g id="Node000002" class="node">
<title>Node2</title>
<g id="a_Node000002"><a xlink:href="classsrc_1_1main_1_1java_1_1_tic_tac_toe_board.html#a1bc0305fabc3c2d76471286f292f09c9" target="_top" xlink:title=" ">
<polygon fill="white" stroke="#666666" points="478.25,-96 272.5,-96 272.5,-76 478.25,-76 478.25,-96"/>
<text text-anchor="middle" x="375.38" y="-82.5" font-family="Helvetica,sans-Serif" font-size="10.00">src.main.java.TicTacToeBoard.getWinIndex</text>
</a>
</g>
</g>
<!-- Node1&#45;&gt;Node2 -->
<g id="edge1_Node000001_Node000002" class="edge">
<title>Node1&#45;&gt;Node2</title>
<g id="a_edge1_Node000001_Node000002"><a xlink:title=" ">
<path fill="none" stroke="#63b8ff" d="M189.64,-58.48C221.71,-63.26 259.85,-68.94 293.13,-73.9"/>
<polygon fill="#63b8ff" stroke="#63b8ff" points="292.31,-77.32 302.72,-75.33 293.34,-70.39 292.31,-77.32"/>
</a>
</g>
</g>
<!-- Node3 -->
<g id="Node000003" class="node">
<title>Node3</title>
<g id="a_Node000003"><a xlink:href="classsrc_1_1main_1_1java_1_1_tic_tac_toe_board.html#a253d0882d5ad267c05d39201ccf73f3d" target="_top" xlink:title=" ">
<polygon fill="white" stroke="#666666" points="473,-58 277.75,-58 277.75,-38 473,-38 473,-58"/>
<text text-anchor="middle" x="375.38" y="-44.5" font-family="Helvetica,sans-Serif" font-size="10.00">src.main.java.TicTacToeBoard.getWinner</text>
</a>
</g>
</g>
<!-- Node1&#45;&gt;Node3 -->
<g id="edge2_Node000001_Node000003" class="edge">
<title>Node1&#45;&gt;Node3</title>
<g id="a_edge2_Node000001_Node000003"><a xlink:title=" ">
<path fill="none" stroke="#63b8ff" d="M236.73,-48C246.51,-48 256.36,-48 266.07,-48"/>
<polygon fill="#63b8ff" stroke="#63b8ff" points="265.86,-51.5 275.86,-48 265.86,-44.5 265.86,-51.5"/>
</a>
</g>
</g>
<!-- Node4 -->
<g id="Node000004" class="node">
<title>Node4</title>
<g id="a_Node000004"><a xlink:href="classsrc_1_1main_1_1java_1_1_tic_tac_toe_board.html#ac12129537a23e3392f96073fe575f555" target="_top" xlink:title=" ">
<polygon fill="white" stroke="#666666" points="476.75,-20 274,-20 274,0 476.75,0 476.75,-20"/>
<text text-anchor="middle" x="375.38" y="-6.5" font-family="Helvetica,sans-Serif" font-size="10.00">src.main.java.TicTacToeBoard.getWinType</text>
</a>
</g>
</g>
<!-- Node1&#45;&gt;Node4 -->
<g id="edge3_Node000001_Node000004" class="edge">
<title>Node1&#45;&gt;Node4</title>
<g id="a_edge3_Node000001_Node000004"><a xlink:title=" ">
<path fill="none" stroke="#63b8ff" d="M189.64,-37.52C221.71,-32.74 259.85,-27.06 293.13,-22.1"/>
<polygon fill="#63b8ff" stroke="#63b8ff" points="293.34,-25.61 302.72,-20.67 292.31,-18.68 293.34,-25.61"/>
</a>
</g>
</g>
</g>
</svg>
