<?xml version="1.0" encoding="UTF-8" standalone="no"?>
<!DOCTYPE svg PUBLIC "-//W3C//DTD SVG 1.1//EN"
 "http://www.w3.org/Graphics/SVG/1.1/DTD/svg11.dtd">
<!-- Generated by graphviz version 12.2.1 (20241206.2353)
 -->
<!-- Title: src.main.java.TicTacToeView Pages: 1 -->
<svg width="920pt" height="1396pt"
 viewBox="0.00 0.00 919.50 1396.00" xmlns="http://www.w3.org/2000/svg" xmlns:xlink="http://www.w3.org/1999/xlink">
<g id="graph0" class="graph" transform="scale(1 1) rotate(0) translate(4 1392)">
<title>src.main.java.TicTacToeView</title>
<!-- Node1 -->
<g id="Node000001" class="node">
<title>Node1</title>
<g id="a_Node000001"><a xlink:title=" ">
<polygon fill="#999999" stroke="none" points="294.75,-388 0,-388 0,0 294.75,0 294.75,-388"/>
<text text-anchor="start" x="83.25" y="-374.5" font-family="Helvetica,sans-Serif" font-size="10.00">src.main.java.TicTacToeView</text>
<text text-anchor="start" x="5.5" y="-358.5" font-family="Helvetica,sans-Serif" font-size="10.00">&#45;</text>
<text text-anchor="start" x="14" y="-358.5" font-family="Helvetica,sans-Serif" font-size="10.00">JPanel mainPanel</text>
<text text-anchor="start" x="5.5" y="-342.5" font-family="Helvetica,sans-Serif" font-size="10.00">&#45;</text>
<text text-anchor="start" x="14" y="-342.5" font-family="Helvetica,sans-Serif" font-size="10.00">JPanel gameBoardPanel</text>
<text text-anchor="start" x="5.5" y="-326.5" font-family="Helvetica,sans-Serif" font-size="10.00">&#45;</text>
<text text-anchor="start" x="14" y="-326.5" font-family="Helvetica,sans-Serif" font-size="10.00">JLabel statusLabel</text>
<text text-anchor="start" x="5.5" y="-310.5" font-family="Helvetica,sans-Serif" font-size="10.00">&#45;</text>
<text text-anchor="start" x="14" y="-310.5" font-family="Helvetica,sans-Serif" font-size="10.00">JLabel[][] boardLabels</text>
<text text-anchor="start" x="5.5" y="-294.5" font-family="Helvetica,sans-Serif" font-size="10.00">&#45;</text>
<text text-anchor="start" x="14" y="-294.5" font-family="Helvetica,sans-Serif" font-size="10.00">Map&lt; TttPlayerOwner, Icon &gt; iconMap</text>
<text text-anchor="start" x="5.5" y="-278.5" font-family="Helvetica,sans-Serif" font-size="10.00">&#45;</text>
<text text-anchor="start" x="14" y="-278.5" font-family="Helvetica,sans-Serif" font-size="10.00">int winner</text>
<text text-anchor="start" x="5.5" y="-262.5" font-family="Helvetica,sans-Serif" font-size="10.00">&#45;</text>
<text text-anchor="start" x="14" y="-262.5" font-family="Helvetica,sans-Serif" font-size="10.00">int winType</text>
<text text-anchor="start" x="5.5" y="-246.5" font-family="Helvetica,sans-Serif" font-size="10.00">&#45;</text>
<text text-anchor="start" x="14" y="-246.5" font-family="Helvetica,sans-Serif" font-size="10.00">int winIndex</text>
<text text-anchor="start" x="5.5" y="-230.5" font-family="Helvetica,sans-Serif" font-size="10.00">&#45;</text>
<text text-anchor="start" x="14" y="-230.5" font-family="Helvetica,sans-Serif" font-size="10.00">static final String PATH_TO_IMG</text>
<text text-anchor="start" x="5.5" y="-214.5" font-family="Helvetica,sans-Serif" font-size="10.00">&#45;</text>
<text text-anchor="start" x="14" y="-214.5" font-family="Helvetica,sans-Serif" font-size="10.00">static final int LINE_WIDTH</text>
<text text-anchor="start" x="4" y="-198.5" font-family="Helvetica,sans-Serif" font-size="10.00">+</text>
<text text-anchor="start" x="14" y="-198.5" font-family="Helvetica,sans-Serif" font-size="10.00">TicTacToeView()</text>
<text text-anchor="start" x="4" y="-182.5" font-family="Helvetica,sans-Serif" font-size="10.00">+</text>
<text text-anchor="start" x="14" y="-182.5" font-family="Helvetica,sans-Serif" font-size="10.00">void setController(TicTacToeController controller)</text>
<text text-anchor="start" x="4" y="-166.5" font-family="Helvetica,sans-Serif" font-size="10.00">+</text>
<text text-anchor="start" x="14" y="-166.5" font-family="Helvetica,sans-Serif" font-size="10.00">void resetBoardLabels()</text>
<text text-anchor="start" x="4" y="-150.5" font-family="Helvetica,sans-Serif" font-size="10.00">+</text>
<text text-anchor="start" x="14" y="-150.5" font-family="Helvetica,sans-Serif" font-size="10.00">void setStatusText(String strText)</text>
<text text-anchor="start" x="4" y="-134.5" font-family="Helvetica,sans-Serif" font-size="10.00">+</text>
<text text-anchor="start" x="14" y="-134.5" font-family="Helvetica,sans-Serif" font-size="10.00">void addMouseListener(MouseAdapter mouseAdapter)</text>
<text text-anchor="start" x="4" y="-118.5" font-family="Helvetica,sans-Serif" font-size="10.00">+</text>
<text text-anchor="start" x="14" y="-118.5" font-family="Helvetica,sans-Serif" font-size="10.00">JComponent getMainPanel()</text>
<text text-anchor="start" x="4" y="-102.5" font-family="Helvetica,sans-Serif" font-size="10.00">+</text>
<text text-anchor="start" x="14" y="-102.5" font-family="Helvetica,sans-Serif" font-size="10.00">JLabel[][] getBoardLabels()</text>
<text text-anchor="start" x="4" y="-86.5" font-family="Helvetica,sans-Serif" font-size="10.00">+</text>
<text text-anchor="start" x="14" y="-86.5" font-family="Helvetica,sans-Serif" font-size="10.00">void setBoardIcon(int row, int col, TttPlayerOwner playerOwner)</text>
<text text-anchor="start" x="4" y="-70.5" font-family="Helvetica,sans-Serif" font-size="10.00">+</text>
<text text-anchor="start" x="14" y="-70.5" font-family="Helvetica,sans-Serif" font-size="10.00">void setWinner(int aWinner, int type, int index)</text>
<text text-anchor="start" x="5.5" y="-54.5" font-family="Helvetica,sans-Serif" font-size="10.00">&#45;</text>
<text text-anchor="start" x="14" y="-54.5" font-family="Helvetica,sans-Serif" font-size="10.00">void initIconMap(String strPathToImg)</text>
<text text-anchor="start" x="5.5" y="-38.5" font-family="Helvetica,sans-Serif" font-size="10.00">&#45;</text>
<text text-anchor="start" x="14" y="-38.5" font-family="Helvetica,sans-Serif" font-size="10.00">void initComponents()</text>
<text text-anchor="start" x="5.5" y="-22.5" font-family="Helvetica,sans-Serif" font-size="10.00">&#45;</text>
<text text-anchor="start" x="14" y="-22.5" font-family="Helvetica,sans-Serif" font-size="10.00">static Icon createEmptyIcon(Icon icon)</text>
<text text-anchor="start" x="5.5" y="-6.5" font-family="Helvetica,sans-Serif" font-size="10.00">&#45;</text>
<text text-anchor="start" x="14" y="-6.5" font-family="Helvetica,sans-Serif" font-size="10.00">static Icon[] splitImg(BufferedImage img)</text>
<polygon fill="#666666" stroke="#666666" points="0,-370 0,-370 294.75,-370 294.75,-370 0,-370"/>
<polygon fill="#666666" stroke="#666666" points="0,-210 0,-210 12,-210 12,-210 0,-210"/>
<polygon fill="#666666" stroke="#666666" points="12,-210 12,-210 294.75,-210 294.75,-210 12,-210"/>
<polygon fill="none" stroke="#666666" points="0,0 0,-388 294.75,-388 294.75,0 0,0"/>
</a>
</g>
</g>
<!-- Node2 -->
<g id="Node000002" class="node">
<title>Node2</title>
<g id="a_Node000002"><a xlink:href="classsrc_1_1main_1_1java_1_1_tic_tac_toe_controller.html" target="_top" xlink:title=" ">
<polygon fill="white" stroke="none" points="541.75,-574 235,-574 235,-442 541.75,-442 541.75,-574"/>
<text text-anchor="start" x="314.12" y="-560.5" font-family="Helvetica,sans-Serif" font-size="10.00">src.main.java.TicTacToeController</text>
<text text-anchor="start" x="386.88" y="-544.5" font-family="Helvetica,sans-Serif" font-size="10.00"> </text>
<text text-anchor="start" x="239" y="-528.5" font-family="Helvetica,sans-Serif" font-size="10.00">+</text>
<text text-anchor="start" x="249" y="-528.5" font-family="Helvetica,sans-Serif" font-size="10.00">TicTacToeController(TicTacToeModel model, TicTacToeView view)</text>
<text text-anchor="start" x="239" y="-512.5" font-family="Helvetica,sans-Serif" font-size="10.00">+</text>
<text text-anchor="start" x="249" y="-512.5" font-family="Helvetica,sans-Serif" font-size="10.00">void exit(ActionEvent evt)</text>
<text text-anchor="start" x="239" y="-496.5" font-family="Helvetica,sans-Serif" font-size="10.00">+</text>
<text text-anchor="start" x="249" y="-496.5" font-family="Helvetica,sans-Serif" font-size="10.00">void onBoardClick(int row, int col)</text>
<text text-anchor="start" x="239" y="-480.5" font-family="Helvetica,sans-Serif" font-size="10.00">+</text>
<text text-anchor="start" x="249" y="-480.5" font-family="Helvetica,sans-Serif" font-size="10.00">void clear()</text>
<text text-anchor="start" x="239" y="-464.5" font-family="Helvetica,sans-Serif" font-size="10.00">+</text>
<text text-anchor="start" x="249" y="-464.5" font-family="Helvetica,sans-Serif" font-size="10.00">void mousePressed(MouseEvent evt)</text>
<text text-anchor="start" x="239" y="-448.5" font-family="Helvetica,sans-Serif" font-size="10.00">+</text>
<text text-anchor="start" x="249" y="-448.5" font-family="Helvetica,sans-Serif" font-size="10.00">void propertyChange(PropertyChangeEvent evt)</text>
<polygon fill="#666666" stroke="#666666" points="235,-556 235,-556 541.75,-556 541.75,-556 235,-556"/>
<polygon fill="#666666" stroke="#666666" points="235,-540 235,-540 541.75,-540 541.75,-540 235,-540"/>
<polygon fill="none" stroke="#666666" points="235,-442 235,-574 541.75,-574 541.75,-442 235,-442"/>
</a>
</g>
</g>
<!-- Node2&#45;&gt;Node1 -->
<g id="edge1_Node000001_Node000002" class="edge">
<title>Node2&#45;&gt;Node1</title>
<g id="a_edge1_Node000001_Node000002"><a xlink:title=" ">
<path fill="none" stroke="#63b8ff" d="M338.44,-442.35C327.38,-428.03 315.09,-412.12 302.23,-395.47"/>
<polygon fill="none" stroke="#63b8ff" points="302.48,-395.8 295.65,-393.5 295.15,-386.3 301.98,-388.61 302.48,-395.8"/>
</a>
</g>
<text text-anchor="start" x="326.74" y="-411.5" font-family="Helvetica,sans-Serif" font-size="10.00" fill="grey">&#45;controller</text>
</g>
<!-- Node8 -->
<g id="Node000008" class="node">
<title>Node8</title>
<g id="a_Node000008"><a xlink:href="classsrc_1_1main_1_1java_1_1_tic_tac_toe_view.html" target="_top" xlink:title=" ">
<polygon fill="white" stroke="none" points="607.75,-388 313,-388 313,0 607.75,0 607.75,-388"/>
<text text-anchor="start" x="396.25" y="-374.5" font-family="Helvetica,sans-Serif" font-size="10.00">src.main.java.TicTacToeView</text>
<text text-anchor="start" x="318.5" y="-358.5" font-family="Helvetica,sans-Serif" font-size="10.00">&#45;</text>
<text text-anchor="start" x="327" y="-358.5" font-family="Helvetica,sans-Serif" font-size="10.00">JPanel mainPanel</text>
<text text-anchor="start" x="318.5" y="-342.5" font-family="Helvetica,sans-Serif" font-size="10.00">&#45;</text>
<text text-anchor="start" x="327" y="-342.5" font-family="Helvetica,sans-Serif" font-size="10.00">JPanel gameBoardPanel</text>
<text text-anchor="start" x="318.5" y="-326.5" font-family="Helvetica,sans-Serif" font-size="10.00">&#45;</text>
<text text-anchor="start" x="327" y="-326.5" font-family="Helvetica,sans-Serif" font-size="10.00">JLabel statusLabel</text>
<text text-anchor="start" x="318.5" y="-310.5" font-family="Helvetica,sans-Serif" font-size="10.00">&#45;</text>
<text text-anchor="start" x="327" y="-310.5" font-family="Helvetica,sans-Serif" font-size="10.00">JLabel[][] boardLabels</text>
<text text-anchor="start" x="318.5" y="-294.5" font-family="Helvetica,sans-Serif" font-size="10.00">&#45;</text>
<text text-anchor="start" x="327" y="-294.5" font-family="Helvetica,sans-Serif" font-size="10.00">Map&lt; TttPlayerOwner, Icon &gt; iconMap</text>
<text text-anchor="start" x="318.5" y="-278.5" font-family="Helvetica,sans-Serif" font-size="10.00">&#45;</text>
<text text-anchor="start" x="327" y="-278.5" font-family="Helvetica,sans-Serif" font-size="10.00">int winner</text>
<text text-anchor="start" x="318.5" y="-262.5" font-family="Helvetica,sans-Serif" font-size="10.00">&#45;</text>
<text text-anchor="start" x="327" y="-262.5" font-family="Helvetica,sans-Serif" font-size="10.00">int winType</text>
<text text-anchor="start" x="318.5" y="-246.5" font-family="Helvetica,sans-Serif" font-size="10.00">&#45;</text>
<text text-anchor="start" x="327" y="-246.5" font-family="Helvetica,sans-Serif" font-size="10.00">int winIndex</text>
<text text-anchor="start" x="318.5" y="-230.5" font-family="Helvetica,sans-Serif" font-size="10.00">&#45;</text>
<text text-anchor="start" x="327" y="-230.5" font-family="Helvetica,sans-Serif" font-size="10.00">static final String PATH_TO_IMG</text>
<text text-anchor="start" x="318.5" y="-214.5" font-family="Helvetica,sans-Serif" font-size="10.00">&#45;</text>
<text text-anchor="start" x="327" y="-214.5" font-family="Helvetica,sans-Serif" font-size="10.00">static final int LINE_WIDTH</text>
<text text-anchor="start" x="317" y="-198.5" font-family="Helvetica,sans-Serif" font-size="10.00">+</text>
<text text-anchor="start" x="327" y="-198.5" font-family="Helvetica,sans-Serif" font-size="10.00">TicTacToeView()</text>
<text text-anchor="start" x="317" y="-182.5" font-family="Helvetica,sans-Serif" font-size="10.00">+</text>
<text text-anchor="start" x="327" y="-182.5" font-family="Helvetica,sans-Serif" font-size="10.00">void setController(TicTacToeController controller)</text>
<text text-anchor="start" x="317" y="-166.5" font-family="Helvetica,sans-Serif" font-size="10.00">+</text>
<text text-anchor="start" x="327" y="-166.5" font-family="Helvetica,sans-Serif" font-size="10.00">void resetBoardLabels()</text>
<text text-anchor="start" x="317" y="-150.5" font-family="Helvetica,sans-Serif" font-size="10.00">+</text>
<text text-anchor="start" x="327" y="-150.5" font-family="Helvetica,sans-Serif" font-size="10.00">void setStatusText(String strText)</text>
<text text-anchor="start" x="317" y="-134.5" font-family="Helvetica,sans-Serif" font-size="10.00">+</text>
<text text-anchor="start" x="327" y="-134.5" font-family="Helvetica,sans-Serif" font-size="10.00">void addMouseListener(MouseAdapter mouseAdapter)</text>
<text text-anchor="start" x="317" y="-118.5" font-family="Helvetica,sans-Serif" font-size="10.00">+</text>
<text text-anchor="start" x="327" y="-118.5" font-family="Helvetica,sans-Serif" font-size="10.00">JComponent getMainPanel()</text>
<text text-anchor="start" x="317" y="-102.5" font-family="Helvetica,sans-Serif" font-size="10.00">+</text>
<text text-anchor="start" x="327" y="-102.5" font-family="Helvetica,sans-Serif" font-size="10.00">JLabel[][] getBoardLabels()</text>
<text text-anchor="start" x="317" y="-86.5" font-family="Helvetica,sans-Serif" font-size="10.00">+</text>
<text text-anchor="start" x="327" y="-86.5" font-family="Helvetica,sans-Serif" font-size="10.00">void setBoardIcon(int row, int col, TttPlayerOwner playerOwner)</text>
<text text-anchor="start" x="317" y="-70.5" font-family="Helvetica,sans-Serif" font-size="10.00">+</text>
<text text-anchor="start" x="327" y="-70.5" font-family="Helvetica,sans-Serif" font-size="10.00">void setWinner(int aWinner, int type, int index)</text>
<text text-anchor="start" x="318.5" y="-54.5" font-family="Helvetica,sans-Serif" font-size="10.00">&#45;</text>
<text text-anchor="start" x="327" y="-54.5" font-family="Helvetica,sans-Serif" font-size="10.00">void initIconMap(String strPathToImg)</text>
<text text-anchor="start" x="318.5" y="-38.5" font-family="Helvetica,sans-Serif" font-size="10.00">&#45;</text>
<text text-anchor="start" x="327" y="-38.5" font-family="Helvetica,sans-Serif" font-size="10.00">void initComponents()</text>
<text text-anchor="start" x="318.5" y="-22.5" font-family="Helvetica,sans-Serif" font-size="10.00">&#45;</text>
<text text-anchor="start" x="327" y="-22.5" font-family="Helvetica,sans-Serif" font-size="10.00">static Icon createEmptyIcon(Icon icon)</text>
<text text-anchor="start" x="318.5" y="-6.5" font-family="Helvetica,sans-Serif" font-size="10.00">&#45;</text>
<text text-anchor="start" x="327" y="-6.5" font-family="Helvetica,sans-Serif" font-size="10.00">static Icon[] splitImg(BufferedImage img)</text>
<polygon fill="#666666" stroke="#666666" points="313,-370 313,-370 607.75,-370 607.75,-370 313,-370"/>
<polygon fill="#666666" stroke="#666666" points="313,-210 313,-210 325,-210 325,-210 313,-210"/>
<polygon fill="#666666" stroke="#666666" points="325,-210 325,-210 607.75,-210 607.75,-210 325,-210"/>
<polygon fill="none" stroke="#666666" points="313,0 313,-388 607.75,-388 607.75,0 313,0"/>
</a>
</g>
</g>
<!-- Node2&#45;&gt;Node8 -->
<g id="edge9_Node000008_Node000002" class="edge">
<title>Node2&#45;&gt;Node8</title>
<g id="a_edge9_Node000008_Node000002"><a xlink:title=" ">
<path fill="none" stroke="#63b8ff" d="M386.02,-442.21C385.86,-436.06 385.72,-429.91 385.62,-424 385.49,-416 384.27,-413.88 385.62,-406 385.95,-404.11 386.29,-402.22 386.64,-400.33"/>
<polygon fill="none" stroke="#63b8ff" points="386.63,-400.41 383.89,-393.74 389,-388.65 391.73,-395.32 386.63,-400.41"/>
</a>
</g>
<text text-anchor="start" x="388.62" y="-411.5" font-family="Helvetica,sans-Serif" font-size="10.00" fill="grey">&#45;controller</text>
</g>
<!-- Node3 -->
<g id="Node000003" class="node">
<title>Node3</title>
<g id="a_Node000003"><a xlink:title=" ">
<polygon fill="white" stroke="none" points="313.88,-792 242.88,-792 242.88,-740 313.88,-740 313.88,-792"/>
<text text-anchor="start" x="246.88" y="-778.5" font-family="Helvetica,sans-Serif" font-size="10.00">MouseAdapter</text>
<text text-anchor="start" x="276.88" y="-762.5" font-family="Helvetica,sans-Serif" font-size="10.00"> </text>
<text text-anchor="start" x="276.88" y="-746.5" font-family="Helvetica,sans-Serif" font-size="10.00"> </text>
<polygon fill="#666666" stroke="#666666" points="242.88,-774 242.88,-774 313.88,-774 313.88,-774 242.88,-774"/>
<polygon fill="#666666" stroke="#666666" points="242.88,-758 242.88,-758 313.88,-758 313.88,-758 242.88,-758"/>
<polygon fill="none" stroke="#666666" points="242.88,-740 242.88,-792 313.88,-792 313.88,-740 242.88,-740"/>
</a>
</g>
</g>
<!-- Node3&#45;&gt;Node2 -->
<g id="edge2_Node000002_Node000003" class="edge">
<title>Node3&#45;&gt;Node2</title>
<g id="a_edge2_Node000002_Node000003"><a xlink:title=" ">
<path fill="none" stroke="#63b8ff" d="M288.13,-729.37C296.27,-701.33 308.86,-661.52 323.38,-628 331.19,-609.96 340.82,-591.03 350.25,-573.71"/>
<polygon fill="none" stroke="#63b8ff" points="284.82,-728.22 285.44,-738.79 291.55,-730.14 284.82,-728.22"/>
</a>
</g>
</g>
<!-- Node4 -->
<g id="Node000004" class="node">
<title>Node4</title>
<g id="a_Node000004"><a xlink:title=" ">
<polygon fill="white" stroke="none" points="444.88,-792 331.88,-792 331.88,-740 444.88,-740 444.88,-792"/>
<text text-anchor="start" x="335.88" y="-778.5" font-family="Helvetica,sans-Serif" font-size="10.00">PropertyChangeListener</text>
<text text-anchor="start" x="386.88" y="-762.5" font-family="Helvetica,sans-Serif" font-size="10.00"> </text>
<text text-anchor="start" x="386.88" y="-746.5" font-family="Helvetica,sans-Serif" font-size="10.00"> </text>
<polygon fill="#666666" stroke="#666666" points="331.88,-774 331.88,-774 444.88,-774 444.88,-774 331.88,-774"/>
<polygon fill="#666666" stroke="#666666" points="331.88,-758 331.88,-758 444.88,-758 444.88,-758 331.88,-758"/>
<polygon fill="none" stroke="#666666" points="331.88,-740 331.88,-792 444.88,-792 444.88,-740 331.88,-740"/>
</a>
</g>
</g>
<!-- Node4&#45;&gt;Node2 -->
<g id="edge3_Node000002_Node000004" class="edge">
<title>Node4&#45;&gt;Node2</title>
<g id="a_edge3_Node000002_Node000004"><a xlink:title=" ">
<path fill="none" stroke="#63b8ff" d="M388.38,-729.12C388.38,-689 388.38,-623.22 388.38,-573.99"/>
<polygon fill="none" stroke="#63b8ff" points="384.88,-728.94 388.38,-738.94 391.88,-728.94 384.88,-728.94"/>
</a>
</g>
</g>
<!-- Node5 -->
<g id="Node000005" class="node">
<title>Node5</title>
<g id="a_Node000005"><a xlink:href="classsrc_1_1main_1_1java_1_1_tic_tac_toe_model.html" target="_top" xlink:title=" ">
<polygon fill="white" stroke="none" points="784.25,-904 462.5,-904 462.5,-628 784.25,-628 784.25,-904"/>
<text text-anchor="start" x="557" y="-890.5" font-family="Helvetica,sans-Serif" font-size="10.00">src.main.java.TicTacToeModel</text>
<text text-anchor="start" x="466.5" y="-874.5" font-family="Helvetica,sans-Serif" font-size="10.00">+</text>
<text text-anchor="start" x="476.5" y="-874.5" font-family="Helvetica,sans-Serif" font-size="10.00">static final int BOARD_SIZE</text>
<text text-anchor="start" x="466.5" y="-858.5" font-family="Helvetica,sans-Serif" font-size="10.00">+</text>
<text text-anchor="start" x="476.5" y="-858.5" font-family="Helvetica,sans-Serif" font-size="10.00">static final String BOARD_UPDATE_PROP_NAME</text>
<text text-anchor="start" x="468" y="-842.5" font-family="Helvetica,sans-Serif" font-size="10.00">&#45;</text>
<text text-anchor="start" x="476.5" y="-842.5" font-family="Helvetica,sans-Serif" font-size="10.00">final SwingPropertyChangeSupport propertyChanges</text>
<text text-anchor="start" x="468" y="-826.5" font-family="Helvetica,sans-Serif" font-size="10.00">&#45;</text>
<text text-anchor="start" x="476.5" y="-826.5" font-family="Helvetica,sans-Serif" font-size="10.00">boolean bIsGameOver</text>
<text text-anchor="start" x="466.5" y="-810.5" font-family="Helvetica,sans-Serif" font-size="10.00">+</text>
<text text-anchor="start" x="476.5" y="-810.5" font-family="Helvetica,sans-Serif" font-size="10.00">TicTacToeModel()</text>
<text text-anchor="start" x="466.5" y="-794.5" font-family="Helvetica,sans-Serif" font-size="10.00">+</text>
<text text-anchor="start" x="476.5" y="-794.5" font-family="Helvetica,sans-Serif" font-size="10.00">TicTacToeBoard getGameBoard()</text>
<text text-anchor="start" x="466.5" y="-778.5" font-family="Helvetica,sans-Serif" font-size="10.00">+</text>
<text text-anchor="start" x="476.5" y="-778.5" font-family="Helvetica,sans-Serif" font-size="10.00">boolean isGameOver()</text>
<text text-anchor="start" x="466.5" y="-762.5" font-family="Helvetica,sans-Serif" font-size="10.00">+</text>
<text text-anchor="start" x="476.5" y="-762.5" font-family="Helvetica,sans-Serif" font-size="10.00">int getBoardWinType()</text>
<text text-anchor="start" x="466.5" y="-746.5" font-family="Helvetica,sans-Serif" font-size="10.00">+</text>
<text text-anchor="start" x="476.5" y="-746.5" font-family="Helvetica,sans-Serif" font-size="10.00">int getBoardWinIndex()</text>
<text text-anchor="start" x="466.5" y="-730.5" font-family="Helvetica,sans-Serif" font-size="10.00">+</text>
<text text-anchor="start" x="476.5" y="-730.5" font-family="Helvetica,sans-Serif" font-size="10.00">void updateBoard(int row, int col, TttPlayerOwner playerOwner)</text>
<text text-anchor="start" x="466.5" y="-714.5" font-family="Helvetica,sans-Serif" font-size="10.00">+</text>
<text text-anchor="start" x="476.5" y="-714.5" font-family="Helvetica,sans-Serif" font-size="10.00">void clearBoard()</text>
<text text-anchor="start" x="466.5" y="-698.5" font-family="Helvetica,sans-Serif" font-size="10.00">+</text>
<text text-anchor="start" x="476.5" y="-698.5" font-family="Helvetica,sans-Serif" font-size="10.00">void onBoardClick(int row, int col)</text>
<text text-anchor="start" x="466.5" y="-682.5" font-family="Helvetica,sans-Serif" font-size="10.00">+</text>
<text text-anchor="start" x="476.5" y="-682.5" font-family="Helvetica,sans-Serif" font-size="10.00">boolean isBoardFull()</text>
<text text-anchor="start" x="466.5" y="-666.5" font-family="Helvetica,sans-Serif" font-size="10.00">+</text>
<text text-anchor="start" x="476.5" y="-666.5" font-family="Helvetica,sans-Serif" font-size="10.00">void addPropertyChangeListener(PropertyChangeListener listener)</text>
<text text-anchor="start" x="466.5" y="-650.5" font-family="Helvetica,sans-Serif" font-size="10.00">+</text>
<text text-anchor="start" x="476.5" y="-650.5" font-family="Helvetica,sans-Serif" font-size="10.00">void removePropertyChangeListener(PropertyChangeListener listener)</text>
<text text-anchor="start" x="468" y="-634.5" font-family="Helvetica,sans-Serif" font-size="10.00">&#45;</text>
<text text-anchor="start" x="476.5" y="-634.5" font-family="Helvetica,sans-Serif" font-size="10.00">void switchPlayer()</text>
<polygon fill="#666666" stroke="#666666" points="462.5,-886 462.5,-886 784.25,-886 784.25,-886 462.5,-886"/>
<polygon fill="#666666" stroke="#666666" points="462.5,-822 462.5,-822 474.5,-822 474.5,-822 462.5,-822"/>
<polygon fill="#666666" stroke="#666666" points="474.5,-822 474.5,-822 784.25,-822 784.25,-822 474.5,-822"/>
<polygon fill="none" stroke="#666666" points="462.5,-628 462.5,-904 784.25,-904 784.25,-628 462.5,-628"/>
</a>
</g>
</g>
<!-- Node5&#45;&gt;Node2 -->
<g id="edge4_Node000002_Node000005" class="edge">
<title>Node5&#45;&gt;Node2</title>
<g id="a_edge4_Node000002_Node000005"><a xlink:title=" ">
<path fill="none" stroke="#63b8ff" d="M497.62,-628.01C483.52,-612.65 469.58,-597.46 456.62,-583.34"/>
<polygon fill="none" stroke="#63b8ff" points="456.54,-583.25 449.53,-581.54 448.42,-574.41 455.43,-576.13 456.54,-583.25"/>
</a>
</g>
<text text-anchor="start" x="480.92" y="-597.5" font-family="Helvetica,sans-Serif" font-size="10.00" fill="grey">&#45;model</text>
</g>
<!-- Node6 -->
<g id="Node000006" class="node">
<title>Node6</title>
<g id="a_Node000006"><a xlink:href="classsrc_1_1main_1_1java_1_1_tic_tac_toe_board.html" target="_top" xlink:title=" ">
<polygon fill="white" stroke="none" points="911.5,-1250 645.25,-1250 645.25,-958 911.5,-958 911.5,-1250"/>
<text text-anchor="start" x="712.38" y="-1236.5" font-family="Helvetica,sans-Serif" font-size="10.00">src.main.java.TicTacToeBoard</text>
<text text-anchor="start" x="649.25" y="-1220.5" font-family="Helvetica,sans-Serif" font-size="10.00">+</text>
<text text-anchor="start" x="659.25" y="-1220.5" font-family="Helvetica,sans-Serif" font-size="10.00">static final int NO_WINNER</text>
<text text-anchor="start" x="649.25" y="-1204.5" font-family="Helvetica,sans-Serif" font-size="10.00">+</text>
<text text-anchor="start" x="659.25" y="-1204.5" font-family="Helvetica,sans-Serif" font-size="10.00">static final int X_WINNER</text>
<text text-anchor="start" x="649.25" y="-1188.5" font-family="Helvetica,sans-Serif" font-size="10.00">+</text>
<text text-anchor="start" x="659.25" y="-1188.5" font-family="Helvetica,sans-Serif" font-size="10.00">static final int O_WINNER</text>
<text text-anchor="start" x="649.25" y="-1172.5" font-family="Helvetica,sans-Serif" font-size="10.00">+</text>
<text text-anchor="start" x="659.25" y="-1172.5" font-family="Helvetica,sans-Serif" font-size="10.00">static final int DRAW</text>
<text text-anchor="start" x="649.25" y="-1156.5" font-family="Helvetica,sans-Serif" font-size="10.00">+</text>
<text text-anchor="start" x="659.25" y="-1156.5" font-family="Helvetica,sans-Serif" font-size="10.00">static final int BOARD_SIZE</text>
<text text-anchor="start" x="650.75" y="-1140.5" font-family="Helvetica,sans-Serif" font-size="10.00">&#45;</text>
<text text-anchor="start" x="659.25" y="-1140.5" font-family="Helvetica,sans-Serif" font-size="10.00">int winner</text>
<text text-anchor="start" x="650.75" y="-1124.5" font-family="Helvetica,sans-Serif" font-size="10.00">&#45;</text>
<text text-anchor="start" x="659.25" y="-1124.5" font-family="Helvetica,sans-Serif" font-size="10.00">int winType</text>
<text text-anchor="start" x="650.75" y="-1108.5" font-family="Helvetica,sans-Serif" font-size="10.00">&#45;</text>
<text text-anchor="start" x="659.25" y="-1108.5" font-family="Helvetica,sans-Serif" font-size="10.00">int winIndex</text>
<text text-anchor="start" x="649.25" y="-1092.5" font-family="Helvetica,sans-Serif" font-size="10.00">+</text>
<text text-anchor="start" x="659.25" y="-1092.5" font-family="Helvetica,sans-Serif" font-size="10.00">TicTacToeBoard()</text>
<text text-anchor="start" x="649.25" y="-1076.5" font-family="Helvetica,sans-Serif" font-size="10.00">+</text>
<text text-anchor="start" x="659.25" y="-1076.5" font-family="Helvetica,sans-Serif" font-size="10.00">int getWinner()</text>
<text text-anchor="start" x="649.25" y="-1060.5" font-family="Helvetica,sans-Serif" font-size="10.00">+</text>
<text text-anchor="start" x="659.25" y="-1060.5" font-family="Helvetica,sans-Serif" font-size="10.00">int getWinType()</text>
<text text-anchor="start" x="649.25" y="-1044.5" font-family="Helvetica,sans-Serif" font-size="10.00">+</text>
<text text-anchor="start" x="659.25" y="-1044.5" font-family="Helvetica,sans-Serif" font-size="10.00">int getWinIndex()</text>
<text text-anchor="start" x="649.25" y="-1028.5" font-family="Helvetica,sans-Serif" font-size="10.00">+</text>
<text text-anchor="start" x="659.25" y="-1028.5" font-family="Helvetica,sans-Serif" font-size="10.00">void clear()</text>
<text text-anchor="start" x="649.25" y="-1012.5" font-family="Helvetica,sans-Serif" font-size="10.00">+</text>
<text text-anchor="start" x="659.25" y="-1012.5" font-family="Helvetica,sans-Serif" font-size="10.00">void update(int row, int col, TttPlayerOwner playerOwner)</text>
<text text-anchor="start" x="649.25" y="-996.5" font-family="Helvetica,sans-Serif" font-size="10.00">+</text>
<text text-anchor="start" x="659.25" y="-996.5" font-family="Helvetica,sans-Serif" font-size="10.00">boolean isFull()</text>
<text text-anchor="start" x="649.25" y="-980.5" font-family="Helvetica,sans-Serif" font-size="10.00">+</text>
<text text-anchor="start" x="659.25" y="-980.5" font-family="Helvetica,sans-Serif" font-size="10.00">int checkForWinner()</text>
<text text-anchor="start" x="649.25" y="-964.5" font-family="Helvetica,sans-Serif" font-size="10.00">~</text>
<text text-anchor="start" x="659.25" y="-964.5" font-family="Helvetica,sans-Serif" font-size="10.00">TttPlayerOwner getPlayerOwner(int row, int col)</text>
<polygon fill="#666666" stroke="#666666" points="645.25,-1232 645.25,-1232 911.5,-1232 911.5,-1232 645.25,-1232"/>
<polygon fill="#666666" stroke="#666666" points="645.25,-1104 645.25,-1104 657.25,-1104 657.25,-1104 645.25,-1104"/>
<polygon fill="#666666" stroke="#666666" points="657.25,-1104 657.25,-1104 911.5,-1104 911.5,-1104 657.25,-1104"/>
<polygon fill="none" stroke="#666666" points="645.25,-958 645.25,-1250 911.5,-1250 911.5,-958 645.25,-958"/>
</a>
</g>
</g>
<!-- Node6&#45;&gt;Node5 -->
<g id="edge5_Node000005_Node000006" class="edge">
<title>Node6&#45;&gt;Node5</title>
<g id="a_edge5_Node000005_Node000006"><a xlink:title=" ">
<path fill="none" stroke="#63b8ff" d="M711.52,-958.07C705.02,-943.98 698.42,-929.68 691.91,-915.56"/>
<polygon fill="none" stroke="#63b8ff" points="691.86,-915.47 685.72,-911.69 686.84,-904.57 692.98,-908.34 691.86,-915.47"/>
</a>
</g>
<text text-anchor="start" x="703.88" y="-927.5" font-family="Helvetica,sans-Serif" font-size="10.00" fill="grey">&#45;gameBoard</text>
</g>
<!-- Node7 -->
<g id="Node000007" class="node">
<title>Node7</title>
<g id="a_Node000007"><a xlink:href="enumsrc_1_1main_1_1java_1_1_ttt_player_owner.html" target="_top" xlink:title=" ">
<polygon fill="white" stroke="none" points="645.25,-1388 507.5,-1388 507.5,-1304 645.25,-1304 645.25,-1388"/>
<text text-anchor="start" x="511.5" y="-1374.5" font-family="Helvetica,sans-Serif" font-size="10.00">src.main.java.TttPlayerOwner</text>
<text text-anchor="start" x="532.25" y="-1358.5" font-family="Helvetica,sans-Serif" font-size="10.00">+</text>
<text text-anchor="start" x="563" y="-1358.5" font-family="Helvetica,sans-Serif" font-size="10.00">NOONE</text>
<text text-anchor="start" x="532.25" y="-1342.5" font-family="Helvetica,sans-Serif" font-size="10.00">+</text>
<text text-anchor="start" x="563" y="-1342.5" font-family="Helvetica,sans-Serif" font-size="10.00">X</text>
<text text-anchor="start" x="532.25" y="-1326.5" font-family="Helvetica,sans-Serif" font-size="10.00">+</text>
<text text-anchor="start" x="563" y="-1326.5" font-family="Helvetica,sans-Serif" font-size="10.00">O</text>
<text text-anchor="start" x="574.88" y="-1310.5" font-family="Helvetica,sans-Serif" font-size="10.00"> </text>
<polygon fill="#666666" stroke="#666666" points="507.5,-1370 507.5,-1370 645.25,-1370 645.25,-1370 507.5,-1370"/>
<polygon fill="#666666" stroke="#666666" points="507.5,-1322 507.5,-1322 561,-1322 561,-1322 507.5,-1322"/>
<polygon fill="#666666" stroke="#666666" points="561,-1322 561,-1322 645.25,-1322 645.25,-1322 561,-1322"/>
<polygon fill="none" stroke="#666666" points="507.5,-1304 507.5,-1388 645.25,-1388 645.25,-1304 507.5,-1304"/>
</a>
</g>
</g>
<!-- Node7&#45;&gt;Node5 -->
<g id="edge7_Node000005_Node000007" class="edge">
<title>Node7&#45;&gt;Node5</title>
<g id="a_edge7_Node000005_Node000007"><a xlink:title=" ">
<path fill="none" stroke="#63b8ff" d="M571.54,-1304.08C564.09,-1233.2 552.35,-1083.15 569.62,-958 571.52,-944.28 574.15,-930.15 577.23,-916.09"/>
<polygon fill="none" stroke="#63b8ff" points="577.17,-916.33 574.61,-909.59 579.84,-904.63 582.41,-911.37 577.17,-916.33"/>
</a>
</g>
<text text-anchor="start" x="572.62" y="-1100.5" font-family="Helvetica,sans-Serif" font-size="10.00" fill="grey">&#45;currentPlayer</text>
</g>
<!-- Node7&#45;&gt;Node6 -->
<g id="edge6_Node000006_Node000007" class="edge">
<title>Node7&#45;&gt;Node6</title>
<g id="a_edge6_Node000006_Node000007"><a xlink:title=" ">
<path fill="none" stroke="#63b8ff" d="M610.87,-1304.02C621.84,-1290.98 634.7,-1275.7 648.33,-1259.5"/>
<polygon fill="none" stroke="#63b8ff" points="648.13,-1259.74 648.94,-1252.58 655.86,-1250.56 655.06,-1257.73 648.13,-1259.74"/>
</a>
</g>
<text text-anchor="start" x="639.06" y="-1273.5" font-family="Helvetica,sans-Serif" font-size="10.00" fill="grey">&#45;tttBoard</text>
</g>
<!-- Node8&#45;&gt;Node2 -->
<g id="edge8_Node000002_Node000008" class="edge">
<title>Node8&#45;&gt;Node2</title>
<g id="a_edge8_Node000002_Node000008"><a xlink:title=" ">
<path fill="none" stroke="#63b8ff" d="M448.2,-387.8C445.47,-400.17 442.23,-412.34 438.38,-424 437.69,-426.09 436.94,-428.18 436.14,-430.26"/>
<polygon fill="none" stroke="#63b8ff" points="436.12,-430.29 437.43,-437.38 431.39,-441.32 430.08,-434.23 436.12,-430.29"/>
</a>
</g>
<text text-anchor="start" x="446.7" y="-411.5" font-family="Helvetica,sans-Serif" font-size="10.00" fill="grey">&#45;view</text>
</g>
</g>
</svg>
