<?xml version="1.0" encoding="UTF-8" standalone="no"?>
<!DOCTYPE svg PUBLIC "-//W3C//DTD SVG 1.1//EN"
 "http://www.w3.org/Graphics/SVG/1.1/DTD/svg11.dtd">
<!-- Generated by graphviz version 12.2.1 (20241206.2353)
 -->
<!-- Title: src.main.java.TicTacToeBoard Pages: 1 -->
<svg width="294pt" height="390pt"
 viewBox="0.00 0.00 294.38 390.00" xmlns="http://www.w3.org/2000/svg" xmlns:xlink="http://www.w3.org/1999/xlink">
<g id="graph0" class="graph" transform="scale(1 1) rotate(0) translate(4 386)">
<title>src.main.java.TicTacToeBoard</title>
<!-- Node1 -->
<g id="Node000001" class="node">
<title>Node1</title>
<g id="a_Node000001"><a xlink:title=" ">
<polygon fill="#999999" stroke="none" points="286.38,-180 20.12,-180 20.12,0 286.38,0 286.38,-180"/>
<text text-anchor="start" x="87.25" y="-166.5" font-family="Helvetica,sans-Serif" font-size="10.00">src.main.java.TicTacToeBoard</text>
<text text-anchor="start" x="151.75" y="-150.5" font-family="Helvetica,sans-Serif" font-size="10.00"> </text>
<text text-anchor="start" x="24.12" y="-134.5" font-family="Helvetica,sans-Serif" font-size="10.00">+</text>
<text text-anchor="start" x="34.12" y="-134.5" font-family="Helvetica,sans-Serif" font-size="10.00">TicTacToeBoard()</text>
<text text-anchor="start" x="24.12" y="-118.5" font-family="Helvetica,sans-Serif" font-size="10.00">+</text>
<text text-anchor="start" x="34.12" y="-118.5" font-family="Helvetica,sans-Serif" font-size="10.00">int getWinner()</text>
<text text-anchor="start" x="24.12" y="-102.5" font-family="Helvetica,sans-Serif" font-size="10.00">+</text>
<text text-anchor="start" x="34.12" y="-102.5" font-family="Helvetica,sans-Serif" font-size="10.00">int getWinType()</text>
<text text-anchor="start" x="24.12" y="-86.5" font-family="Helvetica,sans-Serif" font-size="10.00">+</text>
<text text-anchor="start" x="34.12" y="-86.5" font-family="Helvetica,sans-Serif" font-size="10.00">int getWinIndex()</text>
<text text-anchor="start" x="24.12" y="-70.5" font-family="Helvetica,sans-Serif" font-size="10.00">+</text>
<text text-anchor="start" x="34.12" y="-70.5" font-family="Helvetica,sans-Serif" font-size="10.00">void clear()</text>
<text text-anchor="start" x="24.12" y="-54.5" font-family="Helvetica,sans-Serif" font-size="10.00">+</text>
<text text-anchor="start" x="34.12" y="-54.5" font-family="Helvetica,sans-Serif" font-size="10.00">void update(int row, int col, TttPlayerOwner playerOwner)</text>
<text text-anchor="start" x="24.12" y="-38.5" font-family="Helvetica,sans-Serif" font-size="10.00">+</text>
<text text-anchor="start" x="34.12" y="-38.5" font-family="Helvetica,sans-Serif" font-size="10.00">boolean isFull()</text>
<text text-anchor="start" x="24.12" y="-22.5" font-family="Helvetica,sans-Serif" font-size="10.00">+</text>
<text text-anchor="start" x="34.12" y="-22.5" font-family="Helvetica,sans-Serif" font-size="10.00">int checkForWinner()</text>
<text text-anchor="start" x="24.12" y="-6.5" font-family="Helvetica,sans-Serif" font-size="10.00">~</text>
<text text-anchor="start" x="34.12" y="-6.5" font-family="Helvetica,sans-Serif" font-size="10.00">TttPlayerOwner getPlayerOwner(int row, int col)</text>
<polygon fill="#666666" stroke="#666666" points="20.12,-162 20.12,-162 286.38,-162 286.38,-162 20.12,-162"/>
<polygon fill="#666666" stroke="#666666" points="20.12,-146 20.12,-146 286.38,-146 286.38,-146 20.12,-146"/>
<polygon fill="none" stroke="#666666" points="20.12,0 20.12,-180 286.38,-180 286.38,0 20.12,0"/>
</a>
</g>
</g>
<!-- Node2 -->
<g id="Node000002" class="node">
<title>Node2</title>
<g id="a_Node000002"><a xlink:title=" ">
<polygon fill="white" stroke="none" points="66.5,-366 0,-366 0,-314 66.5,-314 66.5,-366"/>
<text text-anchor="start" x="4" y="-352.5" font-family="Helvetica,sans-Serif" font-size="10.00">static final int</text>
<text text-anchor="start" x="31.75" y="-336.5" font-family="Helvetica,sans-Serif" font-size="10.00"> </text>
<text text-anchor="start" x="31.75" y="-320.5" font-family="Helvetica,sans-Serif" font-size="10.00"> </text>
<polygon fill="#666666" stroke="#666666" points="0,-348 0,-348 66.5,-348 66.5,-348 0,-348"/>
<polygon fill="#666666" stroke="#666666" points="0,-332 0,-332 66.5,-332 66.5,-332 0,-332"/>
<polygon fill="none" stroke="#666666" points="0,-314 0,-366 66.5,-366 66.5,-314 0,-314"/>
</a>
</g>
</g>
<!-- Node2&#45;&gt;Node1 -->
<g id="edge1_Node000001_Node000002" class="edge">
<title>Node2&#45;&gt;Node1</title>
<g id="a_edge1_Node000001_Node000002"><a xlink:title=" ">
<path fill="none" stroke="#63b8ff" d="M37.53,-314.06C43.13,-285.08 54.54,-236.34 73.5,-198 74.62,-195.74 75.78,-193.48 76.99,-191.23"/>
<polygon fill="none" stroke="#63b8ff" points="77,-191.21 76.48,-184.02 82.92,-180.77 83.44,-187.96 77,-191.21"/>
</a>
</g>
<text text-anchor="start" x="76.5" y="-267.5" font-family="Helvetica,sans-Serif" font-size="10.00" fill="grey">+BOARD_SIZE</text>
<text text-anchor="start" x="76.5" y="-251.5" font-family="Helvetica,sans-Serif" font-size="10.00" fill="grey">+DRAW</text>
<text text-anchor="start" x="76.5" y="-235.5" font-family="Helvetica,sans-Serif" font-size="10.00" fill="grey">+NO_WINNER</text>
<text text-anchor="start" x="76.5" y="-219.5" font-family="Helvetica,sans-Serif" font-size="10.00" fill="grey">+O_WINNER</text>
<text text-anchor="start" x="76.5" y="-203.5" font-family="Helvetica,sans-Serif" font-size="10.00" fill="grey">+X_WINNER</text>
</g>
<!-- Node3 -->
<g id="Node000003" class="node">
<title>Node3</title>
<g id="a_Node000003"><a xlink:href="enumsrc_1_1main_1_1java_1_1_ttt_player_owner.html" target="_top" xlink:title=" ">
<polygon fill="white" stroke="none" points="222.12,-382 84.38,-382 84.38,-298 222.12,-298 222.12,-382"/>
<text text-anchor="start" x="88.38" y="-368.5" font-family="Helvetica,sans-Serif" font-size="10.00">src.main.java.TttPlayerOwner</text>
<text text-anchor="start" x="109.12" y="-352.5" font-family="Helvetica,sans-Serif" font-size="10.00">+</text>
<text text-anchor="start" x="139.88" y="-352.5" font-family="Helvetica,sans-Serif" font-size="10.00">NOONE</text>
<text text-anchor="start" x="109.12" y="-336.5" font-family="Helvetica,sans-Serif" font-size="10.00">+</text>
<text text-anchor="start" x="139.88" y="-336.5" font-family="Helvetica,sans-Serif" font-size="10.00">X</text>
<text text-anchor="start" x="109.12" y="-320.5" font-family="Helvetica,sans-Serif" font-size="10.00">+</text>
<text text-anchor="start" x="139.88" y="-320.5" font-family="Helvetica,sans-Serif" font-size="10.00">O</text>
<text text-anchor="start" x="151.75" y="-304.5" font-family="Helvetica,sans-Serif" font-size="10.00"> </text>
<polygon fill="#666666" stroke="#666666" points="84.38,-364 84.38,-364 222.12,-364 222.12,-364 84.38,-364"/>
<polygon fill="#666666" stroke="#666666" points="84.38,-316 84.38,-316 137.88,-316 137.88,-316 84.38,-316"/>
<polygon fill="#666666" stroke="#666666" points="137.88,-316 137.88,-316 222.12,-316 222.12,-316 137.88,-316"/>
<polygon fill="none" stroke="#666666" points="84.38,-298 84.38,-382 222.12,-382 222.12,-298 84.38,-298"/>
</a>
</g>
</g>
<!-- Node3&#45;&gt;Node1 -->
<g id="edge2_Node000001_Node000003" class="edge">
<title>Node3&#45;&gt;Node1</title>
<g id="a_edge2_Node000001_Node000003"><a xlink:title=" ">
<path fill="none" stroke="#63b8ff" d="M153.25,-298.05C153.25,-269.37 153.25,-229.73 153.25,-192.81"/>
<polygon fill="none" stroke="#63b8ff" points="153.25,-192.78 149.25,-186.78 153.25,-180.78 157.25,-186.78 153.25,-192.78"/>
</a>
</g>
<text text-anchor="start" x="156.25" y="-235.5" font-family="Helvetica,sans-Serif" font-size="10.00" fill="grey">&#45;tttBoard</text>
</g>
<!-- Node4 -->
<g id="Node000004" class="node">
<title>Node4</title>
<g id="a_Node000004"><a xlink:title=" ">
<polygon fill="white" stroke="none" points="258.5,-366 240,-366 240,-314 258.5,-314 258.5,-366"/>
<text text-anchor="start" x="244" y="-352.5" font-family="Helvetica,sans-Serif" font-size="10.00">int</text>
<text text-anchor="start" x="247.75" y="-336.5" font-family="Helvetica,sans-Serif" font-size="10.00"> </text>
<text text-anchor="start" x="247.75" y="-320.5" font-family="Helvetica,sans-Serif" font-size="10.00"> </text>
<polygon fill="#666666" stroke="#666666" points="240,-348 240,-348 258.5,-348 258.5,-348 240,-348"/>
<polygon fill="#666666" stroke="#666666" points="240,-332 240,-332 258.5,-332 258.5,-332 240,-332"/>
<polygon fill="none" stroke="#666666" points="240,-314 240,-366 258.5,-366 258.5,-314 240,-314"/>
</a>
</g>
</g>
<!-- Node4&#45;&gt;Node1 -->
<g id="edge3_Node000001_Node000004" class="edge">
<title>Node4&#45;&gt;Node1</title>
<g id="a_edge3_Node000001_Node000004"><a xlink:title=" ">
<path fill="none" stroke="#63b8ff" d="M241.53,-314.04C232.58,-285.66 217.02,-238.06 201.25,-198 200.44,-195.95 199.62,-193.88 198.78,-191.8"/>
<polygon fill="none" stroke="#63b8ff" points="198.74,-191.7 192.76,-187.67 194.17,-180.6 200.16,-184.63 198.74,-191.7"/>
</a>
</g>
<text text-anchor="start" x="232.81" y="-251.5" font-family="Helvetica,sans-Serif" font-size="10.00" fill="grey">&#45;winIndex</text>
<text text-anchor="start" x="232.81" y="-235.5" font-family="Helvetica,sans-Serif" font-size="10.00" fill="grey">&#45;winType</text>
<text text-anchor="start" x="232.81" y="-219.5" font-family="Helvetica,sans-Serif" font-size="10.00" fill="grey">&#45;winner</text>
</g>
</g>
</svg>
