<?xml version="1.0" encoding="UTF-8" standalone="no"?>
<!DOCTYPE svg PUBLIC "-//W3C//DTD SVG 1.1//EN"
 "http://www.w3.org/Graphics/SVG/1.1/DTD/svg11.dtd">
<!-- Generated by graphviz version 12.2.1 (20241206.2353)
 -->
<!-- Title: src.main.java.TicTacToeController Pages: 1 -->
<svg width="315pt" height="244pt"
 viewBox="0.00 0.00 314.75 244.00" xmlns="http://www.w3.org/2000/svg" xmlns:xlink="http://www.w3.org/1999/xlink">
<g id="graph0" class="graph" transform="scale(1 1) rotate(0) translate(4 240)">
<title>src.main.java.TicTacToeController</title>
<!-- Node1 -->
<g id="Node000001" class="node">
<title>Node1</title>
<g id="a_Node000001"><a xlink:title=" ">
<polygon fill="#999999" stroke="none" points="306.75,-148 0,-148 0,0 306.75,0 306.75,-148"/>
<text text-anchor="start" x="79.12" y="-134.5" font-family="Helvetica,sans-Serif" font-size="10.00">src.main.java.TicTacToeController</text>
<text text-anchor="start" x="5.5" y="-118.5" font-family="Helvetica,sans-Serif" font-size="10.00">&#45;</text>
<text text-anchor="start" x="14" y="-118.5" font-family="Helvetica,sans-Serif" font-size="10.00">TicTacToeModel model</text>
<text text-anchor="start" x="5.5" y="-102.5" font-family="Helvetica,sans-Serif" font-size="10.00">&#45;</text>
<text text-anchor="start" x="14" y="-102.5" font-family="Helvetica,sans-Serif" font-size="10.00">TicTacToeView view</text>
<text text-anchor="start" x="4" y="-86.5" font-family="Helvetica,sans-Serif" font-size="10.00">+</text>
<text text-anchor="start" x="14" y="-86.5" font-family="Helvetica,sans-Serif" font-size="10.00">TicTacToeController(TicTacToeModel model, TicTacToeView view)</text>
<text text-anchor="start" x="4" y="-70.5" font-family="Helvetica,sans-Serif" font-size="10.00">+</text>
<text text-anchor="start" x="14" y="-70.5" font-family="Helvetica,sans-Serif" font-size="10.00">void exit(ActionEvent evt)</text>
<text text-anchor="start" x="4" y="-54.5" font-family="Helvetica,sans-Serif" font-size="10.00">+</text>
<text text-anchor="start" x="14" y="-54.5" font-family="Helvetica,sans-Serif" font-size="10.00">void onBoardClick(int row, int col)</text>
<text text-anchor="start" x="4" y="-38.5" font-family="Helvetica,sans-Serif" font-size="10.00">+</text>
<text text-anchor="start" x="14" y="-38.5" font-family="Helvetica,sans-Serif" font-size="10.00">void clear()</text>
<text text-anchor="start" x="4" y="-22.5" font-family="Helvetica,sans-Serif" font-size="10.00">+</text>
<text text-anchor="start" x="14" y="-22.5" font-family="Helvetica,sans-Serif" font-size="10.00">void mousePressed(MouseEvent evt)</text>
<text text-anchor="start" x="4" y="-6.5" font-family="Helvetica,sans-Serif" font-size="10.00">+</text>
<text text-anchor="start" x="14" y="-6.5" font-family="Helvetica,sans-Serif" font-size="10.00">void propertyChange(PropertyChangeEvent evt)</text>
<polygon fill="#666666" stroke="#666666" points="0,-130 0,-130 306.75,-130 306.75,-130 0,-130"/>
<polygon fill="#666666" stroke="#666666" points="0,-98 0,-98 12,-98 12,-98 0,-98"/>
<polygon fill="#666666" stroke="#666666" points="12,-98 12,-98 306.75,-98 306.75,-98 12,-98"/>
<polygon fill="none" stroke="#666666" points="0,0 0,-148 306.75,-148 306.75,0 0,0"/>
</a>
</g>
</g>
<!-- Node2 -->
<g id="Node000002" class="node">
<title>Node2</title>
<g id="a_Node000002"><a xlink:href="class_mouse_adapter.html" target="_top" xlink:title=" ">
<polygon fill="white" stroke="none" points="133.88,-236 62.88,-236 62.88,-184 133.88,-184 133.88,-236"/>
<text text-anchor="start" x="66.88" y="-222.5" font-family="Helvetica,sans-Serif" font-size="10.00">MouseAdapter</text>
<text text-anchor="start" x="96.88" y="-206.5" font-family="Helvetica,sans-Serif" font-size="10.00"> </text>
<text text-anchor="start" x="96.88" y="-190.5" font-family="Helvetica,sans-Serif" font-size="10.00"> </text>
<polygon fill="#666666" stroke="#666666" points="62.88,-218 62.88,-218 133.88,-218 133.88,-218 62.88,-218"/>
<polygon fill="#666666" stroke="#666666" points="62.88,-202 62.88,-202 133.88,-202 133.88,-202 62.88,-202"/>
<polygon fill="none" stroke="#666666" points="62.88,-184 62.88,-236 133.88,-236 133.88,-184 62.88,-184"/>
</a>
</g>
</g>
<!-- Node2&#45;&gt;Node1 -->
<g id="edge1_Node000001_Node000002" class="edge">
<title>Node2&#45;&gt;Node1</title>
<g id="a_edge1_Node000001_Node000002"><a xlink:title=" ">
<path fill="none" stroke="#63b8ff" d="M112.86,-173.71C116.16,-165.67 119.78,-156.85 123.46,-147.88"/>
<polygon fill="none" stroke="#63b8ff" points="109.73,-172.13 109.17,-182.71 116.2,-174.79 109.73,-172.13"/>
</a>
</g>
</g>
<!-- Node3 -->
<g id="Node000003" class="node">
<title>Node3</title>
<g id="a_Node000003"><a xlink:href="class_property_change_listener.html" target="_top" xlink:title=" ">
<polygon fill="white" stroke="none" points="264.88,-236 151.88,-236 151.88,-184 264.88,-184 264.88,-236"/>
<text text-anchor="start" x="155.88" y="-222.5" font-family="Helvetica,sans-Serif" font-size="10.00">PropertyChangeListener</text>
<text text-anchor="start" x="206.88" y="-206.5" font-family="Helvetica,sans-Serif" font-size="10.00"> </text>
<text text-anchor="start" x="206.88" y="-190.5" font-family="Helvetica,sans-Serif" font-size="10.00"> </text>
<polygon fill="#666666" stroke="#666666" points="151.88,-218 151.88,-218 264.88,-218 264.88,-218 151.88,-218"/>
<polygon fill="#666666" stroke="#666666" points="151.88,-202 151.88,-202 264.88,-202 264.88,-202 151.88,-202"/>
<polygon fill="none" stroke="#666666" points="151.88,-184 151.88,-236 264.88,-236 264.88,-184 151.88,-184"/>
</a>
</g>
</g>
<!-- Node3&#45;&gt;Node1 -->
<g id="edge2_Node000001_Node000003" class="edge">
<title>Node3&#45;&gt;Node1</title>
<g id="a_edge2_Node000001_Node000003"><a xlink:title=" ">
<path fill="none" stroke="#63b8ff" d="M193.89,-173.71C190.59,-165.67 186.97,-156.85 183.29,-147.88"/>
<polygon fill="none" stroke="#63b8ff" points="190.55,-174.79 197.58,-182.71 197.02,-172.13 190.55,-174.79"/>
</a>
</g>
</g>
</g>
</svg>
