<?xml version="1.0" encoding="UTF-8" standalone="no"?>
<!DOCTYPE svg PUBLIC "-//W3C//DTD SVG 1.1//EN"
 "http://www.w3.org/Graphics/SVG/1.1/DTD/svg11.dtd">
<!-- Generated by graphviz version 12.2.1 (20241206.2353)
 -->
<!-- Title: Exception Pages: 1 -->
<svg width="189pt" height="164pt"
 viewBox="0.00 0.00 188.75 164.00" xmlns="http://www.w3.org/2000/svg" xmlns:xlink="http://www.w3.org/1999/xlink">
<g id="graph0" class="graph" transform="scale(1 1) rotate(0) translate(4 160)">
<title>Exception</title>
<!-- Node1 -->
<g id="Node000001" class="node">
<title>Node1</title>
<g id="a_Node000001"><a xlink:title=" ">
<polygon fill="#999999" stroke="none" points="116.12,-156 64.62,-156 64.62,-104 116.12,-104 116.12,-156"/>
<text text-anchor="start" x="68.62" y="-142.5" font-family="Helvetica,sans-Serif" font-size="10.00">Exception</text>
<text text-anchor="start" x="88.88" y="-126.5" font-family="Helvetica,sans-Serif" font-size="10.00"> </text>
<text text-anchor="start" x="88.88" y="-110.5" font-family="Helvetica,sans-Serif" font-size="10.00"> </text>
<polygon fill="#666666" stroke="#666666" points="64.62,-138 64.62,-138 116.12,-138 116.12,-138 64.62,-138"/>
<polygon fill="#666666" stroke="#666666" points="64.62,-122 64.62,-122 116.12,-122 116.12,-122 64.62,-122"/>
<polygon fill="none" stroke="#666666" points="64.62,-104 64.62,-156 116.12,-156 116.12,-104 64.62,-104"/>
</a>
</g>
</g>
<!-- Node2 -->
<g id="Node000002" class="node">
<title>Node2</title>
<g id="a_Node000002"><a xlink:title=" ">
<polygon fill="white" stroke="none" points="180.75,-68 0,-68 0,0 180.75,0 180.75,-68"/>
<text text-anchor="start" x="15.38" y="-54.5" font-family="Helvetica,sans-Serif" font-size="10.00">src.main.java.TicTacToeException</text>
<text text-anchor="start" x="88.88" y="-38.5" font-family="Helvetica,sans-Serif" font-size="10.00"> </text>
<text text-anchor="start" x="4" y="-22.5" font-family="Helvetica,sans-Serif" font-size="10.00">+</text>
<text text-anchor="start" x="14" y="-22.5" font-family="Helvetica,sans-Serif" font-size="10.00">TicTacToeException()</text>
<text text-anchor="start" x="4" y="-6.5" font-family="Helvetica,sans-Serif" font-size="10.00">+</text>
<text text-anchor="start" x="14" y="-6.5" font-family="Helvetica,sans-Serif" font-size="10.00">TicTacToeException(String message)</text>
<polygon fill="#666666" stroke="#666666" points="0,-50 0,-50 180.75,-50 180.75,-50 0,-50"/>
<polygon fill="#666666" stroke="#666666" points="0,-34 0,-34 180.75,-34 180.75,-34 0,-34"/>
<polygon fill="none" stroke="#666666" points="0,0 0,-68 180.75,-68 180.75,0 0,0"/>
</a>
</g>
</g>
<!-- Node1&#45;&gt;Node2 -->
<g id="edge1_Node000001_Node000002" class="edge">
<title>Node1&#45;&gt;Node2</title>
<g id="a_edge1_Node000001_Node000002"><a xlink:title=" ">
<path fill="none" stroke="#63b8ff" d="M90.38,-92.97C90.38,-84.65 90.38,-75.84 90.38,-67.67"/>
<polygon fill="none" stroke="#63b8ff" points="86.88,-92.79 90.38,-102.79 93.88,-92.79 86.88,-92.79"/>
</a>
</g>
</g>
</g>
</svg>
