<?xml version="1.0" encoding="UTF-8" standalone="no"?>
<!DOCTYPE svg PUBLIC "-//W3C//DTD SVG 1.1//EN"
 "http://www.w3.org/Graphics/SVG/1.1/DTD/svg11.dtd">
<!-- Generated by graphviz version 12.2.1 (20241206.2353)
 -->
<!-- Title: src.main.java.TicTacToeModel Pages: 1 -->
<svg width="846pt" height="672pt"
 viewBox="0.00 0.00 846.46 672.00" xmlns="http://www.w3.org/2000/svg" xmlns:xlink="http://www.w3.org/1999/xlink">
<g id="graph0" class="graph" transform="scale(1 1) rotate(0) translate(4 668)">
<title>src.main.java.TicTacToeModel</title>
<!-- Node1 -->
<g id="Node000001" class="node">
<title>Node1</title>
<g id="a_Node000001"><a xlink:title=" ">
<polygon fill="#999999" stroke="none" points="618.07,-228 296.32,-228 296.32,0 618.07,0 618.07,-228"/>
<text text-anchor="start" x="390.82" y="-214.5" font-family="Helvetica,sans-Serif" font-size="10.00">src.main.java.TicTacToeModel</text>
<text text-anchor="start" x="455.69" y="-198.5" font-family="Helvetica,sans-Serif" font-size="10.00"> </text>
<text text-anchor="start" x="300.32" y="-182.5" font-family="Helvetica,sans-Serif" font-size="10.00">+</text>
<text text-anchor="start" x="310.32" y="-182.5" font-family="Helvetica,sans-Serif" font-size="10.00">TicTacToeModel()</text>
<text text-anchor="start" x="300.32" y="-166.5" font-family="Helvetica,sans-Serif" font-size="10.00">+</text>
<text text-anchor="start" x="310.32" y="-166.5" font-family="Helvetica,sans-Serif" font-size="10.00">TicTacToeBoard getGameBoard()</text>
<text text-anchor="start" x="300.32" y="-150.5" font-family="Helvetica,sans-Serif" font-size="10.00">+</text>
<text text-anchor="start" x="310.32" y="-150.5" font-family="Helvetica,sans-Serif" font-size="10.00">boolean isGameOver()</text>
<text text-anchor="start" x="300.32" y="-134.5" font-family="Helvetica,sans-Serif" font-size="10.00">+</text>
<text text-anchor="start" x="310.32" y="-134.5" font-family="Helvetica,sans-Serif" font-size="10.00">int getBoardWinType()</text>
<text text-anchor="start" x="300.32" y="-118.5" font-family="Helvetica,sans-Serif" font-size="10.00">+</text>
<text text-anchor="start" x="310.32" y="-118.5" font-family="Helvetica,sans-Serif" font-size="10.00">int getBoardWinIndex()</text>
<text text-anchor="start" x="300.32" y="-102.5" font-family="Helvetica,sans-Serif" font-size="10.00">+</text>
<text text-anchor="start" x="310.32" y="-102.5" font-family="Helvetica,sans-Serif" font-size="10.00">void updateBoard(int row, int col, TttPlayerOwner playerOwner)</text>
<text text-anchor="start" x="300.32" y="-86.5" font-family="Helvetica,sans-Serif" font-size="10.00">+</text>
<text text-anchor="start" x="310.32" y="-86.5" font-family="Helvetica,sans-Serif" font-size="10.00">void clearBoard()</text>
<text text-anchor="start" x="300.32" y="-70.5" font-family="Helvetica,sans-Serif" font-size="10.00">+</text>
<text text-anchor="start" x="310.32" y="-70.5" font-family="Helvetica,sans-Serif" font-size="10.00">void onBoardClick(int row, int col)</text>
<text text-anchor="start" x="300.32" y="-54.5" font-family="Helvetica,sans-Serif" font-size="10.00">+</text>
<text text-anchor="start" x="310.32" y="-54.5" font-family="Helvetica,sans-Serif" font-size="10.00">boolean isBoardFull()</text>
<text text-anchor="start" x="300.32" y="-38.5" font-family="Helvetica,sans-Serif" font-size="10.00">+</text>
<text text-anchor="start" x="310.32" y="-38.5" font-family="Helvetica,sans-Serif" font-size="10.00">void addPropertyChangeListener(PropertyChangeListener listener)</text>
<text text-anchor="start" x="300.32" y="-22.5" font-family="Helvetica,sans-Serif" font-size="10.00">+</text>
<text text-anchor="start" x="310.32" y="-22.5" font-family="Helvetica,sans-Serif" font-size="10.00">void removePropertyChangeListener(PropertyChangeListener listener)</text>
<text text-anchor="start" x="301.82" y="-6.5" font-family="Helvetica,sans-Serif" font-size="10.00">&#45;</text>
<text text-anchor="start" x="310.32" y="-6.5" font-family="Helvetica,sans-Serif" font-size="10.00">void switchPlayer()</text>
<polygon fill="#666666" stroke="#666666" points="296.32,-210 296.32,-210 618.07,-210 618.07,-210 296.32,-210"/>
<polygon fill="#666666" stroke="#666666" points="296.32,-194 296.32,-194 618.07,-194 618.07,-194 296.32,-194"/>
<polygon fill="none" stroke="#666666" points="296.32,0 296.32,-228 618.07,-228 618.07,0 296.32,0"/>
</a>
</g>
</g>
<!-- Node2 -->
<g id="Node000002" class="node">
<title>Node2</title>
<g id="a_Node000002"><a xlink:title=" ">
<polygon fill="white" stroke="none" points="78.44,-648 59.94,-648 59.94,-596 78.44,-596 78.44,-648"/>
<text text-anchor="start" x="63.94" y="-634.5" font-family="Helvetica,sans-Serif" font-size="10.00">int</text>
<text text-anchor="start" x="67.69" y="-618.5" font-family="Helvetica,sans-Serif" font-size="10.00"> </text>
<text text-anchor="start" x="67.69" y="-602.5" font-family="Helvetica,sans-Serif" font-size="10.00"> </text>
<polygon fill="#666666" stroke="#666666" points="59.94,-630 59.94,-630 78.44,-630 78.44,-630 59.94,-630"/>
<polygon fill="#666666" stroke="#666666" points="59.94,-614 59.94,-614 78.44,-614 78.44,-614 59.94,-614"/>
<polygon fill="none" stroke="#666666" points="59.94,-596 59.94,-648 78.44,-648 78.44,-596 59.94,-596"/>
</a>
</g>
</g>
<!-- Node2&#45;&gt;Node1 -->
<g id="edge1_Node000001_Node000002" class="edge">
<title>Node2&#45;&gt;Node1</title>
<g id="a_edge1_Node000001_Node000002"><a xlink:title=" ">
<path fill="none" stroke="#63b8ff" d="M60.07,-603.97C33.03,-550.92 -40.52,-385.97 30.44,-282 87.26,-198.76 192.34,-157 284.01,-136.06"/>
<polygon fill="none" stroke="#63b8ff" points="283.95,-136.08 288.96,-130.88 295.67,-133.5 290.67,-138.7 283.95,-136.08"/>
</a>
</g>
<text text-anchor="start" x="33.44" y="-368.5" font-family="Helvetica,sans-Serif" font-size="10.00" fill="grey">+BOARD_SIZE</text>
</g>
<!-- Node5 -->
<g id="Node000005" class="node">
<title>Node5</title>
<g id="a_Node000005"><a xlink:href="classsrc_1_1main_1_1java_1_1_tic_tac_toe_board.html" target="_top" xlink:title=" ">
<polygon fill="white" stroke="none" points="381.32,-462 115.07,-462 115.07,-282 381.32,-282 381.32,-462"/>
<text text-anchor="start" x="182.19" y="-448.5" font-family="Helvetica,sans-Serif" font-size="10.00">src.main.java.TicTacToeBoard</text>
<text text-anchor="start" x="246.69" y="-432.5" font-family="Helvetica,sans-Serif" font-size="10.00"> </text>
<text text-anchor="start" x="119.07" y="-416.5" font-family="Helvetica,sans-Serif" font-size="10.00">+</text>
<text text-anchor="start" x="129.07" y="-416.5" font-family="Helvetica,sans-Serif" font-size="10.00">TicTacToeBoard()</text>
<text text-anchor="start" x="119.07" y="-400.5" font-family="Helvetica,sans-Serif" font-size="10.00">+</text>
<text text-anchor="start" x="129.07" y="-400.5" font-family="Helvetica,sans-Serif" font-size="10.00">int getWinner()</text>
<text text-anchor="start" x="119.07" y="-384.5" font-family="Helvetica,sans-Serif" font-size="10.00">+</text>
<text text-anchor="start" x="129.07" y="-384.5" font-family="Helvetica,sans-Serif" font-size="10.00">int getWinType()</text>
<text text-anchor="start" x="119.07" y="-368.5" font-family="Helvetica,sans-Serif" font-size="10.00">+</text>
<text text-anchor="start" x="129.07" y="-368.5" font-family="Helvetica,sans-Serif" font-size="10.00">int getWinIndex()</text>
<text text-anchor="start" x="119.07" y="-352.5" font-family="Helvetica,sans-Serif" font-size="10.00">+</text>
<text text-anchor="start" x="129.07" y="-352.5" font-family="Helvetica,sans-Serif" font-size="10.00">void clear()</text>
<text text-anchor="start" x="119.07" y="-336.5" font-family="Helvetica,sans-Serif" font-size="10.00">+</text>
<text text-anchor="start" x="129.07" y="-336.5" font-family="Helvetica,sans-Serif" font-size="10.00">void update(int row, int col, TttPlayerOwner playerOwner)</text>
<text text-anchor="start" x="119.07" y="-320.5" font-family="Helvetica,sans-Serif" font-size="10.00">+</text>
<text text-anchor="start" x="129.07" y="-320.5" font-family="Helvetica,sans-Serif" font-size="10.00">boolean isFull()</text>
<text text-anchor="start" x="119.07" y="-304.5" font-family="Helvetica,sans-Serif" font-size="10.00">+</text>
<text text-anchor="start" x="129.07" y="-304.5" font-family="Helvetica,sans-Serif" font-size="10.00">int checkForWinner()</text>
<text text-anchor="start" x="119.07" y="-288.5" font-family="Helvetica,sans-Serif" font-size="10.00">~</text>
<text text-anchor="start" x="129.07" y="-288.5" font-family="Helvetica,sans-Serif" font-size="10.00">TttPlayerOwner getPlayerOwner(int row, int col)</text>
<polygon fill="#666666" stroke="#666666" points="115.07,-444 115.07,-444 381.32,-444 381.32,-444 115.07,-444"/>
<polygon fill="#666666" stroke="#666666" points="115.07,-428 115.07,-428 381.32,-428 381.32,-428 115.07,-428"/>
<polygon fill="none" stroke="#666666" points="115.07,-282 115.07,-462 381.32,-462 381.32,-282 115.07,-282"/>
</a>
</g>
</g>
<!-- Node2&#45;&gt;Node5 -->
<g id="edge7_Node000005_Node000002" class="edge">
<title>Node2&#45;&gt;Node5</title>
<g id="a_edge7_Node000005_Node000002"><a xlink:title=" ">
<path fill="none" stroke="#63b8ff" d="M78.31,-608.36C96.48,-583.19 138.69,-524.71 176.49,-472.34"/>
<polygon fill="none" stroke="#63b8ff" points="176.43,-472.43 176.7,-465.22 183.45,-462.7 183.18,-469.9 176.43,-472.43"/>
</a>
</g>
<text text-anchor="start" x="172.41" y="-533.5" font-family="Helvetica,sans-Serif" font-size="10.00" fill="grey">&#45;winIndex</text>
<text text-anchor="start" x="172.41" y="-517.5" font-family="Helvetica,sans-Serif" font-size="10.00" fill="grey">&#45;winType</text>
<text text-anchor="start" x="172.41" y="-501.5" font-family="Helvetica,sans-Serif" font-size="10.00" fill="grey">&#45;winner</text>
</g>
<!-- Node3 -->
<g id="Node000003" class="node">
<title>Node3</title>
<g id="a_Node000003"><a xlink:title=" ">
<polygon fill="white" stroke="none" points="583.94,-398 502.44,-398 502.44,-346 583.94,-346 583.94,-398"/>
<text text-anchor="start" x="506.44" y="-384.5" font-family="Helvetica,sans-Serif" font-size="10.00">static final String</text>
<text text-anchor="start" x="541.69" y="-368.5" font-family="Helvetica,sans-Serif" font-size="10.00"> </text>
<text text-anchor="start" x="541.69" y="-352.5" font-family="Helvetica,sans-Serif" font-size="10.00"> </text>
<polygon fill="#666666" stroke="#666666" points="502.44,-380 502.44,-380 583.94,-380 583.94,-380 502.44,-380"/>
<polygon fill="#666666" stroke="#666666" points="502.44,-364 502.44,-364 583.94,-364 583.94,-364 502.44,-364"/>
<polygon fill="none" stroke="#666666" points="502.44,-346 502.44,-398 583.94,-398 583.94,-346 502.44,-346"/>
</a>
</g>
</g>
<!-- Node3&#45;&gt;Node1 -->
<g id="edge2_Node000001_Node000003" class="edge">
<title>Node3&#45;&gt;Node1</title>
<g id="a_edge2_Node000001_Node000003"><a xlink:title=" ">
<path fill="none" stroke="#63b8ff" d="M531.72,-346.28C522.01,-324.82 508.15,-292.76 498.19,-264 495.51,-256.26 492.88,-248.24 490.34,-240.12"/>
<polygon fill="none" stroke="#63b8ff" points="490.33,-240.09 484.75,-235.52 486.81,-228.61 492.39,-233.18 490.33,-240.09"/>
</a>
</g>
<text text-anchor="start" x="501.19" y="-251.5" font-family="Helvetica,sans-Serif" font-size="10.00" fill="grey">+BOARD_UPDATE_PROP_NAME</text>
</g>
<!-- Node4 -->
<g id="Node000004" class="node">
<title>Node4</title>
<g id="a_Node000004"><a xlink:title=" ">
<polygon fill="white" stroke="none" points="762.32,-398 602.07,-398 602.07,-346 762.32,-346 762.32,-398"/>
<text text-anchor="start" x="606.07" y="-384.5" font-family="Helvetica,sans-Serif" font-size="10.00">final SwingPropertyChangeSupport</text>
<text text-anchor="start" x="680.69" y="-368.5" font-family="Helvetica,sans-Serif" font-size="10.00"> </text>
<text text-anchor="start" x="680.69" y="-352.5" font-family="Helvetica,sans-Serif" font-size="10.00"> </text>
<polygon fill="#666666" stroke="#666666" points="602.07,-380 602.07,-380 762.32,-380 762.32,-380 602.07,-380"/>
<polygon fill="#666666" stroke="#666666" points="602.07,-364 602.07,-364 762.32,-364 762.32,-364 602.07,-364"/>
<polygon fill="none" stroke="#666666" points="602.07,-346 602.07,-398 762.32,-398 762.32,-346 602.07,-346"/>
</a>
</g>
</g>
<!-- Node4&#45;&gt;Node1 -->
<g id="edge3_Node000001_Node000004" class="edge">
<title>Node4&#45;&gt;Node1</title>
<g id="a_edge3_Node000001_Node000004"><a xlink:title=" ">
<path fill="none" stroke="#63b8ff" d="M683.45,-346.33C683.62,-319.46 680.3,-276.29 660.19,-246 651.04,-232.22 639.89,-219.57 627.58,-208.04"/>
<polygon fill="none" stroke="#63b8ff" points="627.57,-208.03 620.43,-207.01 618.62,-200.03 625.76,-201.05 627.57,-208.03"/>
</a>
</g>
<text text-anchor="start" x="671.39" y="-251.5" font-family="Helvetica,sans-Serif" font-size="10.00" fill="grey">&#45;propertyChanges</text>
</g>
<!-- Node5&#45;&gt;Node1 -->
<g id="edge4_Node000001_Node000005" class="edge">
<title>Node5&#45;&gt;Node1</title>
<g id="a_edge4_Node000001_Node000005"><a xlink:title=" ">
<path fill="none" stroke="#63b8ff" d="M315.9,-282.12C325.46,-269.9 335.26,-257.59 344.69,-246 346.88,-243.31 349.1,-240.6 351.34,-237.88"/>
<polygon fill="none" stroke="#63b8ff" points="351.34,-237.88 352.08,-230.71 358.98,-228.64 358.24,-235.81 351.34,-237.88"/>
</a>
</g>
<text text-anchor="start" x="347.69" y="-251.5" font-family="Helvetica,sans-Serif" font-size="10.00" fill="grey">&#45;gameBoard</text>
</g>
<!-- Node6 -->
<g id="Node000006" class="node">
<title>Node6</title>
<g id="a_Node000006"><a xlink:title=" ">
<polygon fill="white" stroke="none" points="281.44,-648 214.94,-648 214.94,-596 281.44,-596 281.44,-648"/>
<text text-anchor="start" x="218.94" y="-634.5" font-family="Helvetica,sans-Serif" font-size="10.00">static final int</text>
<text text-anchor="start" x="246.69" y="-618.5" font-family="Helvetica,sans-Serif" font-size="10.00"> </text>
<text text-anchor="start" x="246.69" y="-602.5" font-family="Helvetica,sans-Serif" font-size="10.00"> </text>
<polygon fill="#666666" stroke="#666666" points="214.94,-630 214.94,-630 281.44,-630 281.44,-630 214.94,-630"/>
<polygon fill="#666666" stroke="#666666" points="214.94,-614 214.94,-614 281.44,-614 281.44,-614 214.94,-614"/>
<polygon fill="none" stroke="#666666" points="214.94,-596 214.94,-648 281.44,-648 281.44,-596 214.94,-596"/>
</a>
</g>
</g>
<!-- Node6&#45;&gt;Node5 -->
<g id="edge5_Node000005_Node000006" class="edge">
<title>Node6&#45;&gt;Node5</title>
<g id="a_edge5_Node000005_Node000006"><a xlink:title=" ">
<path fill="none" stroke="#63b8ff" d="M248.19,-596.31C248.19,-567.93 248.19,-519.53 248.19,-475.02"/>
<polygon fill="none" stroke="#63b8ff" points="248.19,-474.88 244.19,-468.88 248.19,-462.88 252.19,-468.88 248.19,-474.88"/>
</a>
</g>
<text text-anchor="start" x="251.19" y="-549.5" font-family="Helvetica,sans-Serif" font-size="10.00" fill="grey">+BOARD_SIZE</text>
<text text-anchor="start" x="251.19" y="-533.5" font-family="Helvetica,sans-Serif" font-size="10.00" fill="grey">+DRAW</text>
<text text-anchor="start" x="251.19" y="-517.5" font-family="Helvetica,sans-Serif" font-size="10.00" fill="grey">+NO_WINNER</text>
<text text-anchor="start" x="251.19" y="-501.5" font-family="Helvetica,sans-Serif" font-size="10.00" fill="grey">+O_WINNER</text>
<text text-anchor="start" x="251.19" y="-485.5" font-family="Helvetica,sans-Serif" font-size="10.00" fill="grey">+X_WINNER</text>
</g>
<!-- Node7 -->
<g id="Node000007" class="node">
<title>Node7</title>
<g id="a_Node000007"><a xlink:href="enumsrc_1_1main_1_1java_1_1_ttt_player_owner.html" target="_top" xlink:title=" ">
<polygon fill="white" stroke="none" points="461.07,-664 323.32,-664 323.32,-580 461.07,-580 461.07,-664"/>
<text text-anchor="start" x="327.32" y="-650.5" font-family="Helvetica,sans-Serif" font-size="10.00">src.main.java.TttPlayerOwner</text>
<text text-anchor="start" x="348.07" y="-634.5" font-family="Helvetica,sans-Serif" font-size="10.00">+</text>
<text text-anchor="start" x="378.82" y="-634.5" font-family="Helvetica,sans-Serif" font-size="10.00">NOONE</text>
<text text-anchor="start" x="348.07" y="-618.5" font-family="Helvetica,sans-Serif" font-size="10.00">+</text>
<text text-anchor="start" x="378.82" y="-618.5" font-family="Helvetica,sans-Serif" font-size="10.00">X</text>
<text text-anchor="start" x="348.07" y="-602.5" font-family="Helvetica,sans-Serif" font-size="10.00">+</text>
<text text-anchor="start" x="378.82" y="-602.5" font-family="Helvetica,sans-Serif" font-size="10.00">O</text>
<text text-anchor="start" x="390.69" y="-586.5" font-family="Helvetica,sans-Serif" font-size="10.00"> </text>
<polygon fill="#666666" stroke="#666666" points="323.32,-646 323.32,-646 461.07,-646 461.07,-646 323.32,-646"/>
<polygon fill="#666666" stroke="#666666" points="323.32,-598 323.32,-598 376.82,-598 376.82,-598 323.32,-598"/>
<polygon fill="#666666" stroke="#666666" points="376.82,-598 376.82,-598 461.07,-598 461.07,-598 376.82,-598"/>
<polygon fill="none" stroke="#666666" points="323.32,-580 323.32,-664 461.07,-664 461.07,-580 323.32,-580"/>
</a>
</g>
</g>
<!-- Node7&#45;&gt;Node1 -->
<g id="edge8_Node000001_Node000007" class="edge">
<title>Node7&#45;&gt;Node1</title>
<g id="a_edge8_Node000001_Node000007"><a xlink:title=" ">
<path fill="none" stroke="#63b8ff" d="M400.36,-580.14C401.42,-574.08 402.4,-567.89 403.19,-562 419.82,-438.24 409.95,-405.78 426.44,-282 428.23,-268.58 430.37,-254.59 432.67,-240.68"/>
<polygon fill="none" stroke="#63b8ff" points="432.67,-240.67 429.73,-234.08 434.68,-228.84 437.62,-235.42 432.67,-240.67"/>
</a>
</g>
<text text-anchor="start" x="429.44" y="-368.5" font-family="Helvetica,sans-Serif" font-size="10.00" fill="grey">&#45;currentPlayer</text>
</g>
<!-- Node7&#45;&gt;Node5 -->
<g id="edge6_Node000005_Node000007" class="edge">
<title>Node7&#45;&gt;Node5</title>
<g id="a_edge6_Node000005_Node000007"><a xlink:title=" ">
<path fill="none" stroke="#63b8ff" d="M368.73,-580.11C365.56,-574.1 362.45,-567.94 359.69,-562 343.23,-526.6 347.06,-514.18 328.19,-480 326.9,-477.66 325.56,-475.31 324.19,-472.97"/>
<polygon fill="none" stroke="#63b8ff" points="324.21,-473.01 317.67,-469.97 317.95,-462.77 324.5,-465.8 324.21,-473.01"/>
</a>
</g>
<text text-anchor="start" x="362.69" y="-517.5" font-family="Helvetica,sans-Serif" font-size="10.00" fill="grey">&#45;tttBoard</text>
</g>
<!-- Node8 -->
<g id="Node000008" class="node">
<title>Node8</title>
<g id="a_Node000008"><a xlink:title=" ">
<polygon fill="white" stroke="none" points="822.07,-398 780.32,-398 780.32,-346 822.07,-346 822.07,-398"/>
<text text-anchor="start" x="784.32" y="-384.5" font-family="Helvetica,sans-Serif" font-size="10.00">boolean</text>
<text text-anchor="start" x="799.69" y="-368.5" font-family="Helvetica,sans-Serif" font-size="10.00"> </text>
<text text-anchor="start" x="799.69" y="-352.5" font-family="Helvetica,sans-Serif" font-size="10.00"> </text>
<polygon fill="#666666" stroke="#666666" points="780.32,-380 780.32,-380 822.07,-380 822.07,-380 780.32,-380"/>
<polygon fill="#666666" stroke="#666666" points="780.32,-364 780.32,-364 822.07,-364 822.07,-364 780.32,-364"/>
<polygon fill="none" stroke="#666666" points="780.32,-346 780.32,-398 822.07,-398 822.07,-346 780.32,-346"/>
</a>
</g>
</g>
<!-- Node8&#45;&gt;Node1 -->
<g id="edge9_Node000001_Node000008" class="edge">
<title>Node8&#45;&gt;Node1</title>
<g id="a_edge9_Node000001_Node000008"><a xlink:title=" ">
<path fill="none" stroke="#63b8ff" d="M798.3,-346.06C793.79,-318.14 782.55,-273.25 755.19,-246 720.29,-211.24 674.61,-184.96 629.53,-165.42"/>
<polygon fill="none" stroke="#63b8ff" points="629.67,-165.48 622.59,-166.84 618.62,-160.82 625.7,-159.47 629.67,-165.48"/>
</a>
</g>
<text text-anchor="start" x="771.71" y="-251.5" font-family="Helvetica,sans-Serif" font-size="10.00" fill="grey">&#45;bIsGameOver</text>
</g>
</g>
</svg>
