<?xml version="1.0" encoding="UTF-8" standalone="no"?>
<!DOCTYPE svg PUBLIC "-//W3C//DTD SVG 1.1//EN"
 "http://www.w3.org/Graphics/SVG/1.1/DTD/svg11.dtd">
<!-- Generated by graphviz version 12.2.1 (20241206.2353)
 -->
<!-- Title: src.main.java.TicTacToeMain.main Pages: 1 -->
<svg width="684pt" height="28pt"
 viewBox="0.00 0.00 683.75 28.00" xmlns="http://www.w3.org/2000/svg" xmlns:xlink="http://www.w3.org/1999/xlink">
<g id="graph0" class="graph" transform="scale(1 1) rotate(0) translate(4 24)">
<title>src.main.java.TicTacToeMain.main</title>
<!-- Node1 -->
<g id="Node000001" class="node">
<title>Node1</title>
<g id="a_Node000001"><a xlink:title=" ">
<polygon fill="#999999" stroke="#666666" points="167.5,-20 0,-20 0,0 167.5,0 167.5,-20"/>
<text text-anchor="middle" x="83.75" y="-6.5" font-family="Helvetica,sans-Serif" font-size="10.00">src.main.java.TicTacToeMain.main</text>
</a>
</g>
</g>
<!-- Node2 -->
<g id="Node000002" class="node">
<title>Node2</title>
<g id="a_Node000002"><a xlink:href="classsrc_1_1main_1_1java_1_1_tic_tac_toe_main.html#addf5d56f9a303017a03b48977c7c5fb8" target="_top" xlink:title=" ">
<polygon fill="white" stroke="#666666" points="434,-20 203.5,-20 203.5,0 434,0 434,-20"/>
<text text-anchor="middle" x="318.75" y="-6.5" font-family="Helvetica,sans-Serif" font-size="10.00">src.main.java.TicTacToeMain.createAndShowGui</text>
</a>
</g>
</g>
<!-- Node1&#45;&gt;Node2 -->
<g id="edge1_Node000001_Node000002" class="edge">
<title>Node1&#45;&gt;Node2</title>
<g id="a_edge1_Node000001_Node000002"><a xlink:title=" ">
<path fill="none" stroke="#63b8ff" d="M167.88,-10C175.7,-10 183.73,-10 191.83,-10"/>
<polygon fill="#63b8ff" stroke="#63b8ff" points="191.79,-13.5 201.79,-10 191.79,-6.5 191.79,-13.5"/>
</a>
</g>
</g>
<!-- Node3 -->
<g id="Node000003" class="node">
<title>Node3</title>
<g id="a_Node000003"><a xlink:href="classsrc_1_1main_1_1java_1_1_tic_tac_toe_view.html#a17486a60a99ff853d1345736fb742630" target="_top" xlink:title=" ">
<polygon fill="white" stroke="#666666" points="675.75,-20 470,-20 470,0 675.75,0 675.75,-20"/>
<text text-anchor="middle" x="572.88" y="-6.5" font-family="Helvetica,sans-Serif" font-size="10.00">src.main.java.TicTacToeView.getMainPanel</text>
</a>
</g>
</g>
<!-- Node2&#45;&gt;Node3 -->
<g id="edge2_Node000002_Node000003" class="edge">
<title>Node2&#45;&gt;Node3</title>
<g id="a_edge2_Node000002_Node000003"><a xlink:title=" ">
<path fill="none" stroke="#63b8ff" d="M434.38,-10C442.42,-10 450.53,-10 458.57,-10"/>
<polygon fill="#63b8ff" stroke="#63b8ff" points="458.36,-13.5 468.36,-10 458.36,-6.5 458.36,-13.5"/>
</a>
</g>
</g>
</g>
</svg>
