<?xml version="1.0" encoding="UTF-8" standalone="no"?>
<!DOCTYPE svg PUBLIC "-//W3C//DTD SVG 1.1//EN"
 "http://www.w3.org/Graphics/SVG/1.1/DTD/svg11.dtd">
<!-- Generated by graphviz version 12.2.1 (20241206.2353)
 -->
<!-- Title: src.main.java.TicTacToeController Pages: 1 -->
<svg width="564pt" height="1582pt"
 viewBox="0.00 0.00 564.28 1582.00" xmlns="http://www.w3.org/2000/svg" xmlns:xlink="http://www.w3.org/1999/xlink">
<g id="graph0" class="graph" transform="scale(1 1) rotate(0) translate(4 1578)">
<title>src.main.java.TicTacToeController</title>
<!-- Node1 -->
<g id="Node000001" class="node">
<title>Node1</title>
<g id="a_Node000001"><a xlink:title=" ">
<polygon fill="#999999" stroke="none" points="546.16,-132 239.41,-132 239.41,0 546.16,0 546.16,-132"/>
<text text-anchor="start" x="318.53" y="-118.5" font-family="Helvetica,sans-Serif" font-size="10.00">src.main.java.TicTacToeController</text>
<text text-anchor="start" x="391.28" y="-102.5" font-family="Helvetica,sans-Serif" font-size="10.00"> </text>
<text text-anchor="start" x="243.41" y="-86.5" font-family="Helvetica,sans-Serif" font-size="10.00">+</text>
<text text-anchor="start" x="253.41" y="-86.5" font-family="Helvetica,sans-Serif" font-size="10.00">TicTacToeController(TicTacToeModel model, TicTacToeView view)</text>
<text text-anchor="start" x="243.41" y="-70.5" font-family="Helvetica,sans-Serif" font-size="10.00">+</text>
<text text-anchor="start" x="253.41" y="-70.5" font-family="Helvetica,sans-Serif" font-size="10.00">void exit(ActionEvent evt)</text>
<text text-anchor="start" x="243.41" y="-54.5" font-family="Helvetica,sans-Serif" font-size="10.00">+</text>
<text text-anchor="start" x="253.41" y="-54.5" font-family="Helvetica,sans-Serif" font-size="10.00">void onBoardClick(int row, int col)</text>
<text text-anchor="start" x="243.41" y="-38.5" font-family="Helvetica,sans-Serif" font-size="10.00">+</text>
<text text-anchor="start" x="253.41" y="-38.5" font-family="Helvetica,sans-Serif" font-size="10.00">void clear()</text>
<text text-anchor="start" x="243.41" y="-22.5" font-family="Helvetica,sans-Serif" font-size="10.00">+</text>
<text text-anchor="start" x="253.41" y="-22.5" font-family="Helvetica,sans-Serif" font-size="10.00">void mousePressed(MouseEvent evt)</text>
<text text-anchor="start" x="243.41" y="-6.5" font-family="Helvetica,sans-Serif" font-size="10.00">+</text>
<text text-anchor="start" x="253.41" y="-6.5" font-family="Helvetica,sans-Serif" font-size="10.00">void propertyChange(PropertyChangeEvent evt)</text>
<polygon fill="#666666" stroke="#666666" points="239.41,-114 239.41,-114 546.16,-114 546.16,-114 239.41,-114"/>
<polygon fill="#666666" stroke="#666666" points="239.41,-98 239.41,-98 546.16,-98 546.16,-98 239.41,-98"/>
<polygon fill="none" stroke="#666666" points="239.41,0 239.41,-132 546.16,-132 546.16,0 239.41,0"/>
</a>
</g>
</g>
<!-- Node2 -->
<g id="Node000002" class="node">
<title>Node2</title>
<g id="a_Node000002"><a xlink:title=" ">
<polygon fill="white" stroke="none" points="86.28,-978 15.28,-978 15.28,-926 86.28,-926 86.28,-978"/>
<text text-anchor="start" x="19.28" y="-964.5" font-family="Helvetica,sans-Serif" font-size="10.00">MouseAdapter</text>
<text text-anchor="start" x="49.28" y="-948.5" font-family="Helvetica,sans-Serif" font-size="10.00"> </text>
<text text-anchor="start" x="49.28" y="-932.5" font-family="Helvetica,sans-Serif" font-size="10.00"> </text>
<polygon fill="#666666" stroke="#666666" points="15.28,-960 15.28,-960 86.28,-960 86.28,-960 15.28,-960"/>
<polygon fill="#666666" stroke="#666666" points="15.28,-944 15.28,-944 86.28,-944 86.28,-944 15.28,-944"/>
<polygon fill="none" stroke="#666666" points="15.28,-926 15.28,-978 86.28,-978 86.28,-926 15.28,-926"/>
</a>
</g>
</g>
<!-- Node2&#45;&gt;Node1 -->
<g id="edge1_Node000001_Node000002" class="edge">
<title>Node2&#45;&gt;Node1</title>
<g id="a_edge1_Node000001_Node000002"><a xlink:title=" ">
<path fill="none" stroke="#63b8ff" d="M41.42,-915.24C12.91,-797.7 -61.17,-417.52 105.78,-186 137.65,-141.81 189.04,-113.97 239.6,-96.45"/>
<polygon fill="none" stroke="#63b8ff" points="37.95,-915.76 43.75,-924.63 44.74,-914.08 37.95,-915.76"/>
</a>
</g>
</g>
<!-- Node8 -->
<g id="Node000008" class="node">
<title>Node8</title>
<g id="a_Node000008"><a xlink:href="classsrc_1_1main_1_1java_1_1_tic_tac_toe_controller.html" target="_top" xlink:title=" ">
<polygon fill="white" stroke="none" points="409.16,-760 102.41,-760 102.41,-628 409.16,-628 409.16,-760"/>
<text text-anchor="start" x="181.53" y="-746.5" font-family="Helvetica,sans-Serif" font-size="10.00">src.main.java.TicTacToeController</text>
<text text-anchor="start" x="254.28" y="-730.5" font-family="Helvetica,sans-Serif" font-size="10.00"> </text>
<text text-anchor="start" x="106.41" y="-714.5" font-family="Helvetica,sans-Serif" font-size="10.00">+</text>
<text text-anchor="start" x="116.41" y="-714.5" font-family="Helvetica,sans-Serif" font-size="10.00">TicTacToeController(TicTacToeModel model, TicTacToeView view)</text>
<text text-anchor="start" x="106.41" y="-698.5" font-family="Helvetica,sans-Serif" font-size="10.00">+</text>
<text text-anchor="start" x="116.41" y="-698.5" font-family="Helvetica,sans-Serif" font-size="10.00">void exit(ActionEvent evt)</text>
<text text-anchor="start" x="106.41" y="-682.5" font-family="Helvetica,sans-Serif" font-size="10.00">+</text>
<text text-anchor="start" x="116.41" y="-682.5" font-family="Helvetica,sans-Serif" font-size="10.00">void onBoardClick(int row, int col)</text>
<text text-anchor="start" x="106.41" y="-666.5" font-family="Helvetica,sans-Serif" font-size="10.00">+</text>
<text text-anchor="start" x="116.41" y="-666.5" font-family="Helvetica,sans-Serif" font-size="10.00">void clear()</text>
<text text-anchor="start" x="106.41" y="-650.5" font-family="Helvetica,sans-Serif" font-size="10.00">+</text>
<text text-anchor="start" x="116.41" y="-650.5" font-family="Helvetica,sans-Serif" font-size="10.00">void mousePressed(MouseEvent evt)</text>
<text text-anchor="start" x="106.41" y="-634.5" font-family="Helvetica,sans-Serif" font-size="10.00">+</text>
<text text-anchor="start" x="116.41" y="-634.5" font-family="Helvetica,sans-Serif" font-size="10.00">void propertyChange(PropertyChangeEvent evt)</text>
<polygon fill="#666666" stroke="#666666" points="102.41,-742 102.41,-742 409.16,-742 409.16,-742 102.41,-742"/>
<polygon fill="#666666" stroke="#666666" points="102.41,-726 102.41,-726 409.16,-726 409.16,-726 102.41,-726"/>
<polygon fill="none" stroke="#666666" points="102.41,-628 102.41,-760 409.16,-760 409.16,-628 102.41,-628"/>
</a>
</g>
</g>
<!-- Node2&#45;&gt;Node8 -->
<g id="edge9_Node000008_Node000002" class="edge">
<title>Node2&#45;&gt;Node8</title>
<g id="a_edge9_Node000008_Node000002"><a xlink:title=" ">
<path fill="none" stroke="#63b8ff" d="M56.02,-915.17C61.7,-885.8 73.05,-844.28 94.78,-814 109.27,-793.81 128.23,-775.62 148.02,-759.88"/>
<polygon fill="none" stroke="#63b8ff" points="52.63,-914.22 54.31,-924.68 59.52,-915.46 52.63,-914.22"/>
</a>
</g>
</g>
<!-- Node3 -->
<g id="Node000003" class="node">
<title>Node3</title>
<g id="a_Node000003"><a xlink:title=" ">
<polygon fill="white" stroke="none" points="556.28,-978 443.28,-978 443.28,-926 556.28,-926 556.28,-978"/>
<text text-anchor="start" x="447.28" y="-964.5" font-family="Helvetica,sans-Serif" font-size="10.00">PropertyChangeListener</text>
<text text-anchor="start" x="498.28" y="-948.5" font-family="Helvetica,sans-Serif" font-size="10.00"> </text>
<text text-anchor="start" x="498.28" y="-932.5" font-family="Helvetica,sans-Serif" font-size="10.00"> </text>
<polygon fill="#666666" stroke="#666666" points="443.28,-960 443.28,-960 556.28,-960 556.28,-960 443.28,-960"/>
<polygon fill="#666666" stroke="#666666" points="443.28,-944 443.28,-944 556.28,-944 556.28,-944 443.28,-944"/>
<polygon fill="none" stroke="#666666" points="443.28,-926 443.28,-978 556.28,-978 556.28,-926 443.28,-926"/>
</a>
</g>
</g>
<!-- Node3&#45;&gt;Node1 -->
<g id="edge2_Node000001_Node000003" class="edge">
<title>Node3&#45;&gt;Node1</title>
<g id="a_edge2_Node000001_Node000003"><a xlink:title=" ">
<path fill="none" stroke="#63b8ff" d="M504.33,-914.85C517.47,-799.36 548.58,-430.48 450.78,-150 448.64,-143.86 445.91,-137.76 442.8,-131.82"/>
<polygon fill="none" stroke="#63b8ff" points="500.87,-914.3 503.19,-924.64 507.82,-915.11 500.87,-914.3"/>
</a>
</g>
</g>
<!-- Node3&#45;&gt;Node8 -->
<g id="edge10_Node000008_Node000003" class="edge">
<title>Node3&#45;&gt;Node8</title>
<g id="a_edge10_Node000008_Node000003"><a xlink:title=" ">
<path fill="none" stroke="#63b8ff" d="M488.93,-915.52C478.57,-885.93 460.68,-843.92 434.78,-814 417.32,-793.83 395.65,-775.64 373.48,-759.9"/>
<polygon fill="none" stroke="#63b8ff" points="485.54,-916.41 492.05,-924.77 492.17,-914.17 485.54,-916.41"/>
</a>
</g>
</g>
<!-- Node4 -->
<g id="Node000004" class="node">
<title>Node4</title>
<g id="a_Node000004"><a xlink:href="classsrc_1_1main_1_1java_1_1_tic_tac_toe_model.html" target="_top" xlink:title=" ">
<polygon fill="white" stroke="none" points="425.66,-1090 103.91,-1090 103.91,-814 425.66,-814 425.66,-1090"/>
<text text-anchor="start" x="198.41" y="-1076.5" font-family="Helvetica,sans-Serif" font-size="10.00">src.main.java.TicTacToeModel</text>
<text text-anchor="start" x="107.91" y="-1060.5" font-family="Helvetica,sans-Serif" font-size="10.00">+</text>
<text text-anchor="start" x="117.91" y="-1060.5" font-family="Helvetica,sans-Serif" font-size="10.00">static final int BOARD_SIZE</text>
<text text-anchor="start" x="107.91" y="-1044.5" font-family="Helvetica,sans-Serif" font-size="10.00">+</text>
<text text-anchor="start" x="117.91" y="-1044.5" font-family="Helvetica,sans-Serif" font-size="10.00">static final String BOARD_UPDATE_PROP_NAME</text>
<text text-anchor="start" x="109.41" y="-1028.5" font-family="Helvetica,sans-Serif" font-size="10.00">&#45;</text>
<text text-anchor="start" x="117.91" y="-1028.5" font-family="Helvetica,sans-Serif" font-size="10.00">final SwingPropertyChangeSupport propertyChanges</text>
<text text-anchor="start" x="109.41" y="-1012.5" font-family="Helvetica,sans-Serif" font-size="10.00">&#45;</text>
<text text-anchor="start" x="117.91" y="-1012.5" font-family="Helvetica,sans-Serif" font-size="10.00">boolean bIsGameOver</text>
<text text-anchor="start" x="107.91" y="-996.5" font-family="Helvetica,sans-Serif" font-size="10.00">+</text>
<text text-anchor="start" x="117.91" y="-996.5" font-family="Helvetica,sans-Serif" font-size="10.00">TicTacToeModel()</text>
<text text-anchor="start" x="107.91" y="-980.5" font-family="Helvetica,sans-Serif" font-size="10.00">+</text>
<text text-anchor="start" x="117.91" y="-980.5" font-family="Helvetica,sans-Serif" font-size="10.00">TicTacToeBoard getGameBoard()</text>
<text text-anchor="start" x="107.91" y="-964.5" font-family="Helvetica,sans-Serif" font-size="10.00">+</text>
<text text-anchor="start" x="117.91" y="-964.5" font-family="Helvetica,sans-Serif" font-size="10.00">boolean isGameOver()</text>
<text text-anchor="start" x="107.91" y="-948.5" font-family="Helvetica,sans-Serif" font-size="10.00">+</text>
<text text-anchor="start" x="117.91" y="-948.5" font-family="Helvetica,sans-Serif" font-size="10.00">int getBoardWinType()</text>
<text text-anchor="start" x="107.91" y="-932.5" font-family="Helvetica,sans-Serif" font-size="10.00">+</text>
<text text-anchor="start" x="117.91" y="-932.5" font-family="Helvetica,sans-Serif" font-size="10.00">int getBoardWinIndex()</text>
<text text-anchor="start" x="107.91" y="-916.5" font-family="Helvetica,sans-Serif" font-size="10.00">+</text>
<text text-anchor="start" x="117.91" y="-916.5" font-family="Helvetica,sans-Serif" font-size="10.00">void updateBoard(int row, int col, TttPlayerOwner playerOwner)</text>
<text text-anchor="start" x="107.91" y="-900.5" font-family="Helvetica,sans-Serif" font-size="10.00">+</text>
<text text-anchor="start" x="117.91" y="-900.5" font-family="Helvetica,sans-Serif" font-size="10.00">void clearBoard()</text>
<text text-anchor="start" x="107.91" y="-884.5" font-family="Helvetica,sans-Serif" font-size="10.00">+</text>
<text text-anchor="start" x="117.91" y="-884.5" font-family="Helvetica,sans-Serif" font-size="10.00">void onBoardClick(int row, int col)</text>
<text text-anchor="start" x="107.91" y="-868.5" font-family="Helvetica,sans-Serif" font-size="10.00">+</text>
<text text-anchor="start" x="117.91" y="-868.5" font-family="Helvetica,sans-Serif" font-size="10.00">boolean isBoardFull()</text>
<text text-anchor="start" x="107.91" y="-852.5" font-family="Helvetica,sans-Serif" font-size="10.00">+</text>
<text text-anchor="start" x="117.91" y="-852.5" font-family="Helvetica,sans-Serif" font-size="10.00">void addPropertyChangeListener(PropertyChangeListener listener)</text>
<text text-anchor="start" x="107.91" y="-836.5" font-family="Helvetica,sans-Serif" font-size="10.00">+</text>
<text text-anchor="start" x="117.91" y="-836.5" font-family="Helvetica,sans-Serif" font-size="10.00">void removePropertyChangeListener(PropertyChangeListener listener)</text>
<text text-anchor="start" x="109.41" y="-820.5" font-family="Helvetica,sans-Serif" font-size="10.00">&#45;</text>
<text text-anchor="start" x="117.91" y="-820.5" font-family="Helvetica,sans-Serif" font-size="10.00">void switchPlayer()</text>
<polygon fill="#666666" stroke="#666666" points="103.91,-1072 103.91,-1072 425.66,-1072 425.66,-1072 103.91,-1072"/>
<polygon fill="#666666" stroke="#666666" points="103.91,-1008 103.91,-1008 115.91,-1008 115.91,-1008 103.91,-1008"/>
<polygon fill="#666666" stroke="#666666" points="115.91,-1008 115.91,-1008 425.66,-1008 425.66,-1008 115.91,-1008"/>
<polygon fill="none" stroke="#666666" points="103.91,-814 103.91,-1090 425.66,-1090 425.66,-814 103.91,-814"/>
</a>
</g>
</g>
<!-- Node4&#45;&gt;Node1 -->
<g id="edge3_Node000001_Node000004" class="edge">
<title>Node4&#45;&gt;Node1</title>
<g id="a_edge3_Node000001_Node000004"><a xlink:title=" ">
<path fill="none" stroke="#63b8ff" d="M391.32,-814.07C402.02,-796.81 411.24,-778.64 417.78,-760 492.38,-547.56 444.64,-275.66 413.5,-144.55"/>
<polygon fill="none" stroke="#63b8ff" points="413.48,-144.47 408.18,-139.58 410.66,-132.81 415.95,-137.7 413.48,-144.47"/>
</a>
</g>
<text text-anchor="start" x="455.43" y="-597.5" font-family="Helvetica,sans-Serif" font-size="10.00" fill="grey">&#45;model</text>
</g>
<!-- Node4&#45;&gt;Node8 -->
<g id="edge11_Node000008_Node000004" class="edge">
<title>Node4&#45;&gt;Node8</title>
<g id="a_edge11_Node000008_Node000004"><a xlink:title=" ">
<path fill="none" stroke="#63b8ff" d="M259.97,-814.01C259.47,-799.83 258.97,-785.8 258.51,-772.62"/>
<polygon fill="none" stroke="#63b8ff" points="258.51,-772.64 254.3,-766.79 258.09,-760.65 262.3,-766.51 258.51,-772.64"/>
</a>
</g>
<text text-anchor="start" x="262.21" y="-783.5" font-family="Helvetica,sans-Serif" font-size="10.00" fill="grey">&#45;model</text>
</g>
<!-- Node5 -->
<g id="Node000005" class="node">
<title>Node5</title>
<g id="a_Node000005"><a xlink:href="classsrc_1_1main_1_1java_1_1_tic_tac_toe_board.html" target="_top" xlink:title=" ">
<polygon fill="white" stroke="none" points="288.91,-1436 22.66,-1436 22.66,-1144 288.91,-1144 288.91,-1436"/>
<text text-anchor="start" x="89.78" y="-1422.5" font-family="Helvetica,sans-Serif" font-size="10.00">src.main.java.TicTacToeBoard</text>
<text text-anchor="start" x="26.66" y="-1406.5" font-family="Helvetica,sans-Serif" font-size="10.00">+</text>
<text text-anchor="start" x="36.66" y="-1406.5" font-family="Helvetica,sans-Serif" font-size="10.00">static final int NO_WINNER</text>
<text text-anchor="start" x="26.66" y="-1390.5" font-family="Helvetica,sans-Serif" font-size="10.00">+</text>
<text text-anchor="start" x="36.66" y="-1390.5" font-family="Helvetica,sans-Serif" font-size="10.00">static final int X_WINNER</text>
<text text-anchor="start" x="26.66" y="-1374.5" font-family="Helvetica,sans-Serif" font-size="10.00">+</text>
<text text-anchor="start" x="36.66" y="-1374.5" font-family="Helvetica,sans-Serif" font-size="10.00">static final int O_WINNER</text>
<text text-anchor="start" x="26.66" y="-1358.5" font-family="Helvetica,sans-Serif" font-size="10.00">+</text>
<text text-anchor="start" x="36.66" y="-1358.5" font-family="Helvetica,sans-Serif" font-size="10.00">static final int DRAW</text>
<text text-anchor="start" x="26.66" y="-1342.5" font-family="Helvetica,sans-Serif" font-size="10.00">+</text>
<text text-anchor="start" x="36.66" y="-1342.5" font-family="Helvetica,sans-Serif" font-size="10.00">static final int BOARD_SIZE</text>
<text text-anchor="start" x="28.16" y="-1326.5" font-family="Helvetica,sans-Serif" font-size="10.00">&#45;</text>
<text text-anchor="start" x="36.66" y="-1326.5" font-family="Helvetica,sans-Serif" font-size="10.00">int winner</text>
<text text-anchor="start" x="28.16" y="-1310.5" font-family="Helvetica,sans-Serif" font-size="10.00">&#45;</text>
<text text-anchor="start" x="36.66" y="-1310.5" font-family="Helvetica,sans-Serif" font-size="10.00">int winType</text>
<text text-anchor="start" x="28.16" y="-1294.5" font-family="Helvetica,sans-Serif" font-size="10.00">&#45;</text>
<text text-anchor="start" x="36.66" y="-1294.5" font-family="Helvetica,sans-Serif" font-size="10.00">int winIndex</text>
<text text-anchor="start" x="26.66" y="-1278.5" font-family="Helvetica,sans-Serif" font-size="10.00">+</text>
<text text-anchor="start" x="36.66" y="-1278.5" font-family="Helvetica,sans-Serif" font-size="10.00">TicTacToeBoard()</text>
<text text-anchor="start" x="26.66" y="-1262.5" font-family="Helvetica,sans-Serif" font-size="10.00">+</text>
<text text-anchor="start" x="36.66" y="-1262.5" font-family="Helvetica,sans-Serif" font-size="10.00">int getWinner()</text>
<text text-anchor="start" x="26.66" y="-1246.5" font-family="Helvetica,sans-Serif" font-size="10.00">+</text>
<text text-anchor="start" x="36.66" y="-1246.5" font-family="Helvetica,sans-Serif" font-size="10.00">int getWinType()</text>
<text text-anchor="start" x="26.66" y="-1230.5" font-family="Helvetica,sans-Serif" font-size="10.00">+</text>
<text text-anchor="start" x="36.66" y="-1230.5" font-family="Helvetica,sans-Serif" font-size="10.00">int getWinIndex()</text>
<text text-anchor="start" x="26.66" y="-1214.5" font-family="Helvetica,sans-Serif" font-size="10.00">+</text>
<text text-anchor="start" x="36.66" y="-1214.5" font-family="Helvetica,sans-Serif" font-size="10.00">void clear()</text>
<text text-anchor="start" x="26.66" y="-1198.5" font-family="Helvetica,sans-Serif" font-size="10.00">+</text>
<text text-anchor="start" x="36.66" y="-1198.5" font-family="Helvetica,sans-Serif" font-size="10.00">void update(int row, int col, TttPlayerOwner playerOwner)</text>
<text text-anchor="start" x="26.66" y="-1182.5" font-family="Helvetica,sans-Serif" font-size="10.00">+</text>
<text text-anchor="start" x="36.66" y="-1182.5" font-family="Helvetica,sans-Serif" font-size="10.00">boolean isFull()</text>
<text text-anchor="start" x="26.66" y="-1166.5" font-family="Helvetica,sans-Serif" font-size="10.00">+</text>
<text text-anchor="start" x="36.66" y="-1166.5" font-family="Helvetica,sans-Serif" font-size="10.00">int checkForWinner()</text>
<text text-anchor="start" x="26.66" y="-1150.5" font-family="Helvetica,sans-Serif" font-size="10.00">~</text>
<text text-anchor="start" x="36.66" y="-1150.5" font-family="Helvetica,sans-Serif" font-size="10.00">TttPlayerOwner getPlayerOwner(int row, int col)</text>
<polygon fill="#666666" stroke="#666666" points="22.66,-1418 22.66,-1418 288.91,-1418 288.91,-1418 22.66,-1418"/>
<polygon fill="#666666" stroke="#666666" points="22.66,-1290 22.66,-1290 34.66,-1290 34.66,-1290 22.66,-1290"/>
<polygon fill="#666666" stroke="#666666" points="34.66,-1290 34.66,-1290 288.91,-1290 288.91,-1290 34.66,-1290"/>
<polygon fill="none" stroke="#666666" points="22.66,-1144 22.66,-1436 288.91,-1436 288.91,-1144 22.66,-1144"/>
</a>
</g>
</g>
<!-- Node5&#45;&gt;Node4 -->
<g id="edge4_Node000004_Node000005" class="edge">
<title>Node5&#45;&gt;Node4</title>
<g id="a_edge4_Node000004_Node000005"><a xlink:title=" ">
<path fill="none" stroke="#63b8ff" d="M202.8,-1144.07C207.32,-1130.12 211.92,-1115.97 216.45,-1101.98"/>
<polygon fill="none" stroke="#63b8ff" points="216.44,-1102.02 214.48,-1095.08 220.14,-1090.61 222.09,-1097.55 216.44,-1102.02"/>
</a>
</g>
<text text-anchor="start" x="216.55" y="-1113.5" font-family="Helvetica,sans-Serif" font-size="10.00" fill="grey">&#45;gameBoard</text>
</g>
<!-- Node6 -->
<g id="Node000006" class="node">
<title>Node6</title>
<g id="a_Node000006"><a xlink:href="enumsrc_1_1main_1_1java_1_1_ttt_player_owner.html" target="_top" xlink:title=" ">
<polygon fill="white" stroke="none" points="308.66,-1574 170.91,-1574 170.91,-1490 308.66,-1490 308.66,-1574"/>
<text text-anchor="start" x="174.91" y="-1560.5" font-family="Helvetica,sans-Serif" font-size="10.00">src.main.java.TttPlayerOwner</text>
<text text-anchor="start" x="195.66" y="-1544.5" font-family="Helvetica,sans-Serif" font-size="10.00">+</text>
<text text-anchor="start" x="226.41" y="-1544.5" font-family="Helvetica,sans-Serif" font-size="10.00">NOONE</text>
<text text-anchor="start" x="195.66" y="-1528.5" font-family="Helvetica,sans-Serif" font-size="10.00">+</text>
<text text-anchor="start" x="226.41" y="-1528.5" font-family="Helvetica,sans-Serif" font-size="10.00">X</text>
<text text-anchor="start" x="195.66" y="-1512.5" font-family="Helvetica,sans-Serif" font-size="10.00">+</text>
<text text-anchor="start" x="226.41" y="-1512.5" font-family="Helvetica,sans-Serif" font-size="10.00">O</text>
<text text-anchor="start" x="238.28" y="-1496.5" font-family="Helvetica,sans-Serif" font-size="10.00"> </text>
<polygon fill="#666666" stroke="#666666" points="170.91,-1556 170.91,-1556 308.66,-1556 308.66,-1556 170.91,-1556"/>
<polygon fill="#666666" stroke="#666666" points="170.91,-1508 170.91,-1508 224.41,-1508 224.41,-1508 170.91,-1508"/>
<polygon fill="#666666" stroke="#666666" points="224.41,-1508 224.41,-1508 308.66,-1508 308.66,-1508 224.41,-1508"/>
<polygon fill="none" stroke="#666666" points="170.91,-1490 170.91,-1574 308.66,-1574 308.66,-1490 170.91,-1490"/>
</a>
</g>
</g>
<!-- Node6&#45;&gt;Node4 -->
<g id="edge6_Node000004_Node000006" class="edge">
<title>Node6&#45;&gt;Node4</title>
<g id="a_edge6_Node000004_Node000006"><a xlink:title=" ">
<path fill="none" stroke="#63b8ff" d="M271.4,-1490.29C281.95,-1474.28 292.4,-1455.16 297.78,-1436 328.4,-1327.09 317.7,-1199.18 300.66,-1102.36"/>
<polygon fill="none" stroke="#63b8ff" points="300.69,-1102.51 295.68,-1097.32 298.55,-1090.7 303.56,-1095.89 300.69,-1102.51"/>
</a>
</g>
<text text-anchor="start" x="320.21" y="-1286.5" font-family="Helvetica,sans-Serif" font-size="10.00" fill="grey">&#45;currentPlayer</text>
</g>
<!-- Node6&#45;&gt;Node5 -->
<g id="edge5_Node000005_Node000006" class="edge">
<title>Node6&#45;&gt;Node5</title>
<g id="a_edge5_Node000005_Node000006"><a xlink:title=" ">
<path fill="none" stroke="#63b8ff" d="M225.44,-1490.02C221.09,-1477.59 216.02,-1463.12 210.65,-1447.77"/>
<polygon fill="none" stroke="#63b8ff" points="210.75,-1448.05 204.99,-1443.71 206.79,-1436.72 212.54,-1441.07 210.75,-1448.05"/>
</a>
</g>
<text text-anchor="start" x="220.25" y="-1459.5" font-family="Helvetica,sans-Serif" font-size="10.00" fill="grey">&#45;tttBoard</text>
</g>
<!-- Node7 -->
<g id="Node000007" class="node">
<title>Node7</title>
<g id="a_Node000007"><a xlink:href="classsrc_1_1main_1_1java_1_1_tic_tac_toe_view.html" target="_top" xlink:title=" ">
<polygon fill="white" stroke="none" points="409.16,-574 114.41,-574 114.41,-186 409.16,-186 409.16,-574"/>
<text text-anchor="start" x="197.66" y="-560.5" font-family="Helvetica,sans-Serif" font-size="10.00">src.main.java.TicTacToeView</text>
<text text-anchor="start" x="119.91" y="-544.5" font-family="Helvetica,sans-Serif" font-size="10.00">&#45;</text>
<text text-anchor="start" x="128.41" y="-544.5" font-family="Helvetica,sans-Serif" font-size="10.00">JPanel mainPanel</text>
<text text-anchor="start" x="119.91" y="-528.5" font-family="Helvetica,sans-Serif" font-size="10.00">&#45;</text>
<text text-anchor="start" x="128.41" y="-528.5" font-family="Helvetica,sans-Serif" font-size="10.00">JPanel gameBoardPanel</text>
<text text-anchor="start" x="119.91" y="-512.5" font-family="Helvetica,sans-Serif" font-size="10.00">&#45;</text>
<text text-anchor="start" x="128.41" y="-512.5" font-family="Helvetica,sans-Serif" font-size="10.00">JLabel statusLabel</text>
<text text-anchor="start" x="119.91" y="-496.5" font-family="Helvetica,sans-Serif" font-size="10.00">&#45;</text>
<text text-anchor="start" x="128.41" y="-496.5" font-family="Helvetica,sans-Serif" font-size="10.00">JLabel[][] boardLabels</text>
<text text-anchor="start" x="119.91" y="-480.5" font-family="Helvetica,sans-Serif" font-size="10.00">&#45;</text>
<text text-anchor="start" x="128.41" y="-480.5" font-family="Helvetica,sans-Serif" font-size="10.00">Map&lt; TttPlayerOwner, Icon &gt; iconMap</text>
<text text-anchor="start" x="119.91" y="-464.5" font-family="Helvetica,sans-Serif" font-size="10.00">&#45;</text>
<text text-anchor="start" x="128.41" y="-464.5" font-family="Helvetica,sans-Serif" font-size="10.00">int winner</text>
<text text-anchor="start" x="119.91" y="-448.5" font-family="Helvetica,sans-Serif" font-size="10.00">&#45;</text>
<text text-anchor="start" x="128.41" y="-448.5" font-family="Helvetica,sans-Serif" font-size="10.00">int winType</text>
<text text-anchor="start" x="119.91" y="-432.5" font-family="Helvetica,sans-Serif" font-size="10.00">&#45;</text>
<text text-anchor="start" x="128.41" y="-432.5" font-family="Helvetica,sans-Serif" font-size="10.00">int winIndex</text>
<text text-anchor="start" x="119.91" y="-416.5" font-family="Helvetica,sans-Serif" font-size="10.00">&#45;</text>
<text text-anchor="start" x="128.41" y="-416.5" font-family="Helvetica,sans-Serif" font-size="10.00">static final String PATH_TO_IMG</text>
<text text-anchor="start" x="119.91" y="-400.5" font-family="Helvetica,sans-Serif" font-size="10.00">&#45;</text>
<text text-anchor="start" x="128.41" y="-400.5" font-family="Helvetica,sans-Serif" font-size="10.00">static final int LINE_WIDTH</text>
<text text-anchor="start" x="118.41" y="-384.5" font-family="Helvetica,sans-Serif" font-size="10.00">+</text>
<text text-anchor="start" x="128.41" y="-384.5" font-family="Helvetica,sans-Serif" font-size="10.00">TicTacToeView()</text>
<text text-anchor="start" x="118.41" y="-368.5" font-family="Helvetica,sans-Serif" font-size="10.00">+</text>
<text text-anchor="start" x="128.41" y="-368.5" font-family="Helvetica,sans-Serif" font-size="10.00">void setController(TicTacToeController controller)</text>
<text text-anchor="start" x="118.41" y="-352.5" font-family="Helvetica,sans-Serif" font-size="10.00">+</text>
<text text-anchor="start" x="128.41" y="-352.5" font-family="Helvetica,sans-Serif" font-size="10.00">void resetBoardLabels()</text>
<text text-anchor="start" x="118.41" y="-336.5" font-family="Helvetica,sans-Serif" font-size="10.00">+</text>
<text text-anchor="start" x="128.41" y="-336.5" font-family="Helvetica,sans-Serif" font-size="10.00">void setStatusText(String strText)</text>
<text text-anchor="start" x="118.41" y="-320.5" font-family="Helvetica,sans-Serif" font-size="10.00">+</text>
<text text-anchor="start" x="128.41" y="-320.5" font-family="Helvetica,sans-Serif" font-size="10.00">void addMouseListener(MouseAdapter mouseAdapter)</text>
<text text-anchor="start" x="118.41" y="-304.5" font-family="Helvetica,sans-Serif" font-size="10.00">+</text>
<text text-anchor="start" x="128.41" y="-304.5" font-family="Helvetica,sans-Serif" font-size="10.00">JComponent getMainPanel()</text>
<text text-anchor="start" x="118.41" y="-288.5" font-family="Helvetica,sans-Serif" font-size="10.00">+</text>
<text text-anchor="start" x="128.41" y="-288.5" font-family="Helvetica,sans-Serif" font-size="10.00">JLabel[][] getBoardLabels()</text>
<text text-anchor="start" x="118.41" y="-272.5" font-family="Helvetica,sans-Serif" font-size="10.00">+</text>
<text text-anchor="start" x="128.41" y="-272.5" font-family="Helvetica,sans-Serif" font-size="10.00">void setBoardIcon(int row, int col, TttPlayerOwner playerOwner)</text>
<text text-anchor="start" x="118.41" y="-256.5" font-family="Helvetica,sans-Serif" font-size="10.00">+</text>
<text text-anchor="start" x="128.41" y="-256.5" font-family="Helvetica,sans-Serif" font-size="10.00">void setWinner(int aWinner, int type, int index)</text>
<text text-anchor="start" x="119.91" y="-240.5" font-family="Helvetica,sans-Serif" font-size="10.00">&#45;</text>
<text text-anchor="start" x="128.41" y="-240.5" font-family="Helvetica,sans-Serif" font-size="10.00">void initIconMap(String strPathToImg)</text>
<text text-anchor="start" x="119.91" y="-224.5" font-family="Helvetica,sans-Serif" font-size="10.00">&#45;</text>
<text text-anchor="start" x="128.41" y="-224.5" font-family="Helvetica,sans-Serif" font-size="10.00">void initComponents()</text>
<text text-anchor="start" x="119.91" y="-208.5" font-family="Helvetica,sans-Serif" font-size="10.00">&#45;</text>
<text text-anchor="start" x="128.41" y="-208.5" font-family="Helvetica,sans-Serif" font-size="10.00">static Icon createEmptyIcon(Icon icon)</text>
<text text-anchor="start" x="119.91" y="-192.5" font-family="Helvetica,sans-Serif" font-size="10.00">&#45;</text>
<text text-anchor="start" x="128.41" y="-192.5" font-family="Helvetica,sans-Serif" font-size="10.00">static Icon[] splitImg(BufferedImage img)</text>
<polygon fill="#666666" stroke="#666666" points="114.41,-556 114.41,-556 409.16,-556 409.16,-556 114.41,-556"/>
<polygon fill="#666666" stroke="#666666" points="114.41,-396 114.41,-396 126.41,-396 126.41,-396 114.41,-396"/>
<polygon fill="#666666" stroke="#666666" points="126.41,-396 126.41,-396 409.16,-396 409.16,-396 126.41,-396"/>
<polygon fill="none" stroke="#666666" points="114.41,-186 114.41,-574 409.16,-574 409.16,-186 114.41,-186"/>
</a>
</g>
</g>
<!-- Node7&#45;&gt;Node1 -->
<g id="edge7_Node000001_Node000007" class="edge">
<title>Node7&#45;&gt;Node1</title>
<g id="a_edge7_Node000001_Node000007"><a xlink:title=" ">
<path fill="none" stroke="#63b8ff" d="M342.7,-186.29C348.93,-171.45 354.96,-157.08 360.55,-143.76"/>
<polygon fill="none" stroke="#63b8ff" points="360.56,-143.74 359.2,-136.66 365.21,-132.68 366.57,-139.76 360.56,-143.74"/>
</a>
</g>
<text text-anchor="start" x="360.65" y="-155.5" font-family="Helvetica,sans-Serif" font-size="10.00" fill="grey">&#45;view</text>
</g>
<!-- Node7&#45;&gt;Node8 -->
<g id="edge12_Node000008_Node000007" class="edge">
<title>Node7&#45;&gt;Node8</title>
<g id="a_edge12_Node000008_Node000007"><a xlink:title=" ">
<path fill="none" stroke="#63b8ff" d="M275.17,-573.84C274.74,-586.08 273.98,-598.22 272.78,-610 272.59,-611.87 272.38,-613.77 272.14,-615.68"/>
<polygon fill="none" stroke="#63b8ff" points="272.15,-615.63 275.26,-622.13 270.45,-627.51 267.34,-621 272.15,-615.63"/>
</a>
</g>
<text text-anchor="start" x="276.87" y="-597.5" font-family="Helvetica,sans-Serif" font-size="10.00" fill="grey">&#45;view</text>
</g>
<!-- Node8&#45;&gt;Node7 -->
<g id="edge8_Node000007_Node000008" class="edge">
<title>Node8&#45;&gt;Node7</title>
<g id="a_edge8_Node000007_Node000008"><a xlink:title=" ">
<path fill="none" stroke="#63b8ff" d="M228.51,-628.41C226.7,-622.27 225.15,-616.07 224.03,-610 222.62,-602.36 221.63,-594.56 221.02,-586.69"/>
<polygon fill="none" stroke="#63b8ff" points="221.02,-586.7 216.71,-580.92 220.39,-574.72 224.7,-580.5 221.02,-586.7"/>
</a>
</g>
<text text-anchor="start" x="227.03" y="-597.5" font-family="Helvetica,sans-Serif" font-size="10.00" fill="grey">&#45;controller</text>
</g>
</g>
</svg>
