<?xml version="1.0" encoding="UTF-8" standalone="no"?>
<!DOCTYPE svg PUBLIC "-//W3C//DTD SVG 1.1//EN"
 "http://www.w3.org/Graphics/SVG/1.1/DTD/svg11.dtd">
<!-- Generated by graphviz version 12.2.1 (20241206.2353)
 -->
<!-- Title: src.main.java.TicTacToeView Pages: 1 -->
<svg width="1734pt" height="1172pt"
 viewBox="0.00 0.00 1733.69 1172.00" xmlns="http://www.w3.org/2000/svg" xmlns:xlink="http://www.w3.org/1999/xlink">
<g id="graph0" class="graph" transform="scale(1 1) rotate(0) translate(4 1168)">
<title>src.main.java.TicTacToeView</title>
<!-- Node1 -->
<g id="Node000001" class="node">
<title>Node1</title>
<g id="a_Node000001"><a xlink:title=" ">
<polygon fill="#999999" stroke="none" points="1572.57,-244 1277.82,-244 1277.82,0 1572.57,0 1572.57,-244"/>
<text text-anchor="start" x="1361.07" y="-230.5" font-family="Helvetica,sans-Serif" font-size="10.00">src.main.java.TicTacToeView</text>
<text text-anchor="start" x="1423.69" y="-214.5" font-family="Helvetica,sans-Serif" font-size="10.00"> </text>
<text text-anchor="start" x="1281.82" y="-198.5" font-family="Helvetica,sans-Serif" font-size="10.00">+</text>
<text text-anchor="start" x="1291.82" y="-198.5" font-family="Helvetica,sans-Serif" font-size="10.00">TicTacToeView()</text>
<text text-anchor="start" x="1281.82" y="-182.5" font-family="Helvetica,sans-Serif" font-size="10.00">+</text>
<text text-anchor="start" x="1291.82" y="-182.5" font-family="Helvetica,sans-Serif" font-size="10.00">void resetBoardLabels()</text>
<text text-anchor="start" x="1281.82" y="-166.5" font-family="Helvetica,sans-Serif" font-size="10.00">+</text>
<text text-anchor="start" x="1291.82" y="-166.5" font-family="Helvetica,sans-Serif" font-size="10.00">void setStatusText(String strText)</text>
<text text-anchor="start" x="1281.82" y="-150.5" font-family="Helvetica,sans-Serif" font-size="10.00">+</text>
<text text-anchor="start" x="1291.82" y="-150.5" font-family="Helvetica,sans-Serif" font-size="10.00">void addMouseListener(MouseAdapter mouseAdapter)</text>
<text text-anchor="start" x="1281.82" y="-134.5" font-family="Helvetica,sans-Serif" font-size="10.00">+</text>
<text text-anchor="start" x="1291.82" y="-134.5" font-family="Helvetica,sans-Serif" font-size="10.00">void setController(TicTacToeController controller)</text>
<text text-anchor="start" x="1281.82" y="-118.5" font-family="Helvetica,sans-Serif" font-size="10.00">+</text>
<text text-anchor="start" x="1291.82" y="-118.5" font-family="Helvetica,sans-Serif" font-size="10.00">JComponent getMainPanel()</text>
<text text-anchor="start" x="1281.82" y="-102.5" font-family="Helvetica,sans-Serif" font-size="10.00">+</text>
<text text-anchor="start" x="1291.82" y="-102.5" font-family="Helvetica,sans-Serif" font-size="10.00">JLabel[][] getBoardLabels()</text>
<text text-anchor="start" x="1281.82" y="-86.5" font-family="Helvetica,sans-Serif" font-size="10.00">+</text>
<text text-anchor="start" x="1291.82" y="-86.5" font-family="Helvetica,sans-Serif" font-size="10.00">void setBoardIcon(int row, int col, TttPlayerOwner playerOwner)</text>
<text text-anchor="start" x="1281.82" y="-70.5" font-family="Helvetica,sans-Serif" font-size="10.00">+</text>
<text text-anchor="start" x="1291.82" y="-70.5" font-family="Helvetica,sans-Serif" font-size="10.00">void setWinner(int aWinner, int type, int index)</text>
<text text-anchor="start" x="1283.32" y="-54.5" font-family="Helvetica,sans-Serif" font-size="10.00">&#45;</text>
<text text-anchor="start" x="1291.82" y="-54.5" font-family="Helvetica,sans-Serif" font-size="10.00">void initIconMap(String strPathToImg)</text>
<text text-anchor="start" x="1283.32" y="-38.5" font-family="Helvetica,sans-Serif" font-size="10.00">&#45;</text>
<text text-anchor="start" x="1291.82" y="-38.5" font-family="Helvetica,sans-Serif" font-size="10.00">void initComponents()</text>
<text text-anchor="start" x="1283.32" y="-22.5" font-family="Helvetica,sans-Serif" font-size="10.00">&#45;</text>
<text text-anchor="start" x="1291.82" y="-22.5" font-family="Helvetica,sans-Serif" font-size="10.00">static Icon createEmptyIcon(Icon icon)</text>
<text text-anchor="start" x="1283.32" y="-6.5" font-family="Helvetica,sans-Serif" font-size="10.00">&#45;</text>
<text text-anchor="start" x="1291.82" y="-6.5" font-family="Helvetica,sans-Serif" font-size="10.00">static Icon[] splitImg(BufferedImage img)</text>
<polygon fill="#666666" stroke="#666666" points="1277.82,-226 1277.82,-226 1572.57,-226 1572.57,-226 1277.82,-226"/>
<polygon fill="#666666" stroke="#666666" points="1277.82,-210 1277.82,-210 1572.57,-210 1572.57,-210 1277.82,-210"/>
<polygon fill="none" stroke="#666666" points="1277.82,0 1277.82,-244 1572.57,-244 1572.57,0 1277.82,0"/>
</a>
</g>
</g>
<!-- Node2 -->
<g id="Node000002" class="node">
<title>Node2</title>
<g id="a_Node000002"><a xlink:title=" ">
<polygon fill="white" stroke="none" points="1087.94,-898 1006.44,-898 1006.44,-846 1087.94,-846 1087.94,-898"/>
<text text-anchor="start" x="1010.44" y="-884.5" font-family="Helvetica,sans-Serif" font-size="10.00">static final String</text>
<text text-anchor="start" x="1045.69" y="-868.5" font-family="Helvetica,sans-Serif" font-size="10.00"> </text>
<text text-anchor="start" x="1045.69" y="-852.5" font-family="Helvetica,sans-Serif" font-size="10.00"> </text>
<polygon fill="#666666" stroke="#666666" points="1006.44,-880 1006.44,-880 1087.94,-880 1087.94,-880 1006.44,-880"/>
<polygon fill="#666666" stroke="#666666" points="1006.44,-864 1006.44,-864 1087.94,-864 1087.94,-864 1006.44,-864"/>
<polygon fill="none" stroke="#666666" points="1006.44,-846 1006.44,-898 1087.94,-898 1087.94,-846 1006.44,-846"/>
</a>
</g>
</g>
<!-- Node2&#45;&gt;Node1 -->
<g id="edge1_Node000001_Node000002" class="edge">
<title>Node2&#45;&gt;Node1</title>
<g id="a_edge1_Node000001_Node000002"><a xlink:title=" ">
<path fill="none" stroke="#63b8ff" d="M1087.65,-851.92C1187.96,-802.05 1447.06,-656.87 1544.19,-446 1578.47,-371.59 1567.68,-336.31 1533.19,-262 1532.13,-259.71 1531.03,-257.43 1529.88,-255.15"/>
<polygon fill="none" stroke="#63b8ff" points="1529.91,-255.2 1523.56,-251.78 1524.27,-244.61 1530.62,-248.02 1529.91,-255.2"/>
</a>
</g>
<text text-anchor="start" x="1538.38" y="-469.5" font-family="Helvetica,sans-Serif" font-size="10.00" fill="grey">&#45;PATH_TO_IMG</text>
</g>
<!-- Node10 -->
<g id="Node000010" class="node">
<title>Node10</title>
<g id="a_Node000010"><a xlink:href="classsrc_1_1main_1_1java_1_1_tic_tac_toe_model.html" target="_top" xlink:title=" ">
<polygon fill="white" stroke="none" points="799.07,-728 477.32,-728 477.32,-500 799.07,-500 799.07,-728"/>
<text text-anchor="start" x="571.82" y="-714.5" font-family="Helvetica,sans-Serif" font-size="10.00">src.main.java.TicTacToeModel</text>
<text text-anchor="start" x="636.69" y="-698.5" font-family="Helvetica,sans-Serif" font-size="10.00"> </text>
<text text-anchor="start" x="481.32" y="-682.5" font-family="Helvetica,sans-Serif" font-size="10.00">+</text>
<text text-anchor="start" x="491.32" y="-682.5" font-family="Helvetica,sans-Serif" font-size="10.00">TicTacToeModel()</text>
<text text-anchor="start" x="481.32" y="-666.5" font-family="Helvetica,sans-Serif" font-size="10.00">+</text>
<text text-anchor="start" x="491.32" y="-666.5" font-family="Helvetica,sans-Serif" font-size="10.00">TicTacToeBoard getGameBoard()</text>
<text text-anchor="start" x="481.32" y="-650.5" font-family="Helvetica,sans-Serif" font-size="10.00">+</text>
<text text-anchor="start" x="491.32" y="-650.5" font-family="Helvetica,sans-Serif" font-size="10.00">boolean isGameOver()</text>
<text text-anchor="start" x="481.32" y="-634.5" font-family="Helvetica,sans-Serif" font-size="10.00">+</text>
<text text-anchor="start" x="491.32" y="-634.5" font-family="Helvetica,sans-Serif" font-size="10.00">int getBoardWinType()</text>
<text text-anchor="start" x="481.32" y="-618.5" font-family="Helvetica,sans-Serif" font-size="10.00">+</text>
<text text-anchor="start" x="491.32" y="-618.5" font-family="Helvetica,sans-Serif" font-size="10.00">int getBoardWinIndex()</text>
<text text-anchor="start" x="481.32" y="-602.5" font-family="Helvetica,sans-Serif" font-size="10.00">+</text>
<text text-anchor="start" x="491.32" y="-602.5" font-family="Helvetica,sans-Serif" font-size="10.00">void updateBoard(int row, int col, TttPlayerOwner playerOwner)</text>
<text text-anchor="start" x="481.32" y="-586.5" font-family="Helvetica,sans-Serif" font-size="10.00">+</text>
<text text-anchor="start" x="491.32" y="-586.5" font-family="Helvetica,sans-Serif" font-size="10.00">void clearBoard()</text>
<text text-anchor="start" x="481.32" y="-570.5" font-family="Helvetica,sans-Serif" font-size="10.00">+</text>
<text text-anchor="start" x="491.32" y="-570.5" font-family="Helvetica,sans-Serif" font-size="10.00">void onBoardClick(int row, int col)</text>
<text text-anchor="start" x="481.32" y="-554.5" font-family="Helvetica,sans-Serif" font-size="10.00">+</text>
<text text-anchor="start" x="491.32" y="-554.5" font-family="Helvetica,sans-Serif" font-size="10.00">boolean isBoardFull()</text>
<text text-anchor="start" x="481.32" y="-538.5" font-family="Helvetica,sans-Serif" font-size="10.00">+</text>
<text text-anchor="start" x="491.32" y="-538.5" font-family="Helvetica,sans-Serif" font-size="10.00">void addPropertyChangeListener(PropertyChangeListener listener)</text>
<text text-anchor="start" x="481.32" y="-522.5" font-family="Helvetica,sans-Serif" font-size="10.00">+</text>
<text text-anchor="start" x="491.32" y="-522.5" font-family="Helvetica,sans-Serif" font-size="10.00">void removePropertyChangeListener(PropertyChangeListener listener)</text>
<text text-anchor="start" x="482.82" y="-506.5" font-family="Helvetica,sans-Serif" font-size="10.00">&#45;</text>
<text text-anchor="start" x="491.32" y="-506.5" font-family="Helvetica,sans-Serif" font-size="10.00">void switchPlayer()</text>
<polygon fill="#666666" stroke="#666666" points="477.32,-710 477.32,-710 799.07,-710 799.07,-710 477.32,-710"/>
<polygon fill="#666666" stroke="#666666" points="477.32,-694 477.32,-694 799.07,-694 799.07,-694 477.32,-694"/>
<polygon fill="none" stroke="#666666" points="477.32,-500 477.32,-728 799.07,-728 799.07,-500 477.32,-500"/>
</a>
</g>
</g>
<!-- Node2&#45;&gt;Node10 -->
<g id="edge11_Node000010_Node000002" class="edge">
<title>Node2&#45;&gt;Node10</title>
<g id="a_edge11_Node000010_Node000002"><a xlink:title=" ">
<path fill="none" stroke="#63b8ff" d="M1006.67,-847.54C961.08,-820.98 884.69,-775.95 809.72,-728.92"/>
<polygon fill="none" stroke="#63b8ff" points="809.6,-728.84 802.39,-729.03 799.44,-722.45 806.65,-722.26 809.6,-728.84"/>
</a>
</g>
<text text-anchor="start" x="863.05" y="-751.5" font-family="Helvetica,sans-Serif" font-size="10.00" fill="grey">+BOARD_UPDATE_PROP_NAME</text>
</g>
<!-- Node16 -->
<g id="Node000016" class="node">
<title>Node16</title>
<g id="a_Node000016"><a xlink:href="classsrc_1_1main_1_1java_1_1_tic_tac_toe_view.html" target="_top" xlink:title=" ">
<polygon fill="white" stroke="none" points="1093.57,-244 798.82,-244 798.82,0 1093.57,0 1093.57,-244"/>
<text text-anchor="start" x="882.07" y="-230.5" font-family="Helvetica,sans-Serif" font-size="10.00">src.main.java.TicTacToeView</text>
<text text-anchor="start" x="944.69" y="-214.5" font-family="Helvetica,sans-Serif" font-size="10.00"> </text>
<text text-anchor="start" x="802.82" y="-198.5" font-family="Helvetica,sans-Serif" font-size="10.00">+</text>
<text text-anchor="start" x="812.82" y="-198.5" font-family="Helvetica,sans-Serif" font-size="10.00">TicTacToeView()</text>
<text text-anchor="start" x="802.82" y="-182.5" font-family="Helvetica,sans-Serif" font-size="10.00">+</text>
<text text-anchor="start" x="812.82" y="-182.5" font-family="Helvetica,sans-Serif" font-size="10.00">void resetBoardLabels()</text>
<text text-anchor="start" x="802.82" y="-166.5" font-family="Helvetica,sans-Serif" font-size="10.00">+</text>
<text text-anchor="start" x="812.82" y="-166.5" font-family="Helvetica,sans-Serif" font-size="10.00">void setStatusText(String strText)</text>
<text text-anchor="start" x="802.82" y="-150.5" font-family="Helvetica,sans-Serif" font-size="10.00">+</text>
<text text-anchor="start" x="812.82" y="-150.5" font-family="Helvetica,sans-Serif" font-size="10.00">void addMouseListener(MouseAdapter mouseAdapter)</text>
<text text-anchor="start" x="802.82" y="-134.5" font-family="Helvetica,sans-Serif" font-size="10.00">+</text>
<text text-anchor="start" x="812.82" y="-134.5" font-family="Helvetica,sans-Serif" font-size="10.00">void setController(TicTacToeController controller)</text>
<text text-anchor="start" x="802.82" y="-118.5" font-family="Helvetica,sans-Serif" font-size="10.00">+</text>
<text text-anchor="start" x="812.82" y="-118.5" font-family="Helvetica,sans-Serif" font-size="10.00">JComponent getMainPanel()</text>
<text text-anchor="start" x="802.82" y="-102.5" font-family="Helvetica,sans-Serif" font-size="10.00">+</text>
<text text-anchor="start" x="812.82" y="-102.5" font-family="Helvetica,sans-Serif" font-size="10.00">JLabel[][] getBoardLabels()</text>
<text text-anchor="start" x="802.82" y="-86.5" font-family="Helvetica,sans-Serif" font-size="10.00">+</text>
<text text-anchor="start" x="812.82" y="-86.5" font-family="Helvetica,sans-Serif" font-size="10.00">void setBoardIcon(int row, int col, TttPlayerOwner playerOwner)</text>
<text text-anchor="start" x="802.82" y="-70.5" font-family="Helvetica,sans-Serif" font-size="10.00">+</text>
<text text-anchor="start" x="812.82" y="-70.5" font-family="Helvetica,sans-Serif" font-size="10.00">void setWinner(int aWinner, int type, int index)</text>
<text text-anchor="start" x="804.32" y="-54.5" font-family="Helvetica,sans-Serif" font-size="10.00">&#45;</text>
<text text-anchor="start" x="812.82" y="-54.5" font-family="Helvetica,sans-Serif" font-size="10.00">void initIconMap(String strPathToImg)</text>
<text text-anchor="start" x="804.32" y="-38.5" font-family="Helvetica,sans-Serif" font-size="10.00">&#45;</text>
<text text-anchor="start" x="812.82" y="-38.5" font-family="Helvetica,sans-Serif" font-size="10.00">void initComponents()</text>
<text text-anchor="start" x="804.32" y="-22.5" font-family="Helvetica,sans-Serif" font-size="10.00">&#45;</text>
<text text-anchor="start" x="812.82" y="-22.5" font-family="Helvetica,sans-Serif" font-size="10.00">static Icon createEmptyIcon(Icon icon)</text>
<text text-anchor="start" x="804.32" y="-6.5" font-family="Helvetica,sans-Serif" font-size="10.00">&#45;</text>
<text text-anchor="start" x="812.82" y="-6.5" font-family="Helvetica,sans-Serif" font-size="10.00">static Icon[] splitImg(BufferedImage img)</text>
<polygon fill="#666666" stroke="#666666" points="798.82,-226 798.82,-226 1093.57,-226 1093.57,-226 798.82,-226"/>
<polygon fill="#666666" stroke="#666666" points="798.82,-210 798.82,-210 1093.57,-210 1093.57,-210 798.82,-210"/>
<polygon fill="none" stroke="#666666" points="798.82,0 798.82,-244 1093.57,-244 1093.57,0 798.82,0"/>
</a>
</g>
</g>
<!-- Node2&#45;&gt;Node16 -->
<g id="edge20_Node000016_Node000002" class="edge">
<title>Node2&#45;&gt;Node16</title>
<g id="a_edge20_Node000016_Node000002"><a xlink:title=" ">
<path fill="none" stroke="#63b8ff" d="M1055.58,-846.13C1082.61,-760.95 1158.33,-477.23 1028.19,-314 1008.71,-289.55 980.25,-319.98 960.19,-296 950.45,-284.35 944.01,-270.59 939.93,-255.99"/>
<polygon fill="none" stroke="#63b8ff" points="939.96,-256.12 934.71,-251.18 937.25,-244.44 942.5,-249.38 939.96,-256.12"/>
</a>
</g>
<text text-anchor="start" x="1098.88" y="-469.5" font-family="Helvetica,sans-Serif" font-size="10.00" fill="grey">&#45;PATH_TO_IMG</text>
</g>
<!-- Node3 -->
<g id="Node000003" class="node">
<title>Node3</title>
<g id="a_Node000003"><a xlink:title=" ">
<polygon fill="white" stroke="none" points="572.44,-1148 553.94,-1148 553.94,-1096 572.44,-1096 572.44,-1148"/>
<text text-anchor="start" x="557.94" y="-1134.5" font-family="Helvetica,sans-Serif" font-size="10.00">int</text>
<text text-anchor="start" x="561.69" y="-1118.5" font-family="Helvetica,sans-Serif" font-size="10.00"> </text>
<text text-anchor="start" x="561.69" y="-1102.5" font-family="Helvetica,sans-Serif" font-size="10.00"> </text>
<polygon fill="#666666" stroke="#666666" points="553.94,-1130 553.94,-1130 572.44,-1130 572.44,-1130 553.94,-1130"/>
<polygon fill="#666666" stroke="#666666" points="553.94,-1114 553.94,-1114 572.44,-1114 572.44,-1114 553.94,-1114"/>
<polygon fill="none" stroke="#666666" points="553.94,-1096 553.94,-1148 572.44,-1148 572.44,-1096 553.94,-1096"/>
</a>
</g>
</g>
<!-- Node3&#45;&gt;Node1 -->
<g id="edge2_Node000001_Node000003" class="edge">
<title>Node3&#45;&gt;Node1</title>
<g id="a_edge2_Node000001_Node000003"><a xlink:title=" ">
<path fill="none" stroke="#63b8ff" d="M572.31,-1120.97C677.35,-1120.37 1655.19,-1108.48 1655.19,-873 1655.19,-873 1655.19,-873 1655.19,-379 1655.19,-321.37 1622.54,-270.83 1581.85,-230.21"/>
<polygon fill="none" stroke="#63b8ff" points="1581.76,-230.13 1574.67,-228.84 1573.13,-221.79 1580.23,-223.08 1581.76,-230.13"/>
</a>
</g>
<text text-anchor="start" x="1658.19" y="-634.5" font-family="Helvetica,sans-Serif" font-size="10.00" fill="grey">&#45;LINE_WIDTH</text>
<text text-anchor="start" x="1658.19" y="-618.5" font-family="Helvetica,sans-Serif" font-size="10.00" fill="grey">&#45;winIndex</text>
<text text-anchor="start" x="1658.19" y="-602.5" font-family="Helvetica,sans-Serif" font-size="10.00" fill="grey">&#45;winType</text>
<text text-anchor="start" x="1658.19" y="-586.5" font-family="Helvetica,sans-Serif" font-size="10.00" fill="grey">&#45;winner</text>
</g>
<!-- Node3&#45;&gt;Node10 -->
<g id="edge10_Node000010_Node000003" class="edge">
<title>Node3&#45;&gt;Node10</title>
<g id="a_edge10_Node000010_Node000003"><a xlink:title=" ">
<path fill="none" stroke="#63b8ff" d="M572.24,-1110.24C592.4,-1085.67 641.22,-1022.85 666.19,-962 700.32,-878.86 698.04,-853.4 707.19,-764 708,-756.18 707.82,-748.33 706.88,-740.52"/>
<polygon fill="none" stroke="#63b8ff" points="706.9,-740.61 701.93,-735.38 704.85,-728.78 709.81,-734.01 706.9,-740.61"/>
</a>
</g>
<text text-anchor="start" x="708.24" y="-868.5" font-family="Helvetica,sans-Serif" font-size="10.00" fill="grey">+BOARD_SIZE</text>
</g>
<!-- Node12 -->
<g id="Node000012" class="node">
<title>Node12</title>
<g id="a_Node000012"><a xlink:href="classsrc_1_1main_1_1java_1_1_tic_tac_toe_board.html" target="_top" xlink:title=" ">
<polygon fill="white" stroke="none" points="378.32,-962 112.07,-962 112.07,-782 378.32,-782 378.32,-962"/>
<text text-anchor="start" x="179.19" y="-948.5" font-family="Helvetica,sans-Serif" font-size="10.00">src.main.java.TicTacToeBoard</text>
<text text-anchor="start" x="243.69" y="-932.5" font-family="Helvetica,sans-Serif" font-size="10.00"> </text>
<text text-anchor="start" x="116.07" y="-916.5" font-family="Helvetica,sans-Serif" font-size="10.00">+</text>
<text text-anchor="start" x="126.07" y="-916.5" font-family="Helvetica,sans-Serif" font-size="10.00">TicTacToeBoard()</text>
<text text-anchor="start" x="116.07" y="-900.5" font-family="Helvetica,sans-Serif" font-size="10.00">+</text>
<text text-anchor="start" x="126.07" y="-900.5" font-family="Helvetica,sans-Serif" font-size="10.00">int getWinner()</text>
<text text-anchor="start" x="116.07" y="-884.5" font-family="Helvetica,sans-Serif" font-size="10.00">+</text>
<text text-anchor="start" x="126.07" y="-884.5" font-family="Helvetica,sans-Serif" font-size="10.00">int getWinType()</text>
<text text-anchor="start" x="116.07" y="-868.5" font-family="Helvetica,sans-Serif" font-size="10.00">+</text>
<text text-anchor="start" x="126.07" y="-868.5" font-family="Helvetica,sans-Serif" font-size="10.00">int getWinIndex()</text>
<text text-anchor="start" x="116.07" y="-852.5" font-family="Helvetica,sans-Serif" font-size="10.00">+</text>
<text text-anchor="start" x="126.07" y="-852.5" font-family="Helvetica,sans-Serif" font-size="10.00">void clear()</text>
<text text-anchor="start" x="116.07" y="-836.5" font-family="Helvetica,sans-Serif" font-size="10.00">+</text>
<text text-anchor="start" x="126.07" y="-836.5" font-family="Helvetica,sans-Serif" font-size="10.00">void update(int row, int col, TttPlayerOwner playerOwner)</text>
<text text-anchor="start" x="116.07" y="-820.5" font-family="Helvetica,sans-Serif" font-size="10.00">+</text>
<text text-anchor="start" x="126.07" y="-820.5" font-family="Helvetica,sans-Serif" font-size="10.00">boolean isFull()</text>
<text text-anchor="start" x="116.07" y="-804.5" font-family="Helvetica,sans-Serif" font-size="10.00">+</text>
<text text-anchor="start" x="126.07" y="-804.5" font-family="Helvetica,sans-Serif" font-size="10.00">int checkForWinner()</text>
<text text-anchor="start" x="116.07" y="-788.5" font-family="Helvetica,sans-Serif" font-size="10.00">~</text>
<text text-anchor="start" x="126.07" y="-788.5" font-family="Helvetica,sans-Serif" font-size="10.00">TttPlayerOwner getPlayerOwner(int row, int col)</text>
<polygon fill="#666666" stroke="#666666" points="112.07,-944 112.07,-944 378.32,-944 378.32,-944 112.07,-944"/>
<polygon fill="#666666" stroke="#666666" points="112.07,-928 112.07,-928 378.32,-928 378.32,-928 112.07,-928"/>
<polygon fill="none" stroke="#666666" points="112.07,-782 112.07,-962 378.32,-962 378.32,-782 112.07,-782"/>
</a>
</g>
</g>
<!-- Node3&#45;&gt;Node12 -->
<g id="edge16_Node000012_Node000003" class="edge">
<title>Node3&#45;&gt;Node12</title>
<g id="a_edge16_Node000012_Node000003"><a xlink:title=" ">
<path fill="none" stroke="#63b8ff" d="M554.18,-1121.48C521.12,-1122.71 405.2,-1122.39 344.19,-1062 317.29,-1035.37 337.51,-1014.16 321.19,-980 320.11,-977.73 318.97,-975.45 317.8,-973.17"/>
<polygon fill="none" stroke="#63b8ff" points="317.78,-973.14 311.4,-969.79 312.03,-962.61 318.42,-965.96 317.78,-973.14"/>
</a>
</g>
<text text-anchor="start" x="347.19" y="-1033.5" font-family="Helvetica,sans-Serif" font-size="10.00" fill="grey">&#45;winIndex</text>
<text text-anchor="start" x="347.19" y="-1017.5" font-family="Helvetica,sans-Serif" font-size="10.00" fill="grey">&#45;winType</text>
<text text-anchor="start" x="347.19" y="-1001.5" font-family="Helvetica,sans-Serif" font-size="10.00" fill="grey">&#45;winner</text>
</g>
<!-- Node3&#45;&gt;Node16 -->
<g id="edge21_Node000016_Node000003" class="edge">
<title>Node3&#45;&gt;Node16</title>
<g id="a_edge21_Node000016_Node000003"><a xlink:title=" ">
<path fill="none" stroke="#63b8ff" d="M553.95,-1113.59C528.75,-1092.79 458.69,-1030.87 428.19,-962 407.37,-914.96 373.74,-545.53 397.69,-500 479.16,-345.15 656.17,-241.58 787.18,-182.81"/>
<polygon fill="none" stroke="#63b8ff" points="787.12,-182.84 790.99,-176.75 798.09,-177.97 794.23,-184.06 787.12,-182.84"/>
</a>
</g>
<text text-anchor="start" x="400.69" y="-634.5" font-family="Helvetica,sans-Serif" font-size="10.00" fill="grey">&#45;LINE_WIDTH</text>
<text text-anchor="start" x="400.69" y="-618.5" font-family="Helvetica,sans-Serif" font-size="10.00" fill="grey">&#45;winIndex</text>
<text text-anchor="start" x="400.69" y="-602.5" font-family="Helvetica,sans-Serif" font-size="10.00" fill="grey">&#45;winType</text>
<text text-anchor="start" x="400.69" y="-586.5" font-family="Helvetica,sans-Serif" font-size="10.00" fill="grey">&#45;winner</text>
</g>
<!-- Node4 -->
<g id="Node000004" class="node">
<title>Node4</title>
<g id="a_Node000004"><a xlink:title=" ">
<polygon fill="white" stroke="none" points="1205.19,-406 1167.19,-406 1167.19,-354 1205.19,-354 1205.19,-406"/>
<text text-anchor="start" x="1171.19" y="-392.5" font-family="Helvetica,sans-Serif" font-size="10.00">JPanel</text>
<text text-anchor="start" x="1184.69" y="-376.5" font-family="Helvetica,sans-Serif" font-size="10.00"> </text>
<text text-anchor="start" x="1184.69" y="-360.5" font-family="Helvetica,sans-Serif" font-size="10.00"> </text>
<polygon fill="#666666" stroke="#666666" points="1167.19,-388 1167.19,-388 1205.19,-388 1205.19,-388 1167.19,-388"/>
<polygon fill="#666666" stroke="#666666" points="1167.19,-372 1167.19,-372 1205.19,-372 1205.19,-372 1167.19,-372"/>
<polygon fill="none" stroke="#666666" points="1167.19,-354 1167.19,-406 1205.19,-406 1205.19,-354 1167.19,-354"/>
</a>
</g>
</g>
<!-- Node4&#45;&gt;Node1 -->
<g id="edge3_Node000001_Node000004" class="edge">
<title>Node4&#45;&gt;Node1</title>
<g id="a_edge3_Node000001_Node000004"><a xlink:title=" ">
<path fill="none" stroke="#63b8ff" d="M1195.35,-354.33C1205.43,-329.3 1223.38,-290.33 1246.94,-262 1253.71,-253.87 1261.02,-245.91 1268.7,-238.17"/>
<polygon fill="none" stroke="#63b8ff" points="1268.64,-238.22 1270.13,-231.17 1277.22,-229.83 1275.73,-236.88 1268.64,-238.22"/>
</a>
</g>
<text text-anchor="start" x="1249.94" y="-283.5" font-family="Helvetica,sans-Serif" font-size="10.00" fill="grey">&#45;gameBoardPanel</text>
<text text-anchor="start" x="1249.94" y="-267.5" font-family="Helvetica,sans-Serif" font-size="10.00" fill="grey">&#45;mainPanel</text>
</g>
<!-- Node4&#45;&gt;Node16 -->
<g id="edge22_Node000016_Node000004" class="edge">
<title>Node4&#45;&gt;Node16</title>
<g id="a_edge22_Node000016_Node000004"><a xlink:title=" ">
<path fill="none" stroke="#63b8ff" d="M1167.39,-370.86C1139.55,-358.09 1086.93,-331.16 1051.94,-296 1049.55,-293.59 1038.96,-276.88 1025.35,-254.71"/>
<polygon fill="none" stroke="#63b8ff" points="1025.41,-254.81 1018.87,-251.78 1019.15,-244.58 1025.69,-247.61 1025.41,-254.81"/>
</a>
</g>
<text text-anchor="start" x="1054.94" y="-283.5" font-family="Helvetica,sans-Serif" font-size="10.00" fill="grey">&#45;gameBoardPanel</text>
<text text-anchor="start" x="1054.94" y="-267.5" font-family="Helvetica,sans-Serif" font-size="10.00" fill="grey">&#45;mainPanel</text>
</g>
<!-- Node5 -->
<g id="Node000005" class="node">
<title>Node5</title>
<g id="a_Node000005"><a xlink:title=" ">
<polygon fill="white" stroke="none" points="1316.44,-406 1279.94,-406 1279.94,-354 1316.44,-354 1316.44,-406"/>
<text text-anchor="start" x="1283.94" y="-392.5" font-family="Helvetica,sans-Serif" font-size="10.00">JLabel</text>
<text text-anchor="start" x="1296.69" y="-376.5" font-family="Helvetica,sans-Serif" font-size="10.00"> </text>
<text text-anchor="start" x="1296.69" y="-360.5" font-family="Helvetica,sans-Serif" font-size="10.00"> </text>
<polygon fill="#666666" stroke="#666666" points="1279.94,-388 1279.94,-388 1316.44,-388 1316.44,-388 1279.94,-388"/>
<polygon fill="#666666" stroke="#666666" points="1279.94,-372 1279.94,-372 1316.44,-372 1316.44,-372 1279.94,-372"/>
<polygon fill="none" stroke="#666666" points="1279.94,-354 1279.94,-406 1316.44,-406 1316.44,-354 1279.94,-354"/>
</a>
</g>
</g>
<!-- Node5&#45;&gt;Node1 -->
<g id="edge4_Node000001_Node000005" class="edge">
<title>Node5&#45;&gt;Node1</title>
<g id="a_edge4_Node000001_Node000005"><a xlink:title=" ">
<path fill="none" stroke="#63b8ff" d="M1308.73,-354.26C1313.93,-342.11 1320.34,-327.26 1326.19,-314 1336.43,-290.8 1338.41,-284.71 1349.69,-262 1350.82,-259.74 1351.96,-257.46 1353.11,-255.17"/>
<polygon fill="none" stroke="#63b8ff" points="1353.13,-255.14 1352.28,-247.98 1358.57,-244.44 1359.41,-251.61 1353.13,-255.14"/>
</a>
</g>
<text text-anchor="start" x="1352.69" y="-283.5" font-family="Helvetica,sans-Serif" font-size="10.00" fill="grey">&#45;boardLabels</text>
<text text-anchor="start" x="1352.69" y="-267.5" font-family="Helvetica,sans-Serif" font-size="10.00" fill="grey">&#45;statusLabel</text>
</g>
<!-- Node5&#45;&gt;Node16 -->
<g id="edge23_Node000016_Node000005" class="edge">
<title>Node5&#45;&gt;Node16</title>
<g id="a_edge23_Node000016_Node000005"><a xlink:title=" ">
<path fill="none" stroke="#63b8ff" d="M1280.14,-362.02C1263.94,-347.55 1238.98,-327.09 1214.19,-314 1191.27,-301.89 1179.5,-311.48 1158.69,-296 1143.96,-285.03 1147.99,-275.18 1135.19,-262 1125.11,-251.61 1114.18,-241.43 1102.83,-231.6"/>
<polygon fill="none" stroke="#63b8ff" points="1103.05,-231.78 1095.88,-230.94 1093.9,-224 1101.07,-224.84 1103.05,-231.78"/>
</a>
</g>
<text text-anchor="start" x="1161.69" y="-283.5" font-family="Helvetica,sans-Serif" font-size="10.00" fill="grey">&#45;boardLabels</text>
<text text-anchor="start" x="1161.69" y="-267.5" font-family="Helvetica,sans-Serif" font-size="10.00" fill="grey">&#45;statusLabel</text>
</g>
<!-- Node6 -->
<g id="Node000006" class="node">
<title>Node6</title>
<g id="a_Node000006"><a xlink:title=" ">
<polygon fill="white" stroke="none" points="1534.82,-406 1335.57,-406 1335.57,-354 1534.82,-354 1534.82,-406"/>
<text text-anchor="start" x="1339.57" y="-392.5" font-family="Helvetica,sans-Serif" font-size="10.00">Map&lt; src.main.java.TttPlayerOwner, Icon &gt;</text>
<text text-anchor="start" x="1433.69" y="-376.5" font-family="Helvetica,sans-Serif" font-size="10.00"> </text>
<text text-anchor="start" x="1433.69" y="-360.5" font-family="Helvetica,sans-Serif" font-size="10.00"> </text>
<polygon fill="#666666" stroke="#666666" points="1335.57,-388 1335.57,-388 1534.82,-388 1534.82,-388 1335.57,-388"/>
<polygon fill="#666666" stroke="#666666" points="1335.57,-372 1335.57,-372 1534.82,-372 1534.82,-372 1335.57,-372"/>
<polygon fill="none" stroke="#666666" points="1335.57,-354 1335.57,-406 1534.82,-406 1534.82,-354 1335.57,-354"/>
</a>
</g>
</g>
<!-- Node6&#45;&gt;Node1 -->
<g id="edge5_Node000001_Node000006" class="edge">
<title>Node6&#45;&gt;Node1</title>
<g id="a_edge5_Node000001_Node000006"><a xlink:title=" ">
<path fill="none" stroke="#63b8ff" d="M1452.9,-354.21C1463.08,-338.38 1474.87,-316.97 1480.19,-296 1483.45,-283.15 1484.16,-269.86 1483.06,-256.61"/>
<polygon fill="none" stroke="#63b8ff" points="1483.07,-256.73 1478.36,-251.28 1481.59,-244.83 1486.3,-250.28 1483.07,-256.73"/>
</a>
</g>
<text text-anchor="start" x="1486.54" y="-275.5" font-family="Helvetica,sans-Serif" font-size="10.00" fill="grey">&#45;iconMap</text>
</g>
<!-- Node6&#45;&gt;Node16 -->
<g id="edge24_Node000016_Node000006" class="edge">
<title>Node6&#45;&gt;Node16</title>
<g id="a_edge24_Node000016_Node000006"><a xlink:title=" ">
<path fill="none" stroke="#63b8ff" d="M1433.43,-354.19C1430.72,-323.62 1424.39,-274.23 1411.19,-262 1387.86,-240.38 1300.07,-251.63 1269.19,-244 1214.72,-230.54 1156.85,-210.72 1105.37,-191"/>
<polygon fill="none" stroke="#63b8ff" points="1105.5,-191.05 1098.46,-192.62 1094.3,-186.73 1101.34,-185.16 1105.5,-191.05"/>
</a>
</g>
<text text-anchor="start" x="1427.96" y="-275.5" font-family="Helvetica,sans-Serif" font-size="10.00" fill="grey">&#45;iconMap</text>
</g>
<!-- Node7 -->
<g id="Node000007" class="node">
<title>Node7</title>
<g id="a_Node000007"><a xlink:href="classsrc_1_1main_1_1java_1_1_tic_tac_toe_controller.html" target="_top" xlink:title=" ">
<polygon fill="white" stroke="none" points="1019.57,-446 712.82,-446 712.82,-314 1019.57,-314 1019.57,-446"/>
<text text-anchor="start" x="791.94" y="-432.5" font-family="Helvetica,sans-Serif" font-size="10.00">src.main.java.TicTacToeController</text>
<text text-anchor="start" x="864.69" y="-416.5" font-family="Helvetica,sans-Serif" font-size="10.00"> </text>
<text text-anchor="start" x="716.82" y="-400.5" font-family="Helvetica,sans-Serif" font-size="10.00">+</text>
<text text-anchor="start" x="726.82" y="-400.5" font-family="Helvetica,sans-Serif" font-size="10.00">TicTacToeController(TicTacToeModel model, TicTacToeView view)</text>
<text text-anchor="start" x="716.82" y="-384.5" font-family="Helvetica,sans-Serif" font-size="10.00">+</text>
<text text-anchor="start" x="726.82" y="-384.5" font-family="Helvetica,sans-Serif" font-size="10.00">void exit(ActionEvent evt)</text>
<text text-anchor="start" x="716.82" y="-368.5" font-family="Helvetica,sans-Serif" font-size="10.00">+</text>
<text text-anchor="start" x="726.82" y="-368.5" font-family="Helvetica,sans-Serif" font-size="10.00">void onBoardClick(int row, int col)</text>
<text text-anchor="start" x="716.82" y="-352.5" font-family="Helvetica,sans-Serif" font-size="10.00">+</text>
<text text-anchor="start" x="726.82" y="-352.5" font-family="Helvetica,sans-Serif" font-size="10.00">void clear()</text>
<text text-anchor="start" x="716.82" y="-336.5" font-family="Helvetica,sans-Serif" font-size="10.00">+</text>
<text text-anchor="start" x="726.82" y="-336.5" font-family="Helvetica,sans-Serif" font-size="10.00">void mousePressed(MouseEvent evt)</text>
<text text-anchor="start" x="716.82" y="-320.5" font-family="Helvetica,sans-Serif" font-size="10.00">+</text>
<text text-anchor="start" x="726.82" y="-320.5" font-family="Helvetica,sans-Serif" font-size="10.00">void propertyChange(PropertyChangeEvent evt)</text>
<polygon fill="#666666" stroke="#666666" points="712.82,-428 712.82,-428 1019.57,-428 1019.57,-428 712.82,-428"/>
<polygon fill="#666666" stroke="#666666" points="712.82,-412 712.82,-412 1019.57,-412 1019.57,-412 712.82,-412"/>
<polygon fill="none" stroke="#666666" points="712.82,-314 712.82,-446 1019.57,-446 1019.57,-314 712.82,-314"/>
</a>
</g>
</g>
<!-- Node7&#45;&gt;Node1 -->
<g id="edge6_Node000001_Node000007" class="edge">
<title>Node7&#45;&gt;Node1</title>
<g id="a_edge6_Node000001_Node000007"><a xlink:title=" ">
<path fill="none" stroke="#63b8ff" d="M921.52,-314.19C942.63,-291.07 964.87,-268.99 978.44,-262 1027.86,-236.57 1048.36,-257.83 1102.19,-244 1156.67,-230.01 1214.66,-209.99 1266.25,-190.26"/>
<polygon fill="none" stroke="#63b8ff" points="1266.14,-190.3 1270.3,-184.4 1277.34,-185.98 1273.18,-191.87 1266.14,-190.3"/>
</a>
</g>
<text text-anchor="start" x="981.44" y="-275.5" font-family="Helvetica,sans-Serif" font-size="10.00" fill="grey">&#45;controller</text>
</g>
<!-- Node7&#45;&gt;Node16 -->
<g id="edge25_Node000016_Node000007" class="edge">
<title>Node7&#45;&gt;Node16</title>
<g id="a_edge25_Node000016_Node000007"><a xlink:title=" ">
<path fill="none" stroke="#63b8ff" d="M840.26,-314.23C836.68,-297.04 835.88,-278.64 841.44,-262 842.15,-259.88 842.91,-257.77 843.71,-255.67"/>
<polygon fill="none" stroke="#63b8ff" points="843.73,-255.61 842.37,-248.53 848.38,-244.55 849.74,-251.63 843.73,-255.61"/>
</a>
</g>
<text text-anchor="start" x="844.44" y="-275.5" font-family="Helvetica,sans-Serif" font-size="10.00" fill="grey">&#45;controller</text>
</g>
<!-- Node8 -->
<g id="Node000008" class="node">
<title>Node8</title>
<g id="a_Node000008"><a xlink:href="class_mouse_adapter.html" target="_top" xlink:title=" ">
<polygon fill="white" stroke="none" points="1018.69,-640 947.69,-640 947.69,-588 1018.69,-588 1018.69,-640"/>
<text text-anchor="start" x="951.69" y="-626.5" font-family="Helvetica,sans-Serif" font-size="10.00">MouseAdapter</text>
<text text-anchor="start" x="981.69" y="-610.5" font-family="Helvetica,sans-Serif" font-size="10.00"> </text>
<text text-anchor="start" x="981.69" y="-594.5" font-family="Helvetica,sans-Serif" font-size="10.00"> </text>
<polygon fill="#666666" stroke="#666666" points="947.69,-622 947.69,-622 1018.69,-622 1018.69,-622 947.69,-622"/>
<polygon fill="#666666" stroke="#666666" points="947.69,-606 947.69,-606 1018.69,-606 1018.69,-606 947.69,-606"/>
<polygon fill="none" stroke="#666666" points="947.69,-588 947.69,-640 1018.69,-640 1018.69,-588 947.69,-588"/>
</a>
</g>
</g>
<!-- Node8&#45;&gt;Node7 -->
<g id="edge7_Node000007_Node000008" class="edge">
<title>Node8&#45;&gt;Node7</title>
<g id="a_edge7_Node000007_Node000008"><a xlink:title=" ">
<path fill="none" stroke="#63b8ff" d="M971.19,-577.41C963.11,-554.8 951.69,-525.17 939.19,-500 930.25,-481.98 919.43,-463.14 908.89,-445.9"/>
<polygon fill="none" stroke="#63b8ff" points="967.86,-578.51 974.48,-586.78 974.47,-576.19 967.86,-578.51"/>
</a>
</g>
</g>
<!-- Node9 -->
<g id="Node000009" class="node">
<title>Node9</title>
<g id="a_Node000009"><a xlink:href="class_property_change_listener.html" target="_top" xlink:title=" ">
<polygon fill="white" stroke="none" points="929.69,-640 816.69,-640 816.69,-588 929.69,-588 929.69,-640"/>
<text text-anchor="start" x="820.69" y="-626.5" font-family="Helvetica,sans-Serif" font-size="10.00">PropertyChangeListener</text>
<text text-anchor="start" x="871.69" y="-610.5" font-family="Helvetica,sans-Serif" font-size="10.00"> </text>
<text text-anchor="start" x="871.69" y="-594.5" font-family="Helvetica,sans-Serif" font-size="10.00"> </text>
<polygon fill="#666666" stroke="#666666" points="816.69,-622 816.69,-622 929.69,-622 929.69,-622 816.69,-622"/>
<polygon fill="#666666" stroke="#666666" points="816.69,-606 816.69,-606 929.69,-606 929.69,-606 816.69,-606"/>
<polygon fill="none" stroke="#666666" points="816.69,-588 816.69,-640 929.69,-640 929.69,-588 816.69,-588"/>
</a>
</g>
</g>
<!-- Node9&#45;&gt;Node7 -->
<g id="edge8_Node000007_Node000009" class="edge">
<title>Node9&#45;&gt;Node7</title>
<g id="a_edge8_Node000007_Node000009"><a xlink:title=" ">
<path fill="none" stroke="#63b8ff" d="M872.11,-577.1C871.06,-542.19 869.43,-488.37 868.15,-445.93"/>
<polygon fill="none" stroke="#63b8ff" points="868.6,-576.77 872.4,-586.66 875.6,-576.56 868.6,-576.77"/>
</a>
</g>
</g>
<!-- Node10&#45;&gt;Node7 -->
<g id="edge9_Node000007_Node000010" class="edge">
<title>Node10&#45;&gt;Node7</title>
<g id="a_edge9_Node000007_Node000010"><a xlink:title=" ">
<path fill="none" stroke="#63b8ff" d="M749.19,-500.06C764.15,-484.84 779.17,-469.55 793.24,-455.24"/>
<polygon fill="none" stroke="#63b8ff" points="793.29,-455.19 794.64,-448.1 801.7,-446.63 800.34,-453.71 793.29,-455.19"/>
</a>
</g>
<text text-anchor="start" x="782.32" y="-469.5" font-family="Helvetica,sans-Serif" font-size="10.00" fill="grey">&#45;model</text>
</g>
<!-- Node11 -->
<g id="Node000011" class="node">
<title>Node11</title>
<g id="a_Node000011"><a xlink:title=" ">
<polygon fill="white" stroke="none" points="597.32,-898 437.07,-898 437.07,-846 597.32,-846 597.32,-898"/>
<text text-anchor="start" x="441.07" y="-884.5" font-family="Helvetica,sans-Serif" font-size="10.00">final SwingPropertyChangeSupport</text>
<text text-anchor="start" x="515.69" y="-868.5" font-family="Helvetica,sans-Serif" font-size="10.00"> </text>
<text text-anchor="start" x="515.69" y="-852.5" font-family="Helvetica,sans-Serif" font-size="10.00"> </text>
<polygon fill="#666666" stroke="#666666" points="437.07,-880 437.07,-880 597.32,-880 597.32,-880 437.07,-880"/>
<polygon fill="#666666" stroke="#666666" points="437.07,-864 437.07,-864 597.32,-864 597.32,-864 437.07,-864"/>
<polygon fill="none" stroke="#666666" points="437.07,-846 437.07,-898 597.32,-898 597.32,-846 437.07,-846"/>
</a>
</g>
</g>
<!-- Node11&#45;&gt;Node10 -->
<g id="edge12_Node000010_Node000011" class="edge">
<title>Node11&#45;&gt;Node10</title>
<g id="a_edge12_Node000010_Node000011"><a xlink:title=" ">
<path fill="none" stroke="#63b8ff" d="M521.14,-846.21C525.84,-820.38 534.97,-779.12 549.94,-746 550.92,-743.84 551.93,-741.69 552.97,-739.53"/>
<polygon fill="none" stroke="#63b8ff" points="552.98,-739.5 552.12,-732.34 558.4,-728.79 559.26,-735.95 552.98,-739.5"/>
</a>
</g>
<text text-anchor="start" x="552.94" y="-751.5" font-family="Helvetica,sans-Serif" font-size="10.00" fill="grey">&#45;propertyChanges</text>
</g>
<!-- Node12&#45;&gt;Node10 -->
<g id="edge13_Node000010_Node000012" class="edge">
<title>Node12&#45;&gt;Node10</title>
<g id="a_edge13_Node000010_Node000012"><a xlink:title=" ">
<path fill="none" stroke="#63b8ff" d="M378.25,-784.33C406.61,-765.86 436.94,-746.1 466.52,-726.83"/>
<polygon fill="none" stroke="#63b8ff" points="466.56,-726.8 469.41,-720.17 476.62,-720.25 473.77,-726.88 466.56,-726.8"/>
</a>
</g>
<text text-anchor="start" x="432.91" y="-751.5" font-family="Helvetica,sans-Serif" font-size="10.00" fill="grey">&#45;gameBoard</text>
</g>
<!-- Node13 -->
<g id="Node000013" class="node">
<title>Node13</title>
<g id="a_Node000013"><a xlink:title=" ">
<polygon fill="white" stroke="none" points="277.44,-1148 210.94,-1148 210.94,-1096 277.44,-1096 277.44,-1148"/>
<text text-anchor="start" x="214.94" y="-1134.5" font-family="Helvetica,sans-Serif" font-size="10.00">static final int</text>
<text text-anchor="start" x="242.69" y="-1118.5" font-family="Helvetica,sans-Serif" font-size="10.00"> </text>
<text text-anchor="start" x="242.69" y="-1102.5" font-family="Helvetica,sans-Serif" font-size="10.00"> </text>
<polygon fill="#666666" stroke="#666666" points="210.94,-1130 210.94,-1130 277.44,-1130 277.44,-1130 210.94,-1130"/>
<polygon fill="#666666" stroke="#666666" points="210.94,-1114 210.94,-1114 277.44,-1114 277.44,-1114 210.94,-1114"/>
<polygon fill="none" stroke="#666666" points="210.94,-1096 210.94,-1148 277.44,-1148 277.44,-1096 210.94,-1096"/>
</a>
</g>
</g>
<!-- Node13&#45;&gt;Node12 -->
<g id="edge14_Node000012_Node000013" class="edge">
<title>Node13&#45;&gt;Node12</title>
<g id="a_edge14_Node000012_Node000013"><a xlink:title=" ">
<path fill="none" stroke="#63b8ff" d="M244.29,-1096.31C244.41,-1067.93 244.6,-1019.53 244.78,-975.02"/>
<polygon fill="none" stroke="#63b8ff" points="244.78,-974.88 240.81,-968.86 244.83,-962.88 248.81,-968.9 244.78,-974.88"/>
</a>
</g>
<text text-anchor="start" x="247.75" y="-1049.5" font-family="Helvetica,sans-Serif" font-size="10.00" fill="grey">+BOARD_SIZE</text>
<text text-anchor="start" x="247.75" y="-1033.5" font-family="Helvetica,sans-Serif" font-size="10.00" fill="grey">+DRAW</text>
<text text-anchor="start" x="247.75" y="-1017.5" font-family="Helvetica,sans-Serif" font-size="10.00" fill="grey">+NO_WINNER</text>
<text text-anchor="start" x="247.75" y="-1001.5" font-family="Helvetica,sans-Serif" font-size="10.00" fill="grey">+O_WINNER</text>
<text text-anchor="start" x="247.75" y="-985.5" font-family="Helvetica,sans-Serif" font-size="10.00" fill="grey">+X_WINNER</text>
</g>
<!-- Node14 -->
<g id="Node000014" class="node">
<title>Node14</title>
<g id="a_Node000014"><a xlink:href="enumsrc_1_1main_1_1java_1_1_ttt_player_owner.html" target="_top" xlink:title=" ">
<polygon fill="white" stroke="none" points="145.07,-1164 7.32,-1164 7.32,-1080 145.07,-1080 145.07,-1164"/>
<text text-anchor="start" x="11.32" y="-1150.5" font-family="Helvetica,sans-Serif" font-size="10.00">src.main.java.TttPlayerOwner</text>
<text text-anchor="start" x="32.07" y="-1134.5" font-family="Helvetica,sans-Serif" font-size="10.00">+</text>
<text text-anchor="start" x="62.82" y="-1134.5" font-family="Helvetica,sans-Serif" font-size="10.00">NOONE</text>
<text text-anchor="start" x="32.07" y="-1118.5" font-family="Helvetica,sans-Serif" font-size="10.00">+</text>
<text text-anchor="start" x="62.82" y="-1118.5" font-family="Helvetica,sans-Serif" font-size="10.00">X</text>
<text text-anchor="start" x="32.07" y="-1102.5" font-family="Helvetica,sans-Serif" font-size="10.00">+</text>
<text text-anchor="start" x="62.82" y="-1102.5" font-family="Helvetica,sans-Serif" font-size="10.00">O</text>
<text text-anchor="start" x="74.69" y="-1086.5" font-family="Helvetica,sans-Serif" font-size="10.00"> </text>
<polygon fill="#666666" stroke="#666666" points="7.32,-1146 7.32,-1146 145.07,-1146 145.07,-1146 7.32,-1146"/>
<polygon fill="#666666" stroke="#666666" points="7.32,-1098 7.32,-1098 60.82,-1098 60.82,-1098 7.32,-1098"/>
<polygon fill="#666666" stroke="#666666" points="60.82,-1098 60.82,-1098 145.07,-1098 145.07,-1098 60.82,-1098"/>
<polygon fill="none" stroke="#666666" points="7.32,-1080 7.32,-1164 145.07,-1164 145.07,-1080 7.32,-1080"/>
</a>
</g>
</g>
<!-- Node14&#45;&gt;Node10 -->
<g id="edge17_Node000010_Node000014" class="edge">
<title>Node14&#45;&gt;Node10</title>
<g id="a_edge17_Node000010_Node000014"><a xlink:title=" ">
<path fill="none" stroke="#63b8ff" d="M53.95,-1080.2C19.04,-1009.98 -37.43,-865.78 36.44,-782 99.81,-710.13 374.22,-760.92 464.19,-728 464.61,-727.85 465.02,-727.7 465.43,-727.54"/>
<polygon fill="none" stroke="#63b8ff" points="465.39,-727.56 469.49,-721.63 476.54,-723.14 472.44,-729.07 465.39,-727.56"/>
</a>
</g>
<text text-anchor="start" x="39.44" y="-868.5" font-family="Helvetica,sans-Serif" font-size="10.00" fill="grey">&#45;currentPlayer</text>
</g>
<!-- Node14&#45;&gt;Node12 -->
<g id="edge15_Node000012_Node000014" class="edge">
<title>Node14&#45;&gt;Node12</title>
<g id="a_edge15_Node000012_Node000014"><a xlink:title=" ">
<path fill="none" stroke="#63b8ff" d="M104.1,-1080.05C124.07,-1050.75 151.84,-1010 177.46,-972.39"/>
<polygon fill="none" stroke="#63b8ff" points="177.36,-972.54 177.43,-965.33 184.12,-962.63 184.04,-969.84 177.36,-972.54"/>
</a>
</g>
<text text-anchor="start" x="173.81" y="-1017.5" font-family="Helvetica,sans-Serif" font-size="10.00" fill="grey">&#45;tttBoard</text>
</g>
<!-- Node15 -->
<g id="Node000015" class="node">
<title>Node15</title>
<g id="a_Node000015"><a xlink:title=" ">
<polygon fill="white" stroke="none" points="657.07,-898 615.32,-898 615.32,-846 657.07,-846 657.07,-898"/>
<text text-anchor="start" x="619.32" y="-884.5" font-family="Helvetica,sans-Serif" font-size="10.00">boolean</text>
<text text-anchor="start" x="634.69" y="-868.5" font-family="Helvetica,sans-Serif" font-size="10.00"> </text>
<text text-anchor="start" x="634.69" y="-852.5" font-family="Helvetica,sans-Serif" font-size="10.00"> </text>
<polygon fill="#666666" stroke="#666666" points="615.32,-880 615.32,-880 657.07,-880 657.07,-880 615.32,-880"/>
<polygon fill="#666666" stroke="#666666" points="615.32,-864 615.32,-864 657.07,-864 657.07,-864 615.32,-864"/>
<polygon fill="none" stroke="#666666" points="615.32,-846 615.32,-898 657.07,-898 657.07,-846 615.32,-846"/>
</a>
</g>
</g>
<!-- Node15&#45;&gt;Node10 -->
<g id="edge18_Node000010_Node000015" class="edge">
<title>Node15&#45;&gt;Node10</title>
<g id="a_edge18_Node000010_Node000015"><a xlink:title=" ">
<path fill="none" stroke="#63b8ff" d="M636.39,-846.45C636.58,-821.55 636.9,-781.05 637.21,-740.84"/>
<polygon fill="none" stroke="#63b8ff" points="637.21,-740.71 633.26,-734.68 637.31,-728.71 641.26,-734.74 637.21,-740.71"/>
</a>
</g>
<text text-anchor="start" x="640.13" y="-751.5" font-family="Helvetica,sans-Serif" font-size="10.00" fill="grey">&#45;bIsGameOver</text>
</g>
<!-- Node16&#45;&gt;Node7 -->
<g id="edge19_Node000007_Node000016" class="edge">
<title>Node16&#45;&gt;Node7</title>
<g id="a_edge19_Node000007_Node000016"><a xlink:title=" ">
<path fill="none" stroke="#63b8ff" d="M908.41,-243.92C902.26,-263.58 896.05,-283.47 890.34,-301.72"/>
<polygon fill="none" stroke="#63b8ff" points="890.33,-301.76 892.36,-308.68 886.75,-313.21 884.73,-306.29 890.33,-301.76"/>
</a>
</g>
<text text-anchor="start" x="904.4" y="-275.5" font-family="Helvetica,sans-Serif" font-size="10.00" fill="grey">&#45;view</text>
</g>
</g>
</svg>
