<?xml version="1.0" encoding="UTF-8" standalone="no"?>
<!DOCTYPE svg PUBLIC "-//W3C//DTD SVG 1.1//EN"
 "http://www.w3.org/Graphics/SVG/1.1/DTD/svg11.dtd">
<!-- Generated by graphviz version 12.2.1 (20241206.2353)
 -->
<!-- Title: src.main.java.TicTacToeView.GameBoardPanel Pages: 1 -->
<svg width="223pt" height="148pt"
 viewBox="0.00 0.00 223.00 148.00" xmlns="http://www.w3.org/2000/svg" xmlns:xlink="http://www.w3.org/1999/xlink">
<g id="graph0" class="graph" transform="scale(1 1) rotate(0) translate(4 144)">
<title>src.main.java.TicTacToeView.GameBoardPanel</title>
<!-- Node1 -->
<g id="Node000001" class="node">
<title>Node1</title>
<g id="a_Node000001"><a xlink:title=" ">
<polygon fill="#999999" stroke="none" points="215,-52 0,-52 0,0 215,0 215,-52"/>
<text text-anchor="start" x="4" y="-38.5" font-family="Helvetica,sans-Serif" font-size="10.00">src.main.java.TicTacToeView.GameBoardPanel</text>
<text text-anchor="start" x="106" y="-22.5" font-family="Helvetica,sans-Serif" font-size="10.00"> </text>
<text text-anchor="start" x="17.06" y="-6.5" font-family="Helvetica,sans-Serif" font-size="10.00">#</text>
<text text-anchor="start" x="39.38" y="-6.5" font-family="Helvetica,sans-Serif" font-size="10.00">void paintComponent(Graphics g)</text>
<polygon fill="#666666" stroke="#666666" points="0,-34 0,-34 215,-34 215,-34 0,-34"/>
<polygon fill="#666666" stroke="#666666" points="0,-18 0,-18 215,-18 215,-18 0,-18"/>
<polygon fill="none" stroke="#666666" points="0,0 0,-52 215,-52 215,0 0,0"/>
</a>
</g>
</g>
<!-- Node2 -->
<g id="Node000002" class="node">
<title>Node2</title>
<g id="a_Node000002"><a xlink:title=" ">
<polygon fill="white" stroke="none" points="126.5,-140 88.5,-140 88.5,-88 126.5,-88 126.5,-140"/>
<text text-anchor="start" x="92.5" y="-126.5" font-family="Helvetica,sans-Serif" font-size="10.00">JPanel</text>
<text text-anchor="start" x="106" y="-110.5" font-family="Helvetica,sans-Serif" font-size="10.00"> </text>
<text text-anchor="start" x="106" y="-94.5" font-family="Helvetica,sans-Serif" font-size="10.00"> </text>
<polygon fill="#666666" stroke="#666666" points="88.5,-122 88.5,-122 126.5,-122 126.5,-122 88.5,-122"/>
<polygon fill="#666666" stroke="#666666" points="88.5,-106 88.5,-106 126.5,-106 126.5,-106 88.5,-106"/>
<polygon fill="none" stroke="#666666" points="88.5,-88 88.5,-140 126.5,-140 126.5,-88 88.5,-88"/>
</a>
</g>
</g>
<!-- Node2&#45;&gt;Node1 -->
<g id="edge1_Node000001_Node000002" class="edge">
<title>Node2&#45;&gt;Node1</title>
<g id="a_edge1_Node000001_Node000002"><a xlink:title=" ">
<path fill="none" stroke="#63b8ff" d="M107.5,-76.66C107.5,-68.29 107.5,-59.57 107.5,-51.82"/>
<polygon fill="none" stroke="#63b8ff" points="104,-76.61 107.5,-86.61 111,-76.61 104,-76.61"/>
</a>
</g>
</g>
</g>
</svg>
