<?xml version="1.0" encoding="UTF-8" standalone="no"?>
<!DOCTYPE svg PUBLIC "-//W3C//DTD SVG 1.1//EN"
 "http://www.w3.org/Graphics/SVG/1.1/DTD/svg11.dtd">
<!-- Generated by graphviz version 12.2.1 (20241206.2353)
 -->
<!-- Title: src.main.java.TttPlayerOwner Pages: 1 -->
<svg width="146pt" height="92pt"
 viewBox="0.00 0.00 145.75 92.00" xmlns="http://www.w3.org/2000/svg" xmlns:xlink="http://www.w3.org/1999/xlink">
<g id="graph0" class="graph" transform="scale(1 1) rotate(0) translate(4 88)">
<title>src.main.java.TttPlayerOwner</title>
<!-- Node1 -->
<g id="Node000001" class="node">
<title>Node1</title>
<g id="a_Node000001"><a xlink:title=" ">
<polygon fill="#999999" stroke="none" points="137.75,-84 0,-84 0,0 137.75,0 137.75,-84"/>
<text text-anchor="start" x="4" y="-70.5" font-family="Helvetica,sans-Serif" font-size="10.00">src.main.java.TttPlayerOwner</text>
<text text-anchor="start" x="24.75" y="-54.5" font-family="Helvetica,sans-Serif" font-size="10.00">+</text>
<text text-anchor="start" x="55.5" y="-54.5" font-family="Helvetica,sans-Serif" font-size="10.00">NOONE</text>
<text text-anchor="start" x="24.75" y="-38.5" font-family="Helvetica,sans-Serif" font-size="10.00">+</text>
<text text-anchor="start" x="55.5" y="-38.5" font-family="Helvetica,sans-Serif" font-size="10.00">X</text>
<text text-anchor="start" x="24.75" y="-22.5" font-family="Helvetica,sans-Serif" font-size="10.00">+</text>
<text text-anchor="start" x="55.5" y="-22.5" font-family="Helvetica,sans-Serif" font-size="10.00">O</text>
<text text-anchor="start" x="67.38" y="-6.5" font-family="Helvetica,sans-Serif" font-size="10.00"> </text>
<polygon fill="#666666" stroke="#666666" points="0,-66 0,-66 137.75,-66 137.75,-66 0,-66"/>
<polygon fill="#666666" stroke="#666666" points="0,-18 0,-18 53.5,-18 53.5,-18 0,-18"/>
<polygon fill="#666666" stroke="#666666" points="53.5,-18 53.5,-18 137.75,-18 137.75,-18 53.5,-18"/>
<polygon fill="none" stroke="#666666" points="0,0 0,-84 137.75,-84 137.75,0 0,0"/>
</a>
</g>
</g>
</g>
</svg>
