<?xml version="1.0" encoding="UTF-8" standalone="no"?>
<!DOCTYPE svg PUBLIC "-//W3C//DTD SVG 1.1//EN"
 "http://www.w3.org/Graphics/SVG/1.1/DTD/svg11.dtd">
<!-- Generated by graphviz version 12.2.1 (20241206.2353)
 -->
<!-- Title: Graphical Class Hierarchy Pages: 1 -->
<svg width="330pt" height="66pt"
 viewBox="0.00 0.00 329.50 66.00" xmlns="http://www.w3.org/2000/svg" xmlns:xlink="http://www.w3.org/1999/xlink">
<g id="graph0" class="graph" transform="scale(1 1) rotate(0) translate(4 62)">
<title>Graphical Class Hierarchy</title>
<!-- Node0 -->
<g id="Node000000" class="node">
<title>Node0</title>
<g id="a_Node000000"><a xlink:href="class_mouse_adapter.html" target="_top" xlink:title=" ">
<polygon fill="white" stroke="#666666" points="100,-58 21,-58 21,-38 100,-38 100,-58"/>
<text text-anchor="middle" x="60.5" y="-44.5" font-family="Helvetica,sans-Serif" font-size="10.00">MouseAdapter</text>
</a>
</g>
</g>
<!-- Node1 -->
<g id="Node000001" class="node">
<title>Node1</title>
<g id="a_Node000001"><a xlink:href="classsrc_1_1main_1_1java_1_1_tic_tac_toe_controller.html" target="_top" xlink:title=" ">
<polygon fill="white" stroke="#666666" points="321.5,-39 157,-39 157,-19 321.5,-19 321.5,-39"/>
<text text-anchor="middle" x="239.25" y="-25.5" font-family="Helvetica,sans-Serif" font-size="10.00">src.main.java.TicTacToeController</text>
</a>
</g>
</g>
<!-- Node0&#45;&gt;Node1 -->
<g id="edge4_Node000000_Node000001" class="edge">
<title>Node0&#45;&gt;Node1</title>
<g id="a_edge4_Node000000_Node000001"><a xlink:title=" ">
<path fill="none" stroke="#63b8ff" d="M111.68,-42.61C125.75,-41.09 141.4,-39.41 156.78,-37.76"/>
<polygon fill="#63b8ff" stroke="#63b8ff" points="111.36,-39.12 101.79,-43.67 112.11,-46.08 111.36,-39.12"/>
</a>
</g>
</g>
<!-- Node2 -->
<g id="Node000002" class="node">
<title>Node2</title>
<g id="a_Node000002"><a xlink:href="class_property_change_listener.html" target="_top" xlink:title=" ">
<polygon fill="white" stroke="#666666" points="121,-20 0,-20 0,0 121,0 121,-20"/>
<text text-anchor="middle" x="60.5" y="-6.5" font-family="Helvetica,sans-Serif" font-size="10.00">PropertyChangeListener</text>
</a>
</g>
</g>
<!-- Node2&#45;&gt;Node1 -->
<g id="edge5_Node000002_Node000001" class="edge">
<title>Node2&#45;&gt;Node1</title>
<g id="a_edge5_Node000002_Node000001"><a xlink:title=" ">
<path fill="none" stroke="#63b8ff" d="M132.68,-17.65C140.52,-18.49 148.56,-19.36 156.53,-20.22"/>
<polygon fill="#63b8ff" stroke="#63b8ff" points="133.16,-14.18 122.84,-16.59 132.41,-21.14 133.16,-14.18"/>
</a>
</g>
</g>
</g>
</svg>
